<svg width="455" height="272" viewBox="0 0 455 272" fill="none" xmlns="http://www.w3.org/2000/svg">
<path d="M95.12 106C112.21 140.51 137.52 175 144.3 181.46C162.52 198.94 211.16 211.51 225.5 211.91C231.69 212.08 240.25 170.96 235.68 166.17C231.11 161.38 171.06 148.31 167.84 145.85C165.61 144.1 137 116.87 118 100.7C94.37 80.6099 90.63 96.8999 95.12 106Z" fill="#F7A9A0"/>
<path d="M222.42 160.42L206.91 209.37C206.91 209.37 156.09 196 142.49 182.92C128.89 169.84 100.72 123.02 95.22 107.58C89.72 92.14 93.3 79.95 118.22 99.98C143.14 120.01 164.27 140.5 168.68 143.8C173.09 147.1 222.42 160.42 222.42 160.42Z" fill="#455A64"/>
<path d="M206.68 162.38C206.755 162.869 206.973 163.325 207.307 163.689C207.641 164.054 208.076 164.312 208.556 164.429C209.037 164.547 209.541 164.519 210.006 164.35C210.47 164.181 210.875 163.878 211.167 163.479C211.46 163.081 211.627 162.604 211.649 162.11C211.67 161.616 211.545 161.127 211.288 160.704C211.032 160.281 210.655 159.944 210.207 159.735C209.759 159.526 209.259 159.455 208.77 159.53C208.115 159.631 207.527 159.988 207.135 160.523C206.743 161.057 206.579 161.725 206.68 162.38Z" fill="#263238"/>
<path d="M194.23 158.79C194.303 159.28 194.52 159.737 194.853 160.103C195.186 160.469 195.62 160.728 196.101 160.847C196.581 160.967 197.086 160.94 197.552 160.772C198.018 160.604 198.423 160.301 198.716 159.903C199.009 159.504 199.178 159.027 199.2 158.533C199.222 158.038 199.097 157.548 198.84 157.125C198.584 156.702 198.207 156.364 197.759 156.155C197.31 155.946 196.809 155.875 196.32 155.95C195.996 155.999 195.685 156.111 195.405 156.281C195.124 156.45 194.88 156.673 194.686 156.937C194.492 157.2 194.351 157.5 194.273 157.818C194.195 158.136 194.18 158.467 194.23 158.79Z" fill="#263238"/>
<path d="M169.42 197.24C158.29 192.92 147.68 187.89 142.49 182.92C128.89 169.92 100.72 123.02 95.22 107.58C91.7 97.7101 91.89 89.1702 98.99 89.5202L169.42 197.24Z" fill="#263238"/>
<path d="M14.06 240.62H142.36C142.88 235.93 116.48 105.2 103.91 88.8102C101.22 85.3002 92.35 84.3302 84.82 85.2702C82.8527 85.494 80.9087 85.8888 79.01 86.4502C78.9492 86.4776 78.8855 86.4977 78.82 86.5102C77.2849 86.9506 75.8395 87.6581 74.55 88.6002C53.58 105.37 13.05 239.47 14.06 240.62Z" fill="#455A64"/>
<path d="M93.47 118.39L98.93 107.77L105.97 115.45L104.25 123.1L97.29 123.99L93.47 118.39Z" fill="#263238"/>
<path d="M97.29 123.99L93.97 202.12L108.61 227.96L116.21 198.88L104.25 123.1L97.29 123.99Z" fill="#263238"/>
<path d="M97.09 106.35C95.09 106.27 81.67 95.7903 77.55 87.6203C77.27 87.0603 78.31 81.3003 79.24 74.2303C79.78 69.9403 80.24 65.1503 80.44 60.7503C80.44 59.8403 83.49 61.6103 83.49 61.6103L89.14 63.1703L107.84 68.3803C107.84 68.3803 104.84 77.5203 104.6 85.2003C104.591 85.8096 104.635 86.4185 104.73 87.0203C104.737 87.1202 104.737 87.2205 104.73 87.3203C105.21 90.7703 100.4 106.48 97.09 106.35Z" fill="#F7A9A0"/>
<path d="M104.73 87.0003C104.737 87.1002 104.737 87.2005 104.73 87.3003C103.786 87.3935 102.836 87.4102 101.89 87.3503C83.3 86.3503 81.77 62.5903 81.77 62.5903L89.11 63.1503L107.81 68.3603C107.81 68.3603 104.81 77.5003 104.57 85.1803C104.571 85.7905 104.625 86.3994 104.73 87.0003Z" fill="#263238"/>
<path d="M76.1 28.39C73.29 38.24 79.01 66.45 86.1 72.63C96.37 81.63 112.93 82.15 120.47 69.85C127.78 57.94 119.69 21.31 111.79 15.72C100.17 7.48996 80.24 13.83 76.1 28.39Z" fill="#F7A9A0"/>
<path d="M104 44.8102C104 44.7402 103.87 44.9302 103.89 45.0002C104.32 46.8902 104.51 49.1302 102.89 50.1002C102.84 50.1002 102.89 50.2302 102.89 50.2102C105 49.4902 104.75 46.5302 104 44.8102Z" fill="#263238"/>
<path d="M101.94 43.1599C98.84 43.5299 99.81 49.7099 102.68 49.3699C105.55 49.0299 104.54 42.8399 101.94 43.1599Z" fill="#263238"/>
<path d="M115.17 43.3803C115.17 43.3003 115.33 43.4403 115.34 43.5203C115.58 45.4503 116.18 47.6103 118.01 47.9703C118.07 47.9703 118.08 48.0803 118.01 48.0803C115.85 48.1203 115.09 45.2403 115.17 43.3803Z" fill="#263238"/>
<path d="M116.56 41.1104C119.56 40.3904 120.82 46.5304 118 47.1904C115.18 47.8504 114 41.7104 116.56 41.1104Z" fill="#263238"/>
<path d="M99.06 40.7102C99.836 40.3471 100.591 39.9398 101.32 39.4902C102.176 39.1738 102.904 38.5831 103.39 37.8102C103.494 37.5372 103.506 37.2375 103.423 36.9573C103.339 36.6771 103.166 36.4321 102.93 36.2602C102.411 35.9916 101.829 35.8667 101.245 35.8984C100.662 35.93 100.097 36.1171 99.61 36.4402C98.5242 36.9439 97.6625 37.8305 97.19 38.9302C97.097 39.1877 97.0809 39.4666 97.1438 39.7331C97.2066 39.9995 97.3457 40.2419 97.544 40.4306C97.7422 40.6194 97.9912 40.7463 98.2604 40.796C98.5296 40.8456 98.8074 40.8158 99.06 40.7102Z" fill="#263238"/>
<path d="M118.46 37.6202C117.58 37.6202 116.77 37.4602 115.91 37.3702C114.996 37.4089 114.095 37.1415 113.35 36.6102C113.145 36.4026 113.015 36.1317 112.982 35.8415C112.95 35.5512 113.016 35.2584 113.17 35.0102C113.545 34.5625 114.033 34.2227 114.583 34.0258C115.133 33.829 115.726 33.7822 116.3 33.8902C117.498 33.9344 118.637 34.4186 119.5 35.2502C119.683 35.4533 119.803 35.7048 119.847 35.9745C119.89 36.2442 119.855 36.5208 119.745 36.7709C119.635 37.0211 119.456 37.2343 119.228 37.385C119 37.5356 118.733 37.6173 118.46 37.6202Z" fill="#263238"/>
<path d="M105.05 62.8601C105.58 63.2301 106.14 63.7801 106.84 63.7301C107.557 63.6064 108.239 63.3302 108.84 62.9201C108.853 62.9154 108.866 62.9145 108.879 62.9173C108.892 62.9202 108.904 62.9267 108.914 62.9362C108.923 62.9457 108.93 62.9577 108.933 62.9708C108.936 62.9839 108.935 62.9975 108.93 63.0101C108.717 63.4289 108.394 63.7822 107.996 64.0322C107.598 64.2823 107.14 64.4198 106.67 64.4301C106.263 64.389 105.876 64.2285 105.56 63.9688C105.243 63.7091 105.01 63.3617 104.89 62.9701C104.84 62.8701 105 62.8001 105.05 62.8601Z" fill="#263238"/>
<path d="M112.35 58.1503C111.706 59.3307 110.769 60.3258 109.63 61.0403C108.999 61.4106 108.268 61.5716 107.54 61.5003C105.94 61.3403 105.69 59.9503 105.78 58.7003C105.833 58.0405 105.964 57.3894 106.17 56.7603C108.03 57.869 110.195 58.3559 112.35 58.1503Z" fill="white"/>
<path d="M106.17 56.8101C106.781 57.4879 107.525 58.0322 108.357 58.409C109.188 58.7859 110.088 58.9871 111 59.0001C111.799 59.0247 112.597 58.9337 113.37 58.7301C113.52 58.7054 113.668 58.6652 113.81 58.6101C113.94 58.6101 114.07 58.5401 114.22 58.4801C114.318 58.4434 114.401 58.3756 114.457 58.2872C114.513 58.1987 114.539 58.0944 114.53 57.9901C114.524 57.9244 114.507 57.8602 114.48 57.8001V57.6301C114.29 56.1501 113.79 53.9301 113.79 53.9301C114.37 54.1201 117.31 54.9301 117.15 54.1601C115.77 47.8401 114.23 40.8201 111.52 34.8201C111.501 34.7802 111.469 34.7485 111.429 34.7309C111.388 34.7133 111.343 34.711 111.301 34.7246C111.259 34.7381 111.224 34.7665 111.202 34.8043C111.179 34.8422 111.172 34.8869 111.18 34.9301C112.26 41.0501 114.42 46.9301 115.62 53.0801C114.57 52.7767 113.483 52.6218 112.39 52.6201C112.19 52.7201 113.39 56.9001 113.46 57.5701V57.6401C111.03 58.3501 109.04 57.8901 106.38 56.6401C106.16 56.5201 106 56.6701 106.17 56.8101Z" fill="#263238"/>
<path d="M79.42 50.3903C86.15 49.3903 85.67 36.9603 85.67 36.9603C85.67 36.9603 96.96 33.3703 97.37 24.4203C97.37 24.4203 109.37 29.8303 117.55 25.4203C125.73 21.0103 122.49 11.5303 121.23 9.58032C119.97 7.63032 115.75 12.2103 115.75 12.2103C115.75 12.2103 114.39 6.76032 112.84 6.41032C111.29 6.06032 110.16 9.64031 110.16 9.64031C110.16 9.64031 98.49 7.54032 88.44 9.30032C78.39 11.0603 74.88 22.0003 74.88 22.0003C74.88 22.0003 69.65 23.9303 68.46 28.0003C67.27 32.0703 75.12 51.0003 79.42 50.3903Z" fill="#263238"/>
<path d="M83 37.4399C92.12 37.3199 97.19 30.5099 97.24 21.7499C97.2462 21.7322 97.2576 21.7169 97.2729 21.7061C97.2881 21.6953 97.3063 21.6895 97.325 21.6895C97.3437 21.6895 97.3619 21.6953 97.3771 21.7061C97.3924 21.7169 97.4039 21.7322 97.41 21.7499C98.31 29.7499 92.16 39.7499 82.97 37.8599C82.71 37.7999 82.72 37.4399 83 37.4399Z" fill="#263238"/>
<path d="M75.1 21.78C75.1213 21.7755 75.1434 21.778 75.1631 21.7872C75.1828 21.7964 75.199 21.8118 75.2092 21.831C75.2194 21.8503 75.223 21.8723 75.2195 21.8937C75.2161 21.9152 75.2057 21.935 75.19 21.95C72.85 23.48 70.11 24.76 68.68 27.3C66.96 30.37 67.94 33.92 69.2 36.94C71.13 41.61 74.56 47.55 79.31 49.77C79.59 49.9 79.38 50.3 79.11 50.19C73.45 47.88 69.23 40.14 67.68 34.53C65.94 28.25 69.39 24 75.1 21.78Z" fill="#263238"/>
<path d="M107.54 25.4901C111.83 27.2901 117.69 26.4901 121.16 23.2701C125.38 19.2701 123.59 14.0201 120.89 9.79007C120.76 9.59007 121.05 9.30008 121.23 9.49008C124.6 13.0601 125.71 19.0701 122.36 23.0501C119.01 27.0301 111.97 28.0501 107.24 26.0501C106.85 25.9201 107.14 25.3201 107.54 25.4901Z" fill="#263238"/>
<path d="M102.44 56C100.887 56.0602 99.3485 55.6832 97.9993 54.9119C96.6501 54.1406 95.5445 53.0061 94.8085 51.6373C94.0724 50.2686 93.7354 48.7207 93.8359 47.1699C93.9363 45.6191 94.4701 44.1276 95.3765 42.8652C96.283 41.6028 97.5256 40.6203 98.963 40.0295C100.4 39.4386 101.975 39.2632 103.507 39.5232C105.039 39.7832 106.468 40.4681 107.63 41.5C108.792 42.5319 109.641 43.8693 110.08 45.36C110.7 47.4698 110.458 49.7394 109.406 51.6706C108.354 53.6017 106.579 55.0366 104.47 55.66C103.81 55.8557 103.128 55.9698 102.44 56ZM101.85 40.52C101.254 40.549 100.664 40.6463 100.09 40.81C98.3382 41.3286 96.8501 42.4955 95.9286 44.073C95.0071 45.6505 94.7216 47.5199 95.1302 49.3005C95.5388 51.0812 96.6108 52.6391 98.1279 53.6569C99.645 54.6748 101.493 55.0761 103.296 54.7791C105.098 54.4821 106.72 53.5091 107.83 52.0583C108.94 50.6075 109.456 48.788 109.272 46.9704C109.087 45.1528 108.217 43.4738 106.838 42.2754C105.459 41.077 103.676 40.4492 101.85 40.52Z" fill="#455A64"/>
<path d="M121.23 53.0001C118.06 53.1201 115.06 50.0001 114.39 45.7101C114.038 43.6714 114.332 41.5737 115.23 39.7101C115.594 38.9015 116.147 38.1928 116.844 37.6443C117.54 37.0959 118.359 36.7239 119.23 36.5601C120.107 36.4486 120.998 36.5524 121.825 36.8625C122.653 37.1727 123.392 37.6798 123.98 38.3401C125.4 39.8442 126.319 41.7518 126.61 43.8001C127.31 48.3201 125.15 52.4301 121.79 52.9501C121.605 52.9826 121.418 52.9993 121.23 53.0001ZM119.81 37.6101H119.39C118.696 37.7543 118.047 38.0617 117.496 38.5069C116.944 38.9521 116.507 39.5222 116.22 40.1701C115.428 41.8275 115.173 43.6907 115.49 45.5001C116.1 49.4101 118.83 52.2501 121.6 51.8201C124.37 51.3901 126.11 47.8201 125.5 43.9301C125.252 42.1129 124.444 40.418 123.19 39.0801C122.758 38.6149 122.235 38.2434 121.654 37.9888C121.072 37.7342 120.445 37.6019 119.81 37.6001V37.6101Z" fill="#455A64"/>
<path d="M110 46.3804L109.17 45.6503C110.25 44.4103 112.9 42.5603 115.24 44.3903L114.56 45.2603C112.42 43.6203 110.05 46.2704 110 46.3804Z" fill="#455A64"/>
<path d="M73.76 54.1801L72.76 53.8301C72.92 53.3401 74.43 49.0201 76.76 48.2401C79.09 47.4601 93.9 46.6001 94.53 46.5601L94.6 47.6701C90.32 47.9301 78.83 48.7301 77.11 49.2901C75.39 49.8501 74.16 53.0001 73.76 54.1801Z" fill="#455A64"/>
<path d="M83.7 51.6399C83.7 51.6399 76.95 42.7399 72.88 45.1899C68.81 47.6399 74.15 60.6999 79.1 62.3299C79.7204 62.5747 80.3834 62.6929 81.0502 62.6776C81.7169 62.6623 82.3739 62.5138 82.9824 62.2408C83.5909 61.9678 84.1386 61.5758 84.5933 61.0879C85.048 60.6 85.4005 60.0261 85.63 59.3999L83.7 51.6399Z" fill="#F7A9A0"/>
<path d="M74.51 48.8999C74.43 48.8999 74.42 48.9999 74.51 49.0299C77.99 50.2799 79.91 53.3799 81.3 56.6099C80.23 55.3899 78.82 54.7499 77.17 56.0199C77.1555 56.037 77.1466 56.058 77.1444 56.0803C77.1422 56.1026 77.1468 56.125 77.1577 56.1445C77.1686 56.1641 77.1851 56.1799 77.2052 56.1898C77.2253 56.1997 77.2479 56.2032 77.27 56.1999C77.8644 55.9866 78.5103 55.9624 79.1191 56.1307C79.7278 56.299 80.2696 56.6515 80.67 57.1399C81.3372 57.9566 81.9107 58.8455 82.38 59.7899C82.56 60.0899 83.1 59.8999 82.97 59.5499V59.4799C82.82 55.1199 79.2 49.1499 74.51 48.8999Z" fill="#263238"/>
<path d="M104.83 87.6801L98.15 104.07L77.91 83.3701L72.14 90.0001C72.14 90.0001 91.92 122.86 92.04 121.38L98.8 107.32L108.49 117.13L107.76 92.5501L104.83 87.6801Z" fill="#455A64"/>
<path d="M108.82 105C108.56 100.94 108.41 96.8501 107.97 92.8201C107.97 92.6701 107.73 92.6101 107.69 92.8201C106.87 96.7301 107.94 112.23 107.91 115.94C107.51 115.52 98.91 107.31 98.84 107.44C97.38 109.67 92.42 119.91 92.08 120.84C88.95 115.62 76.97 96.6401 73.26 91.7001C73.2393 91.6729 73.2094 91.6543 73.1759 91.6477C73.1424 91.6411 73.1077 91.6469 73.0782 91.6641C73.0487 91.6813 73.0265 91.7087 73.0158 91.7411C73.0051 91.7735 73.0066 91.8087 73.02 91.8401C75.78 97.3601 91.64 122.91 91.89 122.84C94.495 118.01 96.8514 113.05 98.95 107.98C100.4 109.76 109.06 118.98 109.09 118.42C109.238 113.945 109.148 109.465 108.82 105Z" fill="#263238"/>
<path d="M146.77 258.66L46.86 268.55L46.54 191.1L146.45 181.2L146.77 258.66Z" fill="#FFC727"/>
<path d="M79.15 179.3L46.45 182.54L46.54 191.1L81.53 187.63L79.15 179.3Z" fill="#FFC727"/>
<g opacity="0.1">
<path opacity="0.1" d="M146.77 258.66L46.86 268.55L46.54 191.1L146.45 181.2L146.77 258.66Z" fill="black"/>
<path opacity="0.1" d="M79.15 179.3L46.45 182.54L46.54 191.1L81.53 187.63L79.15 179.3Z" fill="black"/>
</g>
<path d="M146.7 258.67L50.34 268.21L36.56 190.54L139.27 181.92L146.7 258.67Z" fill="#EBEBEB"/>
<path d="M146.7 258.67L47.89 268.45L33.12 193.8L136.99 183.52L146.7 258.67Z" fill="white"/>
<path d="M146.52 258.69L46.4 268.6L31.78 195.56L131.91 185.65L146.52 258.69Z" fill="#FFC727"/>
<path d="M61.12 100.3C26.97 131.3 2.32 184.7 3.12 199.09C4.12 218.09 38.56 250.61 60.99 260.02C66.66 262.4 88.6 215.96 80.3 213.54C71.54 210.99 51.3 192.63 50.3 191.79C48.2 190.01 64.52 149.38 71.35 124.72C79 96.87 75.49 87.26 61.12 100.3Z" fill="#F7A9A0"/>
<path d="M48.27 252.92C70 268.6 99.52 272 104.61 271.48C108.96 271.05 111.19 270.79 111.19 270.79C119 270.18 121.8 266.48 121.8 266.48C121.8 266.48 131.04 268.42 133.14 263.04C135.52 257.04 122.08 255.45 115.22 250.04C99.49 237.73 80.57 215.83 76.39 211.83L48.27 252.92Z" fill="#F7A9A0"/>
<path d="M89.67 248.76C94.37 252.29 98.9 255.88 104.05 258.76C109.71 261.91 115.68 264 121.71 266.28C121.742 266.298 121.768 266.326 121.782 266.36C121.796 266.394 121.797 266.432 121.787 266.467C121.776 266.502 121.754 266.532 121.724 266.553C121.693 266.574 121.657 266.583 121.62 266.58C109.474 263.83 98.3139 257.805 89.35 249.16C89.14 249 89.43 248.59 89.67 248.76Z" fill="#263238"/>
<path d="M80.86 257.18C85.62 260.36 94.03 265.9 111.24 270.61C111.3 270.61 111.29 270.72 111.24 270.71C100.006 269.304 89.3842 264.803 80.56 257.71C80.27 257.45 80.54 257 80.86 257.18Z" fill="#263238"/>
<path d="M97.2 234.05C95.79 231.63 97.05 230.87 101.67 232.69C106.29 234.51 123.08 245.69 126.47 239.47C129.86 233.25 106 217.92 98 215.48C90 213.04 76.37 211.87 76.37 211.87C80.44 215.8 89.35 226.25 97.2 234.05Z" fill="#F7A9A0"/>
<path d="M49.05 256.41L76.26 210.74C76.26 210.74 50.8 192.88 50.68 191.1C50.56 189.32 68.57 140.1 74.01 115.88C79.45 91.6599 76.76 80.1099 52.92 107.11C29.08 134.11 -1.49 179.54 0.130003 199.01C1.75 218.48 49.05 256.41 49.05 256.41Z" fill="#455A64"/>
<path d="M69.49 139C68.49 140.73 67.44 142.43 66.55 144.21C66.25 144.79 65.96 145.37 65.67 145.95C65.89 145.25 66.12 144.56 66.35 143.86C67.74 139.47 69.09 135.06 70.27 130.6C70.2793 130.575 70.2782 130.547 70.2669 130.523C70.2557 130.498 70.2352 130.479 70.21 130.47C70.1848 130.461 70.1569 130.462 70.1326 130.473C70.1082 130.484 70.0893 130.505 70.08 130.53C66.94 138.09 64.34 145.88 61.76 153.65C59.18 161.42 56.76 169.35 54.4 177.25C53.1 181.67 51.76 186.11 50.74 190.6C50.7457 190.615 50.7559 190.629 50.7693 190.638C50.7827 190.647 50.7987 190.652 50.815 190.652C50.8313 190.652 50.8473 190.647 50.8607 190.638C50.8741 190.629 50.8843 190.615 50.89 190.6C52.39 186.75 53.66 182.8 54.96 178.88C56.26 174.96 57.58 171.05 58.85 167.13C60.85 160.87 62.85 154.607 64.85 148.34C65.7051 147.166 66.4357 145.906 67.03 144.58C67.96 142.76 68.7 140.86 69.52 139H69.49Z" fill="#263238"/>
<path d="M44.22 244.94C44.0662 245.41 44.0554 245.915 44.1888 246.391C44.3222 246.868 44.5939 247.294 44.9694 247.616C45.345 247.937 45.8076 248.141 46.2987 248.199C46.7898 248.258 47.2873 248.17 47.7283 247.946C48.1693 247.722 48.5339 247.372 48.776 246.941C49.0182 246.51 49.1269 246.016 49.0886 245.523C49.0502 245.03 48.8665 244.56 48.5605 244.171C48.2546 243.782 47.8403 243.493 47.37 243.34C46.7401 243.138 46.0557 243.192 45.4658 243.492C44.8759 243.791 44.4282 244.312 44.22 244.94Z" fill="#263238"/>
<path d="M34.71 236.15C34.5581 236.621 34.5491 237.126 34.6841 237.601C34.8191 238.077 35.092 238.502 35.4684 238.822C35.8448 239.142 36.3077 239.344 36.7987 239.402C37.2897 239.459 37.7867 239.37 38.2268 239.145C38.667 238.92 39.0306 238.569 39.2717 238.138C39.5127 237.706 39.6204 237.213 39.5812 236.72C39.5419 236.227 39.3574 235.757 39.0511 235.369C38.7447 234.981 38.3302 234.693 37.86 234.54C37.5475 234.439 37.218 234.4 36.8905 234.426C36.563 234.452 36.2438 234.543 35.9513 234.692C35.6587 234.842 35.3985 235.048 35.1855 235.298C34.9725 235.548 34.811 235.838 34.71 236.15Z" fill="#263238"/>
<path d="M17.61 227.14C20.76 229.82 23.72 232.7 26.61 235.6C28.07 237.06 29.52 238.52 30.95 240C32.38 241.48 33.79 243 35.2 244.51C31.9438 241.994 28.8695 239.25 26 236.3C23.0376 233.403 20.2367 230.345 17.61 227.14Z" fill="#263238"/>
<path d="M366 20.9999C368.14 14.1199 377.5 -1.00011 392.61 3.54989C414.12 10.0499 413.3 52.7099 423 66.9999C440.56 92.7999 439 116.54 422.36 118.79C403.75 121.3 387.88 100.09 392.55 57.8699C395.47 31.4699 389.12 19.0499 383.78 19.3399C378.44 19.6299 374.9 25.9999 374.9 25.9999L366 20.9999Z" fill="#263238"/>
<path d="M366.93 18.4101C368.326 15.2429 370.102 12.2575 372.22 9.52011C374.348 6.70048 377.043 4.35699 380.13 2.6401C383.311 0.895126 386.96 0.195403 390.56 0.640104C394.152 1.07976 397.583 2.38368 400.56 4.44011C403.431 6.55551 405.817 9.25901 407.56 12.3701C409.278 15.4243 410.641 18.6654 411.62 22.0301C413.449 28.6919 414.522 35.5383 414.82 42.4401C413.778 35.6663 412.227 28.9807 410.18 22.4401C409.099 19.2486 407.695 16.176 405.99 13.2701C404.328 10.4024 402.083 7.91545 399.4 5.97011C396.7 4.08442 393.592 2.86451 390.33 2.41011C387.08 1.9315 383.762 2.4584 380.82 3.9201C377.825 5.43926 375.152 7.52435 372.95 10.0601C371.803 11.3294 370.731 12.6651 369.74 14.0601C368.753 15.4934 367.817 16.9434 366.93 18.4101Z" fill="#263238"/>
<path d="M393.78 43.2402C393.61 47.4602 392.97 51.6402 392.5 55.8202C392.03 60.0002 391.44 64.1602 391.04 68.3302C390.64 72.5002 390.38 76.6802 390.41 80.8502C390.365 84.9994 390.73 89.1429 391.5 93.2202C392.205 97.2627 393.671 101.135 395.82 104.63C398.098 108.048 400.958 111.04 404.27 113.47C407.585 115.938 411.436 117.586 415.51 118.28C417.556 118.637 419.641 118.725 421.71 118.54C422.747 118.443 423.776 118.276 424.79 118.04C425.834 117.831 426.844 117.478 427.79 116.99C425.951 118.078 423.909 118.779 421.79 119.05C419.677 119.385 417.529 119.446 415.4 119.23C413.26 118.982 411.158 118.475 409.14 117.72C407.126 116.939 405.207 115.933 403.42 114.72C401.626 113.51 399.951 112.13 398.42 110.6L397.31 109.43L396.24 108.22C395.515 107.404 394.847 106.538 394.24 105.63C391.924 101.967 390.332 97.8931 389.55 93.6302C387.95 85.1602 388.44 76.5602 389.5 68.2002C390.03 64.0002 390.76 59.8402 391.5 55.7002C392.24 51.5602 393.18 47.4102 393.78 43.2402Z" fill="#263238"/>
<path d="M364.68 21.0003C364.62 19.0003 366.05 16.4703 367.33 16.1203C368.61 15.7703 378.09 19.8403 378.91 22.2803C379.73 24.7203 375.5 26.8603 375.5 26.8603L364.68 21.0003Z" fill="#455A64"/>
<path d="M372 108.3C366.36 120.56 324.44 178.19 303.63 179.76C281.85 181.41 229.63 145.82 224.63 142.85C210.9 134.73 249.19 97.2503 255.81 103.85C266.87 114.98 293.32 135.94 299.81 134.53C313.41 131.53 341.72 107.77 361.81 95.3903C373.85 88.0003 378.23 94.7303 372 108.3Z" fill="#AD6359"/>
<path d="M227.88 144.76C225.52 143.19 206.46 132.6 199.31 122.4C195.53 117 186.8 101 189.8 98.2401C192.54 95.7601 196.01 99.5701 196.01 99.5701C196.01 99.5701 192.22 92.3601 196.07 88.9601C199.92 85.5601 205.45 92.29 205.45 92.29C205.45 92.29 202.1 84.6001 206.18 81.4901C210.26 78.3801 214.68 86.0601 214.68 86.0601C214.68 86.0601 211.29 79.18 215.73 78.06C221.08 76.67 225.9 90.0601 231.08 95.2201C232.25 96.3901 256.61 117.22 256.61 117.22L227.88 144.76Z" fill="#AD6359"/>
<path d="M215 86.0601C218.57 95.9001 221.83 99.5901 230 105.91C230.16 106.03 230 106.3 229.83 106.18C221.3 100.72 216.54 96.6801 214.54 86.1801C214.4 85.6901 214.81 85.5901 215 86.0601Z" fill="#263238"/>
<path d="M205.75 92.2402C210.34 102.14 213.85 106.17 221.89 113.42C222 113.52 221.84 113.72 221.72 113.63C213.23 107.18 208.58 103.05 205.28 92.5502C205.13 92.0802 205.54 91.7902 205.75 92.2402Z" fill="#263238"/>
<path d="M196.41 99.91C201.55 109.17 205.2 113.76 213.91 119.79C213.954 119.817 213.985 119.859 213.997 119.909C214.01 119.959 214.002 120.011 213.975 120.055C213.948 120.099 213.906 120.13 213.856 120.142C213.806 120.155 213.754 120.147 213.71 120.12C204.23 114.83 199.63 109.12 196.14 100.12C195.91 99.48 196.09 99.32 196.41 99.91Z" fill="#263238"/>
<path d="M264.86 114.19C264.86 114.19 259.46 102.24 255.92 97.5099C252.38 92.7799 232.74 80.0199 229.74 84.1099C225.87 89.3799 235.74 98.9899 241.22 103.06C241.22 103.06 232.22 115.26 237.86 123.69C243.5 132.12 264.86 114.19 264.86 114.19Z" fill="#AD6359"/>
<path d="M229.15 85.8999C229.09 93.2599 236.6 98.15 241.6 102.49C241.679 102.549 241.743 102.628 241.785 102.718C241.826 102.808 241.845 102.907 241.839 103.006C241.833 103.105 241.803 103.201 241.751 103.286C241.698 103.37 241.626 103.44 241.54 103.49C238.13 108.86 234.87 117.42 237.45 123.62C237.469 123.656 237.472 123.697 237.46 123.736C237.448 123.774 237.421 123.806 237.385 123.825C237.349 123.844 237.307 123.847 237.269 123.835C237.231 123.823 237.199 123.796 237.18 123.76C233.51 117.49 236.02 108.82 240.18 103.18C234.98 98.8099 227.66 93.58 229.12 85.91C229.09 85.86 229.15 85.8599 229.15 85.8999Z" fill="#263238"/>
<path d="M371.43 111.78C364.9 124.78 326.84 180.29 306.28 181.17C285.72 182.05 242.66 164.51 242.66 164.51L274.56 115.92C274.56 115.92 296.65 131.86 300.12 131.98C303.59 132.1 350 101.47 360.8 94.7301C371.6 87.9901 382 90.6201 371.43 111.78Z" fill="#FFC727"/>
<path d="M271.79 164.87C271.636 163.391 271.673 161.899 271.9 160.43C272.084 158.956 272.454 157.511 273 156.13C273.154 157.608 273.117 159.101 272.89 160.57C272.703 162.043 272.334 163.488 271.79 164.87Z" fill="white"/>
<path d="M335.3 155.14C335.151 153.661 335.188 152.17 335.41 150.7C335.593 149.225 335.966 147.779 336.52 146.4C336.772 149.368 336.355 152.355 335.3 155.14Z" fill="white"/>
<path d="M338.82 118.17C337.341 118.321 335.849 118.28 334.38 118.05C332.905 117.873 331.459 117.503 330.08 116.95C331.559 116.801 333.05 116.838 334.52 117.06C335.995 117.244 337.44 117.617 338.82 118.17Z" fill="white"/>
<path d="M287.63 134.94C286.154 135.086 284.666 135.046 283.2 134.82C281.724 134.645 280.278 134.275 278.9 133.72C280.375 133.571 281.864 133.608 283.33 133.83C284.805 134.013 286.251 134.386 287.63 134.94Z" fill="white"/>
<path d="M295.1 180.08C295.042 180.161 294.979 180.238 294.91 180.31H294.65L295.1 180.08Z" fill="white"/>
<path d="M259 147.42C260.91 145.149 263.301 143.332 266 142.1C265.061 143.252 263.979 144.281 262.78 145.16C261.622 146.072 260.352 146.832 259 147.42Z" fill="white"/>
<path d="M312.23 136.38C313.172 135.23 314.254 134.202 315.45 133.32C316.623 132.408 317.906 131.649 319.27 131.06C318.333 132.215 317.251 133.243 316.05 134.12C314.877 135.032 313.594 135.791 312.23 136.38Z" fill="white"/>
<path d="M294.57 151.62C296.853 153.518 298.673 155.912 299.89 158.62C297.612 156.717 295.794 154.324 294.57 151.62Z" fill="white"/>
<path d="M345.11 128.83C347.385 130.734 349.2 133.127 350.42 135.83C349.269 134.897 348.244 133.818 347.37 132.62C346.459 131.458 345.699 130.184 345.11 128.83Z" fill="white"/>
<path d="M281.47 123.81C277.47 131.08 273.58 138.42 269.24 145.5C265.045 152.57 260.479 159.413 255.56 166C255.538 166.021 255.509 166.033 255.479 166.036C255.449 166.039 255.418 166.033 255.392 166.017C255.366 166.001 255.346 165.977 255.335 165.949C255.324 165.92 255.322 165.889 255.33 165.86C259.17 158.61 263.56 151.61 267.83 144.61C272.1 137.61 276.72 130.67 281.01 123.61C281.18 123.33 281.62 123.53 281.47 123.81Z" fill="#263238"/>
<path d="M371.43 111.78C364.9 124.78 326.84 180.29 306.28 181.17C301.28 181.38 294.97 180.51 288.28 179.06C304.28 161.97 348.95 113.77 369.64 91.4602C375.91 91.0802 379 96.7601 371.43 111.78Z" fill="#263238"/>
<path d="M333.5 240.62H454.17C454.17 240.62 407.25 121.83 382.26 97.9299C375.47 91.4399 358.69 91.9299 350.47 102.88C343.73 111.88 325.02 147.62 324.17 160.49C323.32 173.36 333.41 186.05 333.41 186.05L333.5 240.62Z" fill="#FFC727"/>
<path d="M348.92 196.11C348.771 194.634 348.808 193.146 349.03 191.68C349.213 190.205 349.586 188.759 350.14 187.38C350.291 188.856 350.251 190.345 350.02 191.81C349.836 193.284 349.466 194.728 348.92 196.11Z" fill="white"/>
<path d="M431.84 218.47C431.704 216.979 431.758 215.477 432 214C432.183 212.525 432.556 211.08 433.11 209.7C433.261 211.179 433.22 212.671 432.99 214.14C432.792 215.626 432.405 217.081 431.84 218.47Z" fill="white"/>
<path d="M379.78 238C379.631 236.525 379.668 235.036 379.89 233.57C380.073 232.095 380.446 230.65 381 229.27C381.151 230.746 381.111 232.235 380.88 233.7C380.696 235.174 380.326 236.619 379.78 238Z" fill="white"/>
<path d="M367.78 148.34C367.634 146.864 367.675 145.376 367.9 143.91C368.075 142.434 368.445 140.988 369 139.61C369.264 142.575 368.847 145.561 367.78 148.34Z" fill="white"/>
<path d="M399.85 184.45C399.713 182.966 399.764 181.471 400 180C400.18 178.525 400.549 177.08 401.1 175.7C401.365 178.668 400.948 181.658 399.88 184.44L399.85 184.45Z" fill="white"/>
<path d="M335.3 155.14C335.151 153.661 335.188 152.17 335.41 150.7C335.593 149.225 335.966 147.779 336.52 146.4C336.772 149.368 336.355 152.355 335.3 155.14Z" fill="white"/>
<path d="M377.74 190.64C374.773 190.902 371.785 190.488 369 189.43C370.479 189.276 371.971 189.313 373.44 189.54C374.914 189.726 376.358 190.095 377.74 190.64Z" fill="white"/>
<path d="M414.14 156.13C412.661 156.279 411.17 156.242 409.7 156.02C408.225 155.837 406.78 155.464 405.4 154.91C408.368 154.658 411.355 155.075 414.14 156.13Z" fill="white"/>
<path d="M349.19 231.23C347.714 231.376 346.226 231.336 344.76 231.11C343.284 230.935 341.838 230.565 340.46 230.01C341.935 229.861 343.424 229.898 344.89 230.12C346.365 230.303 347.811 230.676 349.19 231.23Z" fill="white"/>
<path d="M416.9 201.33C415.421 201.484 413.929 201.447 412.46 201.22C410.986 201.034 409.542 200.665 408.16 200.12C409.639 199.966 411.131 200.003 412.6 200.23C414.074 200.416 415.518 200.785 416.9 201.33Z" fill="white"/>
<path d="M359.77 217.73C360.712 216.583 361.794 215.559 362.99 214.68C364.16 213.765 365.444 213.005 366.81 212.42C364.903 214.691 362.511 216.505 359.81 217.73H359.77Z" fill="white"/>
<path d="M405.4 226.45C406.337 225.295 407.419 224.267 408.62 223.39C409.793 222.478 411.076 221.719 412.44 221.13C410.537 223.407 408.144 225.226 405.44 226.45H405.4Z" fill="white"/>
<path d="M417.48 183.76C418.422 182.613 419.504 181.589 420.7 180.71C421.87 179.795 423.154 179.035 424.52 178.45C423.586 179.604 422.503 180.63 421.3 181.5C420.13 182.416 418.846 183.175 417.48 183.76Z" fill="white"/>
<path d="M345.43 168.42C346.372 167.27 347.454 166.242 348.65 165.36C349.823 164.448 351.106 163.689 352.47 163.1C351.533 164.255 350.451 165.283 349.25 166.16C348.077 167.072 346.794 167.831 345.43 168.42Z" fill="white"/>
<path d="M392.09 139C393.032 137.85 394.114 136.822 395.31 135.94C396.483 135.028 397.766 134.269 399.13 133.68C398.193 134.835 397.111 135.863 395.91 136.74C394.737 137.652 393.454 138.411 392.09 139Z" fill="white"/>
<path d="M336.61 203.56C335.683 204.689 334.618 205.697 333.44 206.56V205.34C334.424 204.626 335.488 204.028 336.61 203.56Z" fill="white"/>
<path d="M368.32 120.22C369.262 119.07 370.344 118.042 371.54 117.16C372.713 116.248 373.996 115.489 375.36 114.9C373.457 117.177 371.064 118.996 368.36 120.22H368.32Z" fill="white"/>
<path d="M328.53 174.51C329.68 175.452 330.708 176.534 331.59 177.73C332.502 178.903 333.261 180.186 333.85 181.55C331.573 179.647 329.754 177.254 328.53 174.55V174.51Z" fill="white"/>
<path d="M345.11 128.83C347.385 130.734 349.2 133.127 350.42 135.83C349.269 134.897 348.244 133.818 347.37 132.62C346.459 131.458 345.699 130.184 345.11 128.83Z" fill="white"/>
<path d="M387 202.7C389.271 204.607 391.085 206.999 392.31 209.7C391.178 208.757 390.17 207.676 389.31 206.48C388.38 205.325 387.604 204.055 387 202.7Z" fill="white"/>
<path d="M430.4 231.71C431.55 232.652 432.578 233.734 433.46 234.93C434.372 236.103 435.131 237.386 435.72 238.75C434.563 237.816 433.534 236.733 432.66 235.53C431.746 234.359 430.987 233.075 430.4 231.71Z" fill="white"/>
<path d="M386.15 107.26C388.425 109.164 390.24 111.557 391.46 114.26C389.185 112.357 387.37 109.964 386.15 107.26Z" fill="white"/>
<path d="M378.36 163.56C379.514 164.497 380.543 165.579 381.42 166.78C382.337 167.949 383.097 169.233 383.68 170.6C381.402 168.697 379.584 166.304 378.36 163.6V163.56Z" fill="white"/>
<path d="M374.24 99.0802C373.58 100.87 363.24 111.66 354.91 110.17C352.19 109.68 354.19 94.7301 354.19 94.7301L354.09 93.5901L352.64 77.6702L372.33 68.3602L375.16 67.1602C375.16 67.1602 375.27 71.5402 375.35 77.0002C375.35 77.2602 375.35 77.5102 375.35 77.7802C375.35 78.0502 375.35 78.3802 375.35 78.6702C375.35 79.4802 375.35 80.3201 375.35 81.1501C375.35 81.7801 375.35 82.3902 375.35 83.0602V85.0602C375.308 89.7537 374.937 94.4385 374.24 99.0802Z" fill="#AD6359"/>
<path d="M375.35 77.0002C373.224 81.1436 370.221 84.7741 366.549 87.6392C362.878 90.5042 358.626 92.535 354.09 93.5901L352.64 77.6702L372.33 68.3602L375.16 67.1602C375.16 67.1602 375.27 71.5402 375.35 77.0002Z" fill="#263238"/>
<path d="M332.38 54.2103C330.16 82.2103 346.66 86.6803 352.7 87.1503C358.17 87.5803 376.88 88.3503 381.98 60.7503C387.08 33.1503 374.78 23.2803 362.31 21.6303C349.84 19.9803 334.61 26.2303 332.38 54.2103Z" fill="#AD6359"/>
<path d="M337.1 48.2599C337.74 48.1689 338.374 48.042 339 47.8799C339.688 47.8424 340.343 47.5747 340.86 47.1199C340.995 46.945 341.068 46.7305 341.068 46.5099C341.068 46.2892 340.995 46.0747 340.86 45.8999C340.545 45.5925 340.154 45.3748 339.727 45.2693C339.299 45.1638 338.852 45.1744 338.43 45.2999C337.533 45.4267 336.715 45.8787 336.13 46.5699C336.005 46.7357 335.932 46.9344 335.919 47.1414C335.906 47.3485 335.955 47.5548 336.058 47.7347C336.161 47.9146 336.315 48.0603 336.5 48.1536C336.685 48.247 336.894 48.2839 337.1 48.2599Z" fill="#263238"/>
<path d="M355.72 48.6601C355.07 48.5801 354.47 48.3901 353.83 48.2501C353.142 48.194 352.492 47.9128 351.98 47.4501C351.845 47.2752 351.772 47.0607 351.772 46.8401C351.772 46.6194 351.845 46.4049 351.98 46.2301C352.302 45.9277 352.699 45.7173 353.13 45.6205C353.561 45.5238 354.01 45.5444 354.43 45.6801C355.323 45.8144 356.132 46.2782 356.7 46.9801C356.818 47.1476 356.885 47.3455 356.894 47.5501C356.902 47.7547 356.852 47.9575 356.749 48.1343C356.646 48.3112 356.494 48.4548 356.311 48.548C356.129 48.6412 355.924 48.6801 355.72 48.6601Z" fill="#263238"/>
<path d="M351.34 55.7201C351.34 55.6401 351.49 55.8101 351.48 55.8901C351.36 57.8001 351.54 60.0001 353.25 60.6901C353.3 60.6901 353.25 60.8101 353.25 60.8001C351.13 60.4301 350.92 57.5001 351.34 55.7201Z" fill="#263238"/>
<path d="M353.11 53.7802C356.19 53.6402 356.23 59.7802 353.38 59.9402C350.53 60.1002 350.53 53.8902 353.11 53.7802Z" fill="#263238"/>
<path d="M354.32 54.1001C354.87 54.4401 355.4 55.1001 356.05 55.1001C356.7 55.1001 357.36 54.5201 357.85 53.9001C357.85 53.8401 357.95 53.9001 357.96 53.9701C357.96 55.1501 357.53 56.3701 356.27 56.5501C355.01 56.7301 354.27 55.6801 353.97 54.4901C353.92 54.2801 354.11 54.0001 354.32 54.1001Z" fill="#263238"/>
<path d="M340.73 55.29C340.73 55.22 340.59 55.39 340.59 55.47C340.68 57.38 340.46 59.58 338.74 60.24C338.68 60.24 338.69 60.35 338.74 60.34C340.86 60 341.12 57.09 340.73 55.29Z" fill="#263238"/>
<path d="M339 53.3202C335.92 53.1302 335.77 59.3202 338.62 59.4802C341.47 59.6402 341.58 53.4802 339 53.3202Z" fill="#263238"/>
<path d="M337.7 53.7003C337.21 54.0103 336.7 54.5902 336.13 54.6202C335.56 54.6502 334.97 53.9603 334.56 53.3103C334.51 53.2503 334.46 53.3103 334.46 53.3803C334.4 54.5603 334.76 55.7903 335.88 56.0503C337 56.3103 337.69 55.2902 338 54.1202C338.06 53.9102 337.9 53.5703 337.7 53.7003Z" fill="#263238"/>
<path d="M351.48 70.8399C351.05 71.3099 350.62 71.9499 349.93 72.0399C349.222 72.062 348.517 71.936 347.86 71.6699C347.847 71.6664 347.833 71.6668 347.82 71.6711C347.807 71.6753 347.796 71.6832 347.787 71.6938C347.779 71.7044 347.774 71.7173 347.772 71.7308C347.771 71.7443 347.774 71.7579 347.78 71.7699C348.072 72.1293 348.456 72.4035 348.89 72.5636C349.325 72.7237 349.795 72.7639 350.25 72.6799C350.638 72.5635 350.982 72.3319 351.235 72.0158C351.489 71.6997 351.64 71.3141 351.67 70.9099C351.69 70.7999 351.54 70.7699 351.48 70.8399Z" fill="#263238"/>
<path d="M343.53 63.8801C343.53 63.8801 343.12 66.7401 343.11 68.0801C343.11 68.2101 343.44 68.2701 343.89 68.3001C343.89 68.3001 343.89 68.3001 343.95 68.3001C345.103 68.5192 346.293 68.4157 347.391 68.001C348.489 67.5864 349.45 66.8766 350.17 65.9501C350.185 65.9235 350.19 65.893 350.186 65.863C350.181 65.8331 350.168 65.8053 350.146 65.7839C350.125 65.7625 350.097 65.7487 350.067 65.7444C350.037 65.7401 350.007 65.7456 349.98 65.7601C348.254 66.9231 346.199 67.4983 344.12 67.4001C344.03 67.0301 344.99 62.5401 344.77 62.5201C343.725 62.6137 342.696 62.8422 341.71 63.2001C342.4 57.2001 344.03 51.4301 344.62 45.4801C344.632 45.4337 344.625 45.3844 344.601 45.3432C344.576 45.3019 344.536 45.272 344.49 45.2601C344.444 45.2482 344.394 45.2551 344.353 45.2795C344.312 45.3039 344.282 45.3437 344.27 45.3901C342.13 51.3901 341.19 58.2001 340.33 64.3901C340.21 65.1101 343 64.1101 343.53 63.8801Z" fill="#263238"/>
<path d="M344.18 68.0003C344.987 69.0769 346.059 69.9275 347.29 70.4703C347.966 70.7442 348.711 70.8002 349.42 70.6303C350.98 70.2403 351.03 68.8203 350.76 67.6303C350.609 66.9833 350.384 66.3558 350.09 65.7603C348.41 67.1193 346.339 67.9044 344.18 68.0003Z" fill="#263238"/>
<path d="M347.29 70.4899C347.966 70.7639 348.711 70.8198 349.42 70.6499C350.98 70.2599 351.03 68.8399 350.76 67.6499C349.1 67.7699 347.45 68.8799 347.29 70.4899Z" fill="#EB9481"/>
<path d="M380.74 63.5399C378.95 62.6623 377.419 61.3343 376.297 59.6864C375.175 58.0384 374.501 56.1271 374.34 54.1399C369.466 51.9826 365.257 48.5611 362.15 44.2299C362.33 44.8099 363.66 48.97 364.41 51.07C346.71 47.68 341.29 34.07 341.29 34.07C335.52 39.78 334.36 43.4399 333.52 45.2599C333.52 45.2599 333.44 34.3999 339.06 27.1499C345.94 18.2699 369.06 15.9699 379.67 27.6399C391.12 40.2499 380.74 63.5399 380.74 63.5399Z" fill="#263238"/>
<path d="M351 48.08C353.839 49.6491 356.896 50.785 360.07 51.45C355.081 50.0774 350.578 47.3335 347.07 43.53C345.581 41.912 344.304 40.1108 343.27 38.17C342.059 36.0916 341.27 33.7942 340.95 31.41C340.95 31.3729 340.935 31.3373 340.909 31.311C340.883 31.2848 340.847 31.27 340.81 31.27C340.773 31.27 340.737 31.2848 340.711 31.311C340.685 31.3373 340.67 31.3729 340.67 31.41C340.735 33.8041 341.202 36.1703 342.05 38.41C342.978 40.595 344.304 42.5887 345.96 44.29C347.439 45.7916 349.122 47.0775 350.96 48.11" fill="#263238"/>
<path d="M377.37 62.55C377.37 62.55 383.43 53.74 387.37 55.9C391.31 58.06 386.84 70.79 382.19 72.56C381.608 72.8278 380.978 72.9752 380.338 72.9933C379.698 73.0115 379.061 72.8999 378.465 72.6655C377.869 72.431 377.326 72.0784 376.87 71.629C376.414 71.1795 376.053 70.6424 375.81 70.05L377.37 62.55Z" fill="#AD6359"/>
<path d="M386 59.52C386.08 59.52 386.09 59.61 386 59.64C382.74 60.99 381 64.04 379.85 67.19C380.85 65.97 382.14 65.3 383.77 66.45C383.85 66.51 383.77 66.64 383.68 66.62C383.107 66.4356 382.491 66.4327 381.917 66.6117C381.342 66.7907 380.837 67.1428 380.47 67.62C379.877 68.4369 379.368 69.3113 378.95 70.23C378.8 70.53 378.27 70.37 378.38 70.04V69.96C378.36 65.83 381.56 60 386 59.52Z" fill="#263238"/>
<path d="M378.34 71.9199C378.34 72.3155 378.457 72.7022 378.677 73.0311C378.897 73.36 379.209 73.6163 379.575 73.7677C379.94 73.9191 380.342 73.9587 380.73 73.8815C381.118 73.8043 381.475 73.6138 381.754 73.3341C382.034 73.0544 382.224 72.6981 382.302 72.3101C382.379 71.9221 382.339 71.52 382.188 71.1546C382.036 70.7891 381.78 70.4768 381.451 70.257C381.122 70.0372 380.736 69.9199 380.34 69.9199C379.814 69.9326 379.312 70.1474 378.94 70.5198C378.567 70.8921 378.353 71.3935 378.34 71.9199Z" fill="white"/>
<path d="M345.09 104.79C345.09 104.79 339.37 121.05 349.72 122.2C360.07 123.35 387.1 103.36 387.1 103.36C387.1 103.36 379.6 91.2203 367.62 92.5203C357.67 93.5903 345.09 104.79 345.09 104.79Z" fill="#AD6359"/>
<path d="M394 123.83C394 143.91 382.46 204.12 371.38 212.23C349.21 228.46 297.22 227.34 282.88 227.59C276.69 227.69 268.56 186.48 273.17 181.74C277.78 177 341.17 175.24 344.37 172.81C346.62 171.12 364.5 141.81 374.85 122.97C388.81 97.5002 394 113.71 394 123.83Z" fill="#AD6359"/>
<path d="M284.17 179.54C284.17 179.54 265.46 177.47 253.17 176.7C246.3 176.26 234.47 176.57 229.28 178.55C221.52 181.55 190.97 198.92 195.02 206.42C198.69 213.2 208.02 205.7 208.02 205.7C208.02 205.7 197.02 212.94 202.76 218.56C208.5 224.18 219.76 213.26 219.76 213.26C219.76 213.26 207.57 220.14 214.24 225.56C220.03 230.25 234.31 219.03 234.31 219.03C234.31 219.03 220.73 224.86 226.19 230.25C232.19 236.25 255.74 222.07 255.74 222.07C271.05 227.17 280.93 228.16 292.65 227.42C294.77 227.29 284.17 179.54 284.17 179.54Z" fill="#AD6359"/>
<path d="M216.32 215.73L219.09 213.29C220.854 211.664 222.71 210.142 224.65 208.73C226.57 207.38 228.54 206.13 230.55 204.94C232.56 203.75 234.94 202.62 237.03 201.3C237.046 201.288 237.064 201.28 237.083 201.275C237.103 201.271 237.123 201.27 237.142 201.274C237.162 201.278 237.18 201.286 237.196 201.297C237.212 201.309 237.226 201.324 237.236 201.341C237.246 201.358 237.252 201.377 237.254 201.397C237.256 201.417 237.254 201.437 237.248 201.455C237.242 201.474 237.231 201.492 237.218 201.506C237.205 201.521 237.188 201.532 237.17 201.54C235.093 202.82 233.09 204.216 231.17 205.72C229.24 207.13 227.32 208.57 225.4 210C223.48 211.43 221.58 212.67 219.67 214C218.67 214.67 217.79 215.39 216.87 216.1C216.035 216.842 215.138 217.511 214.19 218.1C214.1 218.15 214.01 218.02 214.07 217.94C214.741 217.127 215.495 216.387 216.32 215.73Z" fill="#263238"/>
<path d="M205.76 207.25C207.03 205.6 214.02 199.9 215.89 198.55C219.505 195.923 223.374 193.665 227.44 191.81C227.469 191.802 227.501 191.804 227.529 191.815C227.557 191.826 227.581 191.846 227.597 191.872C227.613 191.898 227.62 191.929 227.616 191.959C227.613 191.989 227.601 192.018 227.58 192.04C223.97 194.68 220.32 197.26 216.67 199.85C214.88 201.11 206.96 207.1 206.05 207.62C205.83 207.75 205.63 207.43 205.76 207.25Z" fill="#263238"/>
<path d="M226 224C229.042 221.122 232.273 218.449 235.67 216C239.359 213.815 243.206 211.909 247.18 210.3C247.33 210.25 247.45 210.45 247.32 210.53C243.64 212.72 239.94 214.83 236.32 217.19C234.58 218.34 227.92 223.33 226.16 224.28C226.08 224.33 225.92 224.1 226 224Z" fill="#263238"/>
<path d="M296.79 230.62L279.69 176.28C279.69 176.28 341.91 172.28 343.93 171.28C345.95 170.28 368.13 131.05 376.93 115.81C385.73 100.57 399.29 106.81 394.22 141.24C389.13 175.83 383.53 202.71 375.78 210.71C366.34 220.39 331.94 230.39 296.79 230.62Z" fill="#FFC727"/>
<path d="M348.92 196.11C348.771 194.634 348.808 193.146 349.03 191.68C349.213 190.205 349.586 188.759 350.14 187.38C350.291 188.856 350.251 190.345 350.02 191.81C349.836 193.284 349.466 194.728 348.92 196.11Z" fill="white"/>
<path d="M314.54 227.21C314.386 225.732 314.423 224.239 314.65 222.77C314.837 221.297 315.206 219.852 315.75 218.47C315.904 219.949 315.867 221.441 315.64 222.91C315.456 224.384 315.086 225.829 314.54 227.21Z" fill="white"/>
<path d="M367.78 148.34C367.634 146.864 367.675 145.376 367.9 143.91C368.075 142.434 368.445 140.988 369 139.61C369.264 142.575 368.847 145.561 367.78 148.34Z" fill="white"/>
<path d="M377.74 190.64C374.773 190.902 371.785 190.488 369 189.43C370.479 189.276 371.971 189.313 373.44 189.54C374.914 189.726 376.358 190.095 377.74 190.64Z" fill="white"/>
<path d="M318 192.35C316.521 192.504 315.029 192.467 313.56 192.24C312.086 192.056 310.641 191.686 309.26 191.14C310.739 190.986 312.231 191.023 313.7 191.25C315.173 191.437 316.618 191.806 318 192.35Z" fill="white"/>
<path d="M359.77 217.73C360.712 216.583 361.794 215.559 362.99 214.68C364.16 213.765 365.444 213.005 366.81 212.42C364.903 214.691 362.511 216.505 359.81 217.73H359.77Z" fill="white"/>
<path d="M288.06 185.39C289.002 184.243 290.084 183.219 291.28 182.34C292.45 181.425 293.734 180.665 295.1 180.08C294.165 181.234 293.083 182.259 291.88 183.13C290.71 184.045 289.426 184.805 288.06 185.39Z" fill="white"/>
<path d="M352.47 163.1C351.533 164.255 350.451 165.283 349.25 166.16C348.343 166.85 347.38 167.462 346.37 167.99C346.68 167.51 347.02 166.99 347.37 166.41C347.78 166.05 348.21 165.7 348.64 165.41C349.813 164.48 351.1 163.704 352.47 163.1Z" fill="white"/>
<path d="M394.79 136.39C394.79 136.81 394.71 137.23 394.66 137.66C393.852 138.206 392.991 138.668 392.09 139.04C392.888 138.059 393.794 137.17 394.79 136.39Z" fill="white"/>
<path d="M329.57 208.88C330.512 207.73 331.594 206.702 332.79 205.82C333.963 204.908 335.246 204.149 336.61 203.56C335.673 204.715 334.591 205.743 333.39 206.62C332.217 207.532 330.934 208.291 329.57 208.88Z" fill="white"/>
<path d="M328.53 174.51C329.68 175.452 330.708 176.534 331.59 177.73C332.502 178.903 333.261 180.186 333.85 181.55C331.573 179.647 329.754 177.254 328.53 174.55V174.51Z" fill="white"/>
<path d="M391.46 114.29C390.311 113.354 389.286 112.275 388.41 111.08C387.662 110.11 387.012 109.069 386.47 107.97C386.653 107.96 386.837 107.96 387.02 107.97C387.812 108.733 388.541 109.559 389.2 110.44C390.116 111.621 390.875 112.915 391.46 114.29Z" fill="white"/>
<path d="M378.36 163.56C379.514 164.497 380.543 165.579 381.42 166.78C382.337 167.949 383.097 169.233 383.68 170.6C381.402 168.697 379.584 166.304 378.36 163.6V163.56Z" fill="white"/>
<path d="M363.41 138.78C361.41 141.78 359.5 144.96 357.63 148.09L357.47 148.35C357.56 148.11 357.66 147.87 357.75 147.64C358.36 146.08 358.9 144.49 359.56 142.96C359.56 142.87 359.47 142.79 359.43 142.88C358.75 144.39 358 145.88 357.36 147.39C356.93 148.39 356.54 149.46 356.17 150.51C354.78 152.83 353.39 155.15 352.02 157.51C350.18 160.65 348.35 163.81 346.5 166.95C346.04 167.72 345.6 168.49 345.13 169.26C344.801 169.942 344.226 170.474 343.52 170.75C342.684 170.949 341.829 171.062 340.97 171.09C340.06 171.18 339.15 171.29 338.24 171.4C334.1 171.91 329.99 172.59 325.85 173.13C325.75 173.13 325.75 173.3 325.85 173.29C329.65 173 333.46 172.86 337.26 172.55C339.14 172.4 341.02 172.27 342.88 172.03C343.6 171.992 344.294 171.749 344.88 171.33C345.395 170.862 345.819 170.303 346.13 169.68C349.897 163.16 353.663 156.637 357.43 150.11C359.56 146.41 361.72 142.73 363.68 138.94C363.701 138.904 363.707 138.861 363.697 138.821C363.687 138.781 363.661 138.746 363.625 138.725C363.589 138.704 363.546 138.698 363.506 138.708C363.466 138.718 363.431 138.744 363.41 138.78Z" fill="#263238"/>
<path d="M394.31 153.29C394.118 154.536 393.82 155.764 393.42 156.96C393.12 158.03 392.83 159.1 392.51 160.16C392.19 161.22 391.72 162.55 391.31 163.74C392.15 158.447 392.817 153.113 393.31 147.74C393.31 147.58 393.05 147.55 393.02 147.74C392.02 155.21 390.65 162.65 389.08 170.01C387.51 177.37 385.61 184.72 383.46 191.95C382.4 195.51 381.28 199.06 380.04 202.56C379.071 205.626 377.597 208.509 375.68 211.09C373.412 213.666 370.573 215.677 367.39 216.96C364.075 218.485 360.676 219.821 357.21 220.96C349.33 223.54 341.21 225.18 333.15 227.11C333.06 227.11 333.08 227.28 333.15 227.27C340.547 226.236 347.874 224.753 355.09 222.83C358.745 221.856 362.336 220.654 365.84 219.23C369.05 217.89 372.36 216.44 374.95 214.06C377.32 211.725 379.15 208.899 380.31 205.78C381.66 202.51 382.72 199.11 383.77 195.78C386.07 188.4 387.99 180.96 389.56 173.39C390.007 171.197 390.423 169 390.81 166.8C391.709 164.709 392.438 162.548 392.99 160.34C393.29 159.19 393.58 158.04 393.81 156.87C394.04 155.7 394.11 154.48 394.44 153.35C394.49 153.2 394.32 153.17 394.31 153.29Z" fill="#263238"/>
<path d="M307.61 226.24C304.79 218.43 301.81 210.68 299.34 202.76C296.779 194.946 294.633 187.001 292.91 178.96C292.91 178.93 292.921 178.9 292.94 178.876C292.958 178.852 292.984 178.835 293.014 178.827C293.043 178.819 293.074 178.821 293.102 178.832C293.131 178.844 293.154 178.864 293.17 178.89C296.1 186.55 298.48 194.46 300.94 202.28C303.4 210.1 305.58 218.15 308.07 226.03C308.16 226.33 307.73 226.54 307.61 226.24Z" fill="#263238"/>
<path d="M297.13 175C295.641 174.92 294.149 174.92 292.66 175C291.17 175 289.66 175.1 288.19 175.16C285.19 175.29 282.24 175.51 279.27 175.76C279.212 175.762 279.155 175.777 279.104 175.805C279.053 175.833 279.008 175.871 278.974 175.919C278.941 175.966 278.918 176.021 278.909 176.078C278.899 176.135 278.903 176.194 278.92 176.25C279.282 177.351 279.793 178.398 280.44 179.36C280.49 179.41 280.59 179.36 280.59 179.31C280.459 178.336 280.197 177.384 279.81 176.48C282.65 176.29 285.49 176.12 288.33 175.9L292.79 175.58C294.24 175.46 295.72 175.42 297.16 175.19C297.28 175.19 297.23 175 297.13 175Z" fill="#263238"/>
<path d="M230 163.36C233.71 165.2 250.66 165.9 255.6 171.98C258.89 175.98 258.6 180.11 260.48 192.18C262.15 202.66 253.48 200.18 250.97 194.8C247.05 186.37 243.68 177.13 243.68 177.13C240.787 176.986 237.888 177.03 235 177.26L230 163.36Z" fill="#F7A9A0"/>
<path d="M242.18 203C248.05 199.28 266.82 223 257.44 229.25C248.06 235.5 235.53 207.2 242.18 203Z" fill="#F7A9A0"/>
<path d="M232.67 208C238.53 204.28 257.31 228 247.93 234.25C238.55 240.5 226 212.25 232.67 208Z" fill="#F7A9A0"/>
<path d="M225.93 209C231.78 206.43 245.55 230.58 236.15 235C226.75 239.42 219.31 211.87 225.93 209Z" fill="#F7A9A0"/>
<path d="M219 208.3C225.15 207.57 231.13 233.87 221.16 235.3C211.19 236.73 212.07 209.13 219 208.3Z" fill="#F7A9A0"/>
<path d="M240.84 211.19C241.916 212.378 242.893 213.652 243.76 215C244.76 216.41 245.69 217.84 246.53 219.34C247.349 220.769 248.083 222.245 248.73 223.76C249.39 225.37 249.85 227.09 250.56 228.68C250.569 228.698 250.574 228.717 250.575 228.736C250.576 228.756 250.573 228.775 250.566 228.794C250.559 228.812 250.548 228.829 250.534 228.842C250.52 228.856 250.504 228.867 250.485 228.874C250.467 228.881 250.448 228.884 250.428 228.883C250.408 228.882 250.389 228.877 250.372 228.868C250.354 228.859 250.339 228.847 250.327 228.832C250.314 228.817 250.305 228.799 250.3 228.78C249.616 227.231 248.821 225.734 247.92 224.3C247.09 222.85 246.34 221.36 245.53 219.9C244.72 218.44 243.99 217.04 243.18 215.63C242.37 214.22 241.4 212.82 240.65 211.33C240.638 211.305 240.635 211.276 240.641 211.249C240.648 211.222 240.664 211.198 240.687 211.181C240.709 211.164 240.737 211.156 240.765 211.158C240.793 211.16 240.82 211.171 240.84 211.19Z" fill="#263238"/>
<path d="M231.07 211.06C231.67 212.84 233.69 219.64 234.37 221.4C235.05 223.16 235.8 224.92 236.57 226.66C237.34 228.4 238 230.29 239 232C239.008 232.031 239.006 232.063 238.994 232.093C238.982 232.122 238.96 232.146 238.932 232.161C238.904 232.176 238.872 232.181 238.841 232.176C238.809 232.17 238.781 232.154 238.76 232.13C237.82 230.43 236.76 228.85 235.86 227.13C234.96 225.41 234.25 223.64 233.56 221.84C232.425 218.333 231.506 214.76 230.81 211.14C230.76 210.92 231 210.91 231.07 211.06Z" fill="#263238"/>
<path d="M223.7 212.75C224.17 215.29 224.48 217.86 224.96 220.4C225.19 221.65 225.44 222.9 225.67 224.16C225.78 224.76 225.88 225.37 225.99 225.98C226.048 226.685 226.179 227.382 226.38 228.06C226.45 228.23 226.13 228.31 226.11 228.06C225.926 227.3 225.685 226.554 225.39 225.83C225.22 225.24 225.05 224.66 224.9 224.06C224.59 222.82 224.34 221.58 224.14 220.31C223.69 217.82 223.43 215.299 223.36 212.77C223.36 212.61 223.67 212.56 223.7 212.75Z" fill="#263238"/>
</svg>
