<svg width="500" height="500" viewBox="0 0 500 500" fill="none" xmlns="http://www.w3.org/2000/svg">
<path d="M108.31 87.8799C56.49 87.8799 56.4 161.56 108.31 161.56C160.22 161.56 160.21 87.8799 108.31 87.8799Z" fill="#EBEBEB"/>
<path d="M139.82 131.63C137.05 144.3 126.54 155.3 108.3 155.3C65.23 155.3 65.3 94.1401 108.3 94.1401C108.58 94.1401 108.86 94.1401 109.14 94.1401C68.68 94.8801 68.87 152.79 109.94 152.79C126.69 152.81 136.67 143.12 139.82 131.63Z" fill="#DBDBDB"/>
<path d="M108.61 102.2C108.952 102.192 109.283 102.316 109.535 102.548C109.787 102.779 109.939 103.099 109.96 103.44V105.44C113.564 105.673 117.03 106.918 119.96 109.03C120.46 109.39 120.74 109.69 120.74 110.21C120.714 110.571 120.548 110.907 120.277 111.147C120.006 111.386 119.651 111.509 119.29 111.49C118.923 111.503 118.565 111.374 118.29 111.13C115.846 109.268 112.936 108.116 109.88 107.8V122.16C118.4 123.8 121.99 126.72 121.99 131.75C121.99 137.19 116.99 141.03 109.99 141.24V145.24C109.961 145.577 109.807 145.89 109.558 146.119C109.309 146.347 108.983 146.474 108.645 146.474C108.307 146.474 107.981 146.347 107.732 146.119C107.483 145.89 107.329 145.577 107.3 145.24V141.24C102.675 140.943 98.2617 139.193 94.6899 136.24C94.504 136.129 94.3494 135.973 94.2409 135.786C94.1324 135.598 94.0736 135.387 94.0699 135.17C94.0999 134.819 94.2603 134.492 94.5194 134.253C94.7785 134.014 95.1176 133.881 95.4699 133.88C95.836 133.874 96.1917 134.002 96.4699 134.24C99.5147 136.934 103.349 138.572 107.4 138.91V124.31C98.9999 122.62 95.4999 119.8 95.4999 114.67C95.4999 109.54 100.43 105.54 107.27 105.39V103.39C107.303 103.06 107.459 102.753 107.707 102.533C107.955 102.312 108.278 102.193 108.61 102.2ZM107.38 121.7V107.7C101.94 107.81 98.3799 110.78 98.3799 114.47C98.3599 118 100.15 120.11 107.38 121.7ZM109.85 124.82V139C115.45 138.9 119.1 135.92 119.1 132C119.1 128.47 117.14 126.31 109.85 124.82Z" fill="#DBDBDB"/>
<path d="M401.27 308.26C354.61 316.63 366.93 385.75 413.67 377.36C460.41 368.97 448 299.87 401.27 308.26Z" fill="#DBDBDB"/>
<path d="M405.65 307.47C361.18 315.47 373.51 384.57 418.05 376.57C462.59 368.57 450.18 299.48 405.65 307.47Z" fill="#EBEBEB"/>
<path d="M440.05 343.65C439.81 355.96 432.64 367.89 416.99 370.7C379.99 377.33 369.79 319.97 406.7 313.35C406.94 313.297 407.18 313.257 407.42 313.23C372.82 320.16 382.74 374.44 417.98 368.12C432.35 365.54 439.28 354.91 440.05 343.65Z" fill="#DBDBDB"/>
<path d="M414.52 320.83C414.822 320.877 415.094 321.038 415.28 321.28C415.466 321.522 415.552 321.826 415.52 322.13L415.29 324.07C418.416 324.69 421.285 326.229 423.53 328.49C423.716 328.624 423.864 328.805 423.96 329.013C424.057 329.221 424.098 329.451 424.08 329.68C424.033 330.006 423.86 330.3 423.598 330.5C423.336 330.7 423.007 330.79 422.68 330.75C422.518 330.736 422.36 330.69 422.216 330.615C422.071 330.539 421.944 330.436 421.84 330.31C419.981 328.325 417.577 326.934 414.93 326.31L413.33 339.9C420.53 342.32 423.33 345.45 422.75 350.21C422.15 355.35 417.4 358.48 411.31 357.96L410.86 361.75C410.824 362.059 410.667 362.341 410.423 362.534C410.18 362.727 409.869 362.816 409.56 362.78C409.251 362.744 408.969 362.587 408.776 362.343C408.583 362.099 408.494 361.789 408.53 361.48L408.98 357.64C404.953 356.854 401.305 354.742 398.62 351.64C398.423 351.468 398.286 351.237 398.228 350.982C398.171 350.727 398.197 350.46 398.301 350.22C398.406 349.98 398.585 349.78 398.811 349.649C399.037 349.518 399.3 349.462 399.56 349.49C399.883 349.523 400.181 349.681 400.39 349.93C402.654 352.741 405.813 354.693 409.34 355.46L411 341.62C403.91 339.17 401.22 336.14 401.79 331.29C402.36 326.44 407.07 323.15 413.01 323.7L413.23 321.86C413.27 321.555 413.427 321.277 413.667 321.085C413.908 320.893 414.214 320.801 414.52 320.83ZM411.29 339.15L412.84 325.9C408.12 325.44 404.69 327.9 404.28 331.39C403.89 334.69 405.2 336.91 411.29 339.15ZM413.07 342.36L411.5 355.76C416.36 356.23 419.85 353.76 420.28 350.1C420.68 346.75 419.22 344.51 413.07 342.36Z" fill="#DBDBDB"/>
<path d="M414.79 284.89L428.15 284.61L434.73 284.5C436.92 284.45 439.09 284.5 441.27 284.44L440.83 284.89L440.77 273.7L441.27 274.2L428 274.14C423.59 274.14 419.18 274.02 414.76 273.97L415.04 273.7C415.04 275.53 414.95 277.37 414.9 279.24L414.79 284.89ZM414.79 284.89L414.65 279.35C414.65 277.49 414.54 275.6 414.52 273.7V273.43H414.79C419.21 273.38 423.62 273.27 428.03 273.26L441.27 273.2H441.77V273.7V284.89V285.34H441.32C439.09 285.34 436.85 285.34 434.63 285.28L427.97 285.17L414.79 284.89Z" fill="#EBEBEB"/>
<path d="M429.56 299L442.92 298.72L449.5 298.61C451.69 298.56 453.86 298.61 456.04 298.55L455.6 299L455.55 287.81L456.04 288.31L442.8 288.25C438.39 288.25 433.98 288.13 429.56 288.08L429.84 287.81C429.84 289.64 429.75 291.48 429.71 293.35L429.56 299ZM429.56 299L429.42 293.46C429.42 291.6 429.31 289.71 429.29 287.81V287.54H429.56C433.98 287.49 438.39 287.38 442.8 287.37L456.04 287.31H456.55V287.81L456.49 299V299.45H456C453.77 299.45 451.54 299.45 449.31 299.39L442.65 299.28L429.56 299Z" fill="#EBEBEB"/>
<path d="M400 299L413.36 298.72L419.94 298.61C422.12 298.56 424.3 298.61 426.48 298.55L426.04 299L426 287.81L426.5 288.31L413.26 288.25C408.85 288.25 404.43 288.13 400.02 288.08L400.29 287.81C400.29 289.64 400.21 291.48 400.16 293.35L400 299ZM400 299L399.86 293.46C399.81 291.6 399.75 289.71 399.73 287.81V287.54H400C404.41 287.49 408.83 287.38 413.24 287.37L426.48 287.31H426.98V287.81L427 299V299.45H426.56C424.33 299.45 422.09 299.45 419.87 299.39L413.21 299.28L400 299Z" fill="#EBEBEB"/>
<path d="M58.7299 299L72.08 298.72L78.66 298.61C80.85 298.56 83.0299 298.61 85.2099 298.55L84.76 299L84.7099 287.81L85.2099 288.31L72 288.25C67.58 288.25 63.1699 288.13 58.7599 288.08L59.0299 287.81C59.0299 289.64 58.94 291.48 58.9 293.35L58.7299 299ZM58.7299 299L58.58 293.46C58.58 291.6 58.47 289.71 58.45 287.81V287.54H58.7299C63.1399 287.49 67.55 287.38 71.97 287.37L85.2099 287.31H85.7099V287.81L85.65 299V299.45H85.2099C82.9799 299.45 80.74 299.45 78.51 299.39L71.8499 299.28L58.7299 299Z" fill="#EBEBEB"/>
<path d="M58.7299 47.7698L72.08 47.4898L78.66 47.3698C80.85 47.3698 83.0299 47.3698 85.2099 47.3698L84.76 47.8198L84.7099 36.6298L85.2099 37.1198L72 36.9998C67.58 36.9998 63.1699 36.8898 58.7599 36.8398L59.0299 36.5698C59.0299 38.3998 58.94 40.2398 58.9 42.0998L58.7299 47.7698ZM58.7299 47.7698L58.58 42.2298C58.58 40.3598 58.47 38.4698 58.45 36.5798V36.3098H58.7299C63.1399 36.3098 67.55 36.1498 71.97 36.1498L85.2099 36.0898H85.7099V36.5998L85.65 47.7898V48.2298H85.2099C82.9799 48.2298 80.74 48.2298 78.51 48.1798L71.8499 47.9998L58.7299 47.7698Z" fill="#EBEBEB"/>
<path d="M44 61.8802L57.35 61.6002L63.93 61.4802C66.12 61.4802 68.29 61.4802 70.48 61.4802L70.03 61.9302V50.7402L70.53 51.2302L57.2 51.1202C52.78 51.1202 48.37 51.0002 44 51.0002L44.27 50.7302C44.27 52.5602 44.18 54.4002 44.14 56.2602L44 61.8802ZM44 61.8802L43.85 56.3402C43.85 54.4702 43.74 52.5802 43.72 50.6902V50.4202H44C48.41 50.4202 52.82 50.2602 57.24 50.2602L70.48 50.2002H70.98V50.7102L70.92 61.9002V62.3402H70.48C68.24 62.3402 66.01 62.3402 63.78 62.3402L57.12 62.2202L44 61.8802Z" fill="#EBEBEB"/>
<path d="M429.56 47.7798L442.92 47.4998L449.5 47.3898C451.69 47.3898 453.86 47.3898 456.04 47.3298L455.6 47.7798L455.55 36.5898L456.04 37.0898L442.8 36.9998C438.39 36.9998 433.98 36.8898 429.56 36.8398L429.84 36.5698C429.84 38.3998 429.75 40.2398 429.71 42.0998L429.56 47.7798ZM429.56 47.7798L429.42 42.2398C429.42 40.3698 429.31 38.4898 429.29 36.5898V36.3198H429.56C433.98 36.2698 438.39 36.1698 442.8 36.1598L456 36.0898H456.51V36.5898L456.46 47.7798V48.2298H456C453.77 48.2298 451.54 48.2298 449.31 48.2298L442.65 48.1198L429.56 47.7798Z" fill="#EBEBEB"/>
<path d="M286.21 122.83L272.86 123.11L266.28 123.22C264.09 123.22 261.91 123.22 259.73 123.28L260.18 122.83L260.23 134.02L259.73 133.52L272.97 133.59C277.39 133.59 281.8 133.7 286.21 133.75L285.94 134.02C285.94 132.19 286.03 130.35 286.07 128.49L286.21 122.83ZM286.21 122.83L286.36 128.37C286.36 130.24 286.47 132.12 286.49 134.02V134.29H286.21C281.8 134.29 277.39 134.44 272.97 134.45L259.73 134.51H259.23V134L259.29 122.81V122.36H259.73C261.96 122.36 264.2 122.36 266.43 122.36L273.09 122.47L286.21 122.83Z" fill="#EBEBEB"/>
<path d="M271.44 108.72L258.09 109L251.51 109.11C249.32 109.11 247.14 109.11 244.96 109.17L245.41 108.72L245.46 119.91L244.96 119.41L258.2 119.48C262.61 119.48 267.03 119.59 271.44 119.64L271.17 119.91C271.17 118.08 271.25 116.24 271.3 114.38L271.44 108.72ZM271.44 108.72L271.58 114.26C271.63 116.13 271.7 118.01 271.71 119.91V120.18H271.43C267.02 120.18 262.6 120.33 258.19 120.34L244.95 120.4H244.45V119.9L244.51 108.71V108.26H245C247.23 108.26 249.47 108.26 251.7 108.26L258.36 108.37L271.44 108.72Z" fill="#EBEBEB"/>
<path d="M424.02 0H423.02V119.23H424.02V0Z" fill="#C7C7C7"/>
<path d="M382.12 159.13L385.45 166.45H461.6L464.92 159.13L432.5 136.69H414.54L382.12 159.13Z" fill="#EBEBEB"/>
<path d="M412.29 115.07L414.54 136.69H432.5L434.75 115.07H412.29Z" fill="#DBDBDB"/>
<path d="M382.13 159.14L385.46 166.46H461.61L464.93 159.14H382.13Z" fill="#DBDBDB"/>
<path d="M335.13 0H334.13V95.61H335.13V0Z" fill="#C7C7C7"/>
<path d="M293.23 135.52L296.56 142.84H372.71L376.03 135.52L343.61 113.08H325.65L293.23 135.52Z" fill="#EBEBEB"/>
<path d="M323.4 91.46L325.65 113.08H343.61L345.86 91.46H323.4Z" fill="#DBDBDB"/>
<path d="M293.23 135.52L296.56 142.84H372.71L376.03 135.52H293.23Z" fill="#DBDBDB"/>
<path d="M45.3 401L96.48 400.76L147.65 400.67L250 400.5L352.35 400.67L403.52 400.75L454.69 401L403.52 401.24L352.35 401.33L250 401.5L147.65 401.33L96.48 401.24L45.3 401Z" fill="#263238"/>
<path d="M250 445.25C352.046 445.25 434.77 439.13 434.77 431.58C434.77 424.03 352.046 417.91 250 417.91C147.954 417.91 65.23 424.03 65.23 431.58C65.23 439.13 147.954 445.25 250 445.25Z" fill="#EBEBEB"/>
<path d="M290 321V321.14C290 321.14 290 321.2 290 321.24C290 321.28 290 321.4 289.95 321.51V321.69C289.918 321.818 289.895 321.949 289.88 322.08C289.88 322.17 289.88 322.26 289.83 322.36C289.78 322.46 289.76 322.78 289.71 323.02C289.66 323.26 289.56 323.83 289.48 324.31L289.03 326.75C288.98 327.01 288.93 327.29 288.88 327.58C288.83 327.87 288.74 328.36 288.66 328.77C288.58 329.18 288.5 329.69 288.41 330.18C288.35 330.52 288.28 330.87 288.22 331.23C288.03 332.3 287.83 333.44 287.6 334.66C287.595 334.69 287.595 334.72 287.6 334.75C287.36 336.11 287.1 337.57 286.82 339.1C286.75 339.5 286.67 339.9 286.59 340.3C286.51 340.7 286.43 341.14 286.36 341.56C286.36 341.82 286.27 342.09 286.21 342.36C285.83 344.487 285.42 346.74 284.98 349.12C284.83 349.92 284.69 350.73 284.54 351.55C284.25 353.15 283.95 354.79 283.64 356.48C283.56 356.87 283.49 357.26 283.43 357.66C282.977 360.107 282.513 362.653 282.04 365.3C281.98 365.57 281.94 365.84 281.89 366.11C281.66 367.35 281.43 368.6 281.21 369.88C281.18 369.978 281.16 370.078 281.15 370.18L280.82 372C280.38 374.44 279.927 376.937 279.46 379.49C279.34 380.12 279.22 380.76 279.11 381.41C278.88 382.7 278.64 384 278.4 385.31C278.1 386.94 277.8 388.58 277.5 390.25C277.2 391.92 276.9 393.59 276.59 395.25C276.43 396.1 276.28 396.95 276.12 397.8C275.94 398.8 275.75 399.8 275.57 400.87H189.14C199.8 356.58 208.79 320.87 208.79 320.87L290 321Z" fill="#263238"/>
<path d="M276.94 331C272.613 354.333 268.24 377.667 263.82 401H262.62C267.21 377.61 271.94 354.26 276.62 330.9C276.69 330.68 277 330.77 276.94 331Z" fill="#263238"/>
<path d="M290 321C290 321 290 321.05 290 321.14C290 321.23 290 321.2 290 321.24C290 321.28 290 321.4 289.95 321.51V321.69C289.918 321.818 289.895 321.949 289.88 322.08C289.88 322.17 289.88 322.26 289.83 322.36C289.78 322.46 289.75 322.78 289.71 323.02C289.67 323.26 289.56 323.83 289.48 324.31C289.34 325.02 289.2 325.83 289.03 326.75C288.98 327.01 288.93 327.29 288.88 327.58C288.83 327.87 288.74 328.36 288.66 328.77C288.58 329.18 288.5 329.69 288.41 330.18C288.35 330.52 288.28 330.87 288.22 331.23C288.02 332.3 287.82 333.44 287.6 334.66C287.595 334.69 287.595 334.72 287.6 334.75C287.35 336.11 287.09 337.55 286.81 339.08C286.73 339.48 286.66 339.89 286.59 340.3C286.52 340.71 286.43 341.14 286.36 341.56C286.3 341.82 286.26 342.09 286.21 342.36C285.82 344.48 285.41 346.74 284.98 349.12C284.83 349.92 284.69 350.73 284.54 351.55C284.24 353.15 283.94 354.79 283.64 356.48C283.56 356.87 283.49 357.26 283.43 357.66C282.97 360.12 282.507 362.667 282.04 365.3C281.98 365.57 281.94 365.84 281.89 366.11C281.66 367.35 281.43 368.6 281.21 369.88C281.18 369.978 281.16 370.078 281.15 370.18L280.82 372C280.367 374.44 279.913 376.937 279.46 379.49C279.34 380.12 279.22 380.76 279.11 381.41C278.87 382.7 278.64 384 278.4 385.31C278.1 386.94 277.8 388.58 277.5 390.25C277.2 391.92 276.89 393.59 276.59 395.25C276.43 396.1 276.28 396.95 276.12 397.8C275.94 398.8 275.75 399.8 275.56 400.87H232.18L228.71 365.35L228.59 364.09L228.45 362.73L227.77 355.78L227.18 349.78L224.36 321H290Z" fill="#455A64"/>
<path d="M339.1 401H245.89C245.73 392.42 245.56 384.12 245.35 376.29C245.35 376.1 245.35 375.91 245.35 375.72C245.35 375.72 234.47 369.28 228.61 364.23C227.614 363.411 226.697 362.5 225.87 361.51C222.12 356.73 218.36 338.35 210.58 321.06H324.58C343.1 357 341.8 385.88 339.1 401Z" fill="#263238"/>
<path d="M223.16 360.24C228.7 362.51 233.69 366 238.61 369.37C243.73 372.86 248.42 376.9 253.34 380.65C253.53 380.8 253.34 381.11 253.14 380.97C247.95 377.66 242.52 374.75 237.39 371.34C232.39 368.03 227.23 364.81 222.91 360.64C222.74 360.48 222.93 360.14 223.16 360.24Z" fill="#455A64"/>
<path d="M222.46 328.17C223.12 331.72 223.98 335.24 224.75 338.77C225.46 342.08 225.99 345.45 226.87 348.77C227.584 351.938 229.195 354.833 231.51 357.11C232.81 358.32 234.24 359.39 235.62 360.49C236.37 361.09 237.17 361.66 237.95 362.27C237.85 361.8 237.77 361.27 237.68 360.84L236.99 356.84C236.49 353.84 235.99 350.84 235.55 347.84C234.65 341.95 233.83 336 232.55 330.17C232.546 330.126 232.558 330.082 232.583 330.045C232.608 330.009 232.646 329.982 232.688 329.97C232.731 329.958 232.777 329.962 232.817 329.98C232.858 329.998 232.891 330.03 232.91 330.07C234.38 335.85 236 341.57 237.28 347.4C237.91 350.25 240.14 364.4 240.28 365.4C240.42 366.4 240.47 367.47 240.51 368.5C240.645 369.552 240.645 370.618 240.51 371.67C240.49 371.717 240.457 371.758 240.414 371.786C240.371 371.815 240.321 371.83 240.27 371.83C240.219 371.83 240.168 371.815 240.126 371.786C240.083 371.758 240.05 371.717 240.03 371.67C239.603 370.693 239.303 369.664 239.14 368.61C238.88 367.61 238.65 366.61 238.47 365.55C238.4 365.19 238.35 364.81 238.3 364.43C236.91 363.58 235.62 362.43 234.3 361.53C232.98 360.63 231.47 359.53 230.15 358.41C227.698 356.344 225.93 353.582 225.08 350.49C224.227 347.166 223.671 343.773 223.42 340.35C222.97 336.35 222.64 332.35 222.08 328.35C222.06 328 222.41 327.93 222.46 328.17Z" fill="#455A64"/>
<path d="M317.31 352.89C315.82 352.12 310.06 353.49 299.56 351.7C297.506 351.434 295.557 350.642 293.9 349.4C291.17 347.17 289.1 343.58 287.44 340.51C285.468 337.052 283.949 333.355 282.92 329.51C282.87 329.27 282.54 329.39 282.58 329.61C282.97 331.78 283.18 333.95 283.76 336.1C284.328 338.117 285.053 340.086 285.93 341.99C287.51 345.55 289.36 349.37 292.56 351.78C295.91 354.3 300.56 354.78 304.64 355.06C306.98 355.22 316.19 354.97 317.43 353.66C317.477 353.603 317.511 353.537 317.531 353.466C317.551 353.395 317.555 353.321 317.544 353.248C317.532 353.175 317.505 353.105 317.465 353.044C317.425 352.982 317.372 352.93 317.31 352.89Z" fill="#455A64"/>
<path d="M230.56 192.76C220.96 206.95 154.28 292.41 144.63 294.16C120.04 298.59 97.52 290.16 106.81 268.98C117.63 244.32 177.81 195.43 217.91 173.78C246.63 158.27 240 178.75 230.56 192.76Z" fill="#DD6A57"/>
<path d="M198 239.88L145.7 215.88C145.7 215.88 194.09 182.24 216.7 172C240.32 161.33 249.87 167.57 229.7 195.33C209.91 222.65 198 239.88 198 239.88Z" fill="#455A64"/>
<path d="M173.55 197.26C173.44 197.324 173.333 197.395 173.23 197.47L213.92 217.33L214.12 217.05L173.55 197.26ZM162.3 204.65C162.193 204.711 162.089 204.778 161.99 204.85L207.14 226.85L207.33 226.58L162.3 204.65ZM151.21 212.11L150.9 212.32L200.41 236.48C200.46 236.39 200.53 236.3 200.59 236.21L151.21 212.11Z" fill="white"/>
<path d="M198.65 229.26C197.449 228.575 196.214 227.951 194.95 227.39L191.14 225.52C188.57 224.26 185.98 223.04 183.37 221.84C178.18 219.43 172.99 217 167.76 214.69C166.32 214.05 164.87 213.41 163.42 212.82C161.97 212.23 160.31 211.66 158.78 211.03C158.69 211.03 158.64 211.13 158.73 211.18C160 211.81 161.22 212.55 162.48 213.18C163.74 213.81 165.09 214.47 166.4 215.1C168.993 216.32 171.593 217.527 174.2 218.72C179.33 221.05 184.46 223.4 189.64 225.62C191.09 226.25 192.54 226.85 193.99 227.47C195.44 228.09 196.99 228.87 198.58 229.37C198.66 229.42 198.73 229.3 198.65 229.26Z" fill="#263238"/>
<path d="M229.78 195.3C209.91 222.65 198 239.88 198 239.88L181.28 232.19L238.6 168.19C243 171.2 240.92 180 229.78 195.3Z" fill="#263238"/>
<path d="M200.22 340.16H335.12C335.12 340.16 314.51 211.44 264.78 167.42C258.64 161.98 244.78 163.22 235.78 167.71C232.55 169.32 220.96 185.53 217.65 200.87C214.34 216.21 199.85 339.7 200.22 340.16Z" fill="#455A64"/>
<path d="M322.86 285.2L263 166.15C263.636 166.51 264.233 166.935 264.78 167.42C293 192.4 311.84 244.66 322.86 285.2Z" fill="#263238"/>
<path d="M259 164.55H245.28C245.92 164.43 246.55 164.32 247.19 164.22H257.38C257.92 164.31 258.44 164.42 259 164.55ZM273.1 175.79H228.82C228.75 175.9 228.68 176.01 228.6 176.12H273.33L273.1 175.79ZM282 187.36H222.31L222.16 187.69H282.22L282 187.36ZM289.28 198.93H218.07C218.07 199.04 218.01 199.15 217.98 199.26H289.48L289.28 198.93ZM295.52 210.5H216C216 210.61 216 210.72 215.95 210.83H295.69C295.63 210.72 295.57 210.61 295.52 210.5ZM301 222.07H214.38C214.38 222.18 214.38 222.29 214.38 222.4H301.17C301.09 222.29 301 222.18 301 222.07ZM305.89 233.65H212.89C212.89 233.76 212.89 233.87 212.89 233.97H306C306 233.86 305.92 233.75 305.88 233.65H305.89ZM310.3 245.22H211.36C211.36 245.33 211.36 245.43 211.36 245.54H310.4C310.37 245.43 310.33 245.33 310.29 245.22H310.3ZM314.3 256.79H209.91C209.91 256.9 209.91 257.01 209.91 257.12H314.42C314.39 257 314.36 256.9 314.32 256.79H314.3ZM318 268.36H208.48C208.48 268.47 208.48 268.58 208.48 268.69H318.11C318.08 268.58 318 268.47 318 268.36ZM321.4 279.93H207.08C207.08 280.04 207.08 280.15 207.08 280.26H321.5L321.4 279.93ZM324.54 291.5H205.69C205.69 291.61 205.69 291.72 205.69 291.83H324.69C324.6 291.72 324.57 291.61 324.55 291.5H324.54ZM327.43 303.07H204.32C204.32 303.18 204.32 303.29 204.32 303.4H327.52C327.49 303.29 327.47 303.18 327.44 303.07H327.43ZM330.09 314.64H203C203 314.75 203 314.86 203 314.97H330.17C330.15 314.86 330.13 314.75 330.1 314.64H330.09ZM332.53 326.21H201.65C201.65 326.32 201.65 326.43 201.65 326.54H332.65L332.53 326.21ZM334.71 337.78H200.4V338.11H334.8C334.76 338 334.74 337.89 334.72 337.78H334.71Z" fill="white"/>
<path d="M288.18 170.66C322.18 183.23 405.9 216.59 410.18 236.11C413.3 250.46 349.42 259.38 347.6 257.06C346.17 255.22 286.85 209.01 265.94 184.14C247.76 162.54 277.31 166.64 288.18 170.66Z" fill="#DD6A57"/>
<path d="M313.87 229.48L358.66 198.48C358.66 198.48 305.14 173.8 281.04 167.68C255.92 161.3 247.61 169.1 272.32 192.91C296.66 216.33 313.87 229.48 313.87 229.48Z" fill="#455A64"/>
<path d="M325.55 183.94L290.83 210.06C290.92 210.13 290.99 210.21 291.08 210.27L325.91 184.08L325.55 183.94ZM337.83 189.18L299.73 217.84L299.98 218.06L338.19 189.33C338.07 189.28 338 189.22 337.83 189.18ZM350 194.51L308.86 225.51C308.942 225.585 309.029 225.655 309.12 225.72L350.34 194.72C350.221 194.659 350.108 194.589 350 194.51Z" fill="white"/>
<path d="M346.3 196.35C345.1 197.01 343.97 197.84 342.83 198.61C341.69 199.38 340.49 200.19 339.31 200.97C336.93 202.56 334.57 204.2 332.22 205.84C327.54 209.13 322.83 212.4 318.22 215.77C316.95 216.69 315.68 217.62 314.43 218.58C313.18 219.54 311.87 220.69 310.56 221.7C310.48 221.76 310.56 221.87 310.66 221.82C311.84 221.04 313.1 220.36 314.29 219.58C315.48 218.8 316.72 217.98 317.92 217.15C320.28 215.53 322.62 213.89 324.92 212.23C329.51 208.96 334.12 205.7 338.64 202.33L342.42 199.5C343.74 198.5 345.14 197.58 346.37 196.5C346.45 196.42 346.39 196.3 346.3 196.35Z" fill="#263238"/>
<path d="M309.73 225.93C308.47 224.87 307.3 223.71 306.08 222.61C304.86 221.51 303.6 220.42 302.37 219.32C299.96 217.18 297.52 215.07 295.1 212.93C290.21 208.59 285.32 204.24 280.48 199.85C277.73 197.35 275.03 194.78 272.19 192.38L272.13 192.44C274.36 194.85 276.76 197.12 279.13 199.38C278.63 199.07 278.13 198.75 277.65 198.38C277.17 198.01 276.59 197.62 276.08 197.21C275.57 196.8 275.08 196.34 274.5 195.96C274.41 195.9 274.33 196.02 274.39 196.09C275.289 197.152 276.348 198.066 277.53 198.8C278.11 199.19 278.72 199.54 279.33 199.87L280 200.18C282.12 202.18 284.253 204.18 286.4 206.18C291.2 210.607 296.097 214.94 301.09 219.18C302.47 220.34 303.86 221.48 305.26 222.62C306.66 223.76 308.2 224.86 309.63 226.03C309.7 226.11 309.8 226 309.73 225.93Z" fill="#263238"/>
<path d="M240.07 192.42C248 193.42 260.07 180.23 264.29 170.1C264.58 169.4 262.85 162.58 261.13 154.19C260.13 149.1 259.13 143.4 258.55 138.14C258.44 137.06 226.37 149.62 226.37 149.62C226.37 149.62 230.77 160.31 231.68 169.49C231.745 170.219 231.745 170.952 231.68 171.68C231.68 171.78 231.68 171.9 231.68 172.04C231.43 176.21 232.41 191.43 240.07 192.42Z" fill="#DD6A57"/>
<path d="M235.08 171.86C233.95 172.015 232.81 172.075 231.67 172.04C231.67 171.9 231.67 171.78 231.67 171.67C231.745 170.945 231.745 170.215 231.67 169.49C230.77 160.32 226.38 149.62 226.38 149.62C226.38 149.62 252.38 139.42 257.64 138.19C257.26 144.38 254.5 169.39 235.08 171.86Z" fill="#263238"/>
<path d="M255 97.3299C261.65 107.68 264.88 142.1 258.88 151.66C250.18 165.53 231.34 171.93 218.4 160.42C205.85 149.27 202.4 104.34 209.56 95.1799C220 81.6799 245.16 81.9999 255 97.3299Z" fill="#DD6A57"/>
<path d="M233.63 127.38C233.63 127.29 233.83 127.48 233.83 127.57C233.99 129.9 234.56 132.57 236.73 133.09C236.8 133.09 236.8 133.23 236.73 133.22C234.13 133.12 233.41 129.61 233.63 127.38Z" fill="#263238"/>
<path d="M235.46 124.76C239.16 124.11 240.19 131.55 236.77 132.16C233.35 132.77 232.36 125.31 235.46 124.76Z" fill="#263238"/>
<path d="M219.45 129C219.45 128.92 219.28 129.14 219.3 129.23C219.69 131.53 219.75 134.23 217.77 135.28C217.71 135.28 217.77 135.43 217.77 135.4C220.31 134.72 220.19 131.15 219.45 129Z" fill="#263238"/>
<path d="M217.05 126.91C213.31 127.14 214.05 134.62 217.52 134.41C220.99 134.2 220.2 126.72 217.05 126.91Z" fill="#263238"/>
<path d="M237.93 121C236.92 120.844 235.919 120.637 234.93 120.38C233.824 120.316 232.77 119.891 231.93 119.17C231.716 118.892 231.6 118.551 231.6 118.2C231.6 117.849 231.716 117.508 231.93 117.23C232.93 116.08 234.4 116.04 235.81 116.23C237.232 116.422 238.533 117.135 239.46 118.23C239.678 118.493 239.811 118.815 239.843 119.155C239.875 119.495 239.804 119.837 239.639 120.136C239.474 120.435 239.222 120.677 238.918 120.831C238.613 120.986 238.269 121.044 237.93 121Z" fill="#263238"/>
<path d="M213.66 123.56C214.631 123.219 215.582 122.825 216.51 122.38C217.571 122.106 218.513 121.491 219.19 120.63C219.35 120.317 219.401 119.959 219.336 119.614C219.271 119.268 219.093 118.954 218.83 118.72C217.65 117.78 216.18 118.02 214.83 118.53C213.468 118.991 212.327 119.943 211.63 121.2C211.487 121.498 211.435 121.83 211.478 122.158C211.521 122.485 211.659 122.792 211.874 123.043C212.09 123.293 212.373 123.475 212.69 123.567C213.007 123.659 213.344 123.656 213.66 123.56Z" fill="#263238"/>
<path d="M238.45 147.76C237.98 148.38 237.53 149.2 236.7 149.38C235.84 149.484 234.968 149.405 234.14 149.15C234.123 149.146 234.106 149.147 234.09 149.154C234.075 149.16 234.061 149.171 234.052 149.186C234.043 149.2 234.039 149.217 234.041 149.234C234.042 149.251 234.049 149.267 234.06 149.28C234.453 149.687 234.948 149.981 235.493 150.13C236.039 150.28 236.615 150.28 237.16 150.13C237.614 149.941 238.001 149.621 238.273 149.212C238.545 148.803 238.69 148.322 238.69 147.83C238.71 147.7 238.52 147.67 238.45 147.76Z" fill="#263238"/>
<path d="M235.07 141.19C234.612 142.183 233.954 143.071 233.137 143.797C232.319 144.524 231.36 145.073 230.32 145.41C229.414 145.719 228.467 145.894 227.51 145.93C227.327 145.945 227.143 145.945 226.96 145.93H226.45C226.324 145.923 226.203 145.875 226.106 145.794C226.008 145.713 225.94 145.603 225.91 145.48C225.9 145.4 225.9 145.32 225.91 145.24V145.04C225.62 143.27 225.42 140.55 225.42 140.55C224.81 140.96 221.71 142.91 221.64 141.97C221.03 134.23 220.36 125.62 221.39 117.79C221.401 117.741 221.428 117.697 221.467 117.665C221.506 117.634 221.555 117.617 221.605 117.617C221.655 117.617 221.704 117.634 221.743 117.665C221.782 117.697 221.809 117.741 221.82 117.79C222.69 125.21 222.26 132.73 223.02 140.19C224.122 139.485 225.317 138.936 226.57 138.56C226.84 138.56 226.87 143.83 227.06 144.61C227.058 144.637 227.058 144.663 227.06 144.69C230.06 144.69 232.22 143.45 234.84 141.05C235 140.86 235.19 141 235.07 141.19Z" fill="#263238"/>
<path d="M228.43 144.89C229.582 146.019 231.004 146.835 232.56 147.26C233.415 147.466 234.314 147.4 235.13 147.07C236.91 146.33 236.72 144.63 236.18 143.23C235.886 142.488 235.507 141.784 235.05 141.13C233.3 143.057 230.981 144.374 228.43 144.89Z" fill="#263238"/>
<path d="M232.56 147.26C233.415 147.466 234.314 147.4 235.13 147.07C236.91 146.33 236.72 144.63 236.18 143.23C234.23 143.71 232.47 145.32 232.56 147.26Z" fill="#FF98B9"/>
<path d="M260.06 123.52C254 125.07 249.91 110.36 249.91 110.36C249.91 110.36 240.32 111.65 231.91 100.63C231.91 100.63 222.6 111.7 212.24 113.07C196 115.2 190 95.1501 194.44 89.2501C200.73 80.8801 217.91 84.6101 217.91 84.6101C217.91 84.6101 237.91 71.4601 249.16 84.1901C249.16 84.1901 259.08 81.4801 263.22 92.0601C267.36 102.64 264.58 122.36 260.06 123.52Z" fill="#263238"/>
<path d="M252.59 111.39C247.938 112.046 243.2 111.138 239.12 108.81C234.95 106.29 231.47 101.49 231.32 96.5101C231.32 96.2401 230.87 96.2801 230.9 96.5101C231.44 101.93 233.41 107.04 238.01 110.28C240.112 111.796 242.575 112.734 245.152 113C247.73 113.267 250.332 112.853 252.7 111.8C252.732 111.77 252.755 111.732 252.767 111.691C252.78 111.649 252.78 111.604 252.769 111.562C252.757 111.52 252.735 111.481 252.703 111.451C252.672 111.421 252.633 111.4 252.59 111.39Z" fill="#263238"/>
<path d="M262 85.48C257.75 82.62 252.95 83.48 248.44 85.13C248.19 85.22 248.35 85.64 248.59 85.52C252.91 83.52 258.39 85.11 261.91 88.04C265.43 90.97 266.29 95.6 266.64 99.87C267.354 108.113 264.988 116.329 260 122.93C259.92 123.03 260.08 123.16 260.16 123.06C263.085 119.572 265.268 115.524 266.575 111.164C267.882 106.803 268.285 102.222 267.76 97.7C267.19 93.27 265.88 88.12 262 85.48Z" fill="#263238"/>
<path d="M218.74 85.14C215.821 82.6464 212.088 81.3119 208.25 81.39C203.624 81.605 199.24 83.5209 195.94 86.77C194.646 88.1149 193.731 89.7771 193.285 91.589C192.839 93.4009 192.878 95.2983 193.4 97.09C194.46 101.33 197.66 104.61 201.05 107.09C201.059 107.099 201.07 107.107 201.082 107.112C201.094 107.116 201.107 107.119 201.119 107.118C201.132 107.117 201.145 107.114 201.157 107.108C201.168 107.102 201.178 107.094 201.186 107.084C201.194 107.074 201.2 107.062 201.203 107.049C201.206 107.037 201.206 107.024 201.204 107.011C201.201 106.998 201.196 106.986 201.188 106.976C201.181 106.965 201.171 106.956 201.16 106.95C198.28 104.48 195.7 101.46 194.73 97.67C194.212 95.9058 194.203 94.0312 194.703 92.262C195.204 90.4928 196.194 88.901 197.56 87.67C202.95 82.85 212.31 80.36 218.48 85.43C218.519 85.4442 218.562 85.4464 218.603 85.4362C218.643 85.426 218.68 85.4039 218.708 85.3727C218.736 85.3415 218.754 85.3027 218.759 85.2612C218.765 85.2198 218.758 85.1775 218.74 85.14Z" fill="#263238"/>
<path d="M255.73 127.12C255.73 127.12 260.4 114.54 265.92 115.94C271.44 117.34 269.86 134.22 264.74 137.8C264.113 138.299 263.392 138.667 262.62 138.883C261.847 139.099 261.04 139.157 260.245 139.056C259.45 138.954 258.683 138.694 257.99 138.291C257.297 137.889 256.692 137.351 256.21 136.71L255.73 127.12Z" fill="#DD6A57"/>
<path d="M265.35 120.77C265.368 120.766 265.387 120.767 265.403 120.775C265.42 120.782 265.433 120.795 265.442 120.812C265.45 120.828 265.452 120.847 265.448 120.865C265.444 120.883 265.434 120.899 265.42 120.91C261.86 123.56 260.73 127.79 260.26 131.99C261.06 130.21 262.46 128.99 264.79 129.88C264.813 129.894 264.831 129.915 264.842 129.939C264.853 129.964 264.855 129.992 264.85 130.018C264.844 130.044 264.831 130.068 264.811 130.086C264.791 130.105 264.767 130.117 264.74 130.12C263.984 130.08 263.234 130.275 262.593 130.678C261.952 131.081 261.452 131.672 261.16 132.37C260.68 133.546 260.328 134.769 260.11 136.02C260.02 136.42 259.33 136.4 259.35 135.95C259.355 135.917 259.355 135.883 259.35 135.85C257.94 130.81 260 122.69 265.35 120.77Z" fill="#263238"/>
<path d="M394.37 319.31C384.86 352.49 357.65 379.45 352.08 382.98C347.34 385.98 344.87 387.52 344.87 387.52C336.47 393.12 330.69 391.6 330.69 391.6C330.69 391.6 322.88 400.93 316.46 397.14C309.25 392.93 321.62 380.66 324.3 369.75C330.43 344.75 332.16 307.52 333.21 300.13L394.37 319.31Z" fill="#DD6A57"/>
<path d="M349.13 348.07C347.18 355.39 345.45 362.63 342.52 369.65C339.3 377.35 334.92 384.22 330.63 391.32C330.609 391.363 330.605 391.411 330.616 391.456C330.628 391.502 330.655 391.542 330.693 391.57C330.731 391.597 330.778 391.61 330.825 391.607C330.872 391.603 330.916 391.583 330.95 391.55C340.76 379.92 347.9 363.28 349.77 348.22C349.82 347.85 349.23 347.71 349.13 348.07Z" fill="#263238"/>
<path d="M364.75 349.58C362.46 356.58 358.35 368.9 344.67 387.38C344.62 387.44 344.67 387.53 344.77 387.47C355.022 377.089 362.183 364.06 365.45 349.84C365.56 349.39 364.91 349.12 364.75 349.58Z" fill="#263238"/>
<path d="M329.78 339.17C329.29 335.6 327.41 335.83 324.17 341.36C320.93 346.89 312.81 371.52 304.46 367.96C296.11 364.4 308.07 329.81 314.17 321.02C320.27 312.23 333.17 300.13 333.17 300.13C332.23 307.33 331.52 325 329.78 339.17Z" fill="#DD6A57"/>
<path d="M410.16 236.11C416.83 257.06 399.23 303.78 394.37 319.31C392.25 326.08 330.43 308 332.74 300.77C337.48 285.98 349.74 259.06 347.58 257.06C345.87 255.47 404.09 217.08 410.16 236.11Z" fill="#DD6A57"/>
<path d="M364.52 244.46C363.7 244.78 362.88 245.03 362.08 245.46C361.28 245.89 360.43 246.23 359.64 246.66C358.108 247.519 356.65 248.502 355.28 249.6C353.897 250.672 352.588 251.834 351.36 253.08C350.72 253.72 350.1 254.38 349.51 255.08C348.911 255.722 348.388 256.43 347.95 257.19C347.928 257.226 347.916 257.268 347.916 257.31C347.916 257.352 347.928 257.394 347.95 257.43C347.95 257.43 347.95 257.5 348.01 257.51C348.27 257.62 348.42 257.4 348.61 257.24L349.55 256.37C350.21 255.76 350.85 255.11 351.55 254.49C352.88 253.26 354.28 252.08 355.72 250.97C357.16 249.86 358.64 248.81 360.14 247.8C360.89 247.29 361.63 246.8 362.39 246.27C363.15 245.74 363.9 245.27 364.68 244.82C364.83 244.68 364.71 244.38 364.52 244.46Z" fill="#263238"/>
<path d="M141 234.17C131 241.17 100.55 268.44 106.69 283.34C112.83 298.24 136.27 297.88 169.05 291.95L141 234.17Z" fill="#DD6A57"/>
<path d="M140.12 234.82C153.55 223.63 173.06 210.04 181.05 210.47C189.43 210.92 218.82 213.7 225.44 216.54C232.06 219.38 251.1 237.91 253.05 244.05C254.61 248.97 244.95 253.61 232.69 245.72C221.22 238.34 218.84 236.01 215.1 234.72C211.36 233.43 196.62 236.26 194.84 241.82C193.79 245.1 198.04 253.95 203.95 255.82C209.86 257.69 215.95 254.18 224.28 254.63C232.61 255.08 240.61 263.3 239 266C237.39 268.7 233.66 267.25 222.29 271.05C214.98 273.5 206.29 277.9 193.92 285.18C181.25 292.63 162.92 292.5 162.92 292.5L140.12 234.82Z" fill="#DD6A57"/>
<path d="M233.2 247.12C253.2 253.38 243.97 283.03 223.92 276.76C203.87 270.49 213.16 240.84 233.2 247.12Z" fill="#FFC727"/>
<path opacity="0.1" d="M233.2 247.12C253.2 253.38 243.97 283.03 223.92 276.76C203.87 270.49 213.16 240.84 233.2 247.12Z" fill="black"/>
<path d="M231.32 246.53C250.39 252.53 241.15 282.15 222.04 276.17C202.93 270.19 212.22 240.55 231.32 246.53Z" fill="#FFC727"/>
<path opacity="0.1" d="M214.21 260.5C213.64 265.91 216.12 271.55 222.83 273.65C238.69 278.65 246.36 254 230.53 249.05L230.22 248.96C245.02 253.96 237.66 277.19 222.54 272.46C219.968 271.761 217.725 270.18 216.202 267.994C214.679 265.807 213.974 263.154 214.21 260.5Z" fill="black"/>
<g opacity="0.1">
<path opacity="0.1" d="M229.56 252.12C229.687 252.171 229.789 252.27 229.845 252.395C229.901 252.519 229.906 252.661 229.86 252.79L229.55 253.6C230.803 254.219 231.846 255.192 232.55 256.4C232.613 256.481 232.654 256.576 232.672 256.678C232.689 256.779 232.682 256.882 232.65 256.98C232.593 257.114 232.485 257.22 232.351 257.276C232.216 257.332 232.065 257.333 231.93 257.28C231.794 257.231 231.682 257.13 231.62 257C231.043 255.944 230.171 255.078 229.11 254.51L226.91 260.16C229.73 261.99 230.57 263.64 229.8 265.61C228.98 267.75 226.59 268.61 224.04 267.67L223.43 269.24C223.405 269.306 223.367 269.366 223.319 269.417C223.271 269.468 223.213 269.509 223.149 269.538C223.085 269.567 223.016 269.583 222.946 269.585C222.876 269.587 222.806 269.575 222.74 269.55C222.674 269.525 222.614 269.487 222.563 269.439C222.512 269.391 222.471 269.333 222.442 269.269C222.413 269.205 222.397 269.136 222.395 269.066C222.393 268.996 222.405 268.926 222.43 268.86L223.04 267.27C221.406 266.486 220.08 265.181 219.27 263.56C219.219 263.486 219.187 263.401 219.177 263.312C219.166 263.224 219.178 263.133 219.21 263.05C219.267 262.921 219.371 262.817 219.5 262.76C219.63 262.703 219.776 262.696 219.91 262.74C220.045 262.792 220.155 262.891 220.22 263.02C220.879 264.474 222.015 265.66 223.44 266.38L225.67 260.64C222.9 258.8 222.08 257.2 222.86 255.19C223.64 253.18 226.03 252.29 228.51 253.19L228.81 252.43C228.833 252.356 228.873 252.289 228.925 252.232C228.977 252.175 229.041 252.13 229.113 252.1C229.184 252.071 229.261 252.057 229.339 252.061C229.416 252.064 229.491 252.084 229.56 252.12ZM226.15 259.61L228.28 254.11C226.28 253.39 224.57 254.06 224 255.51C223.43 256.96 223.79 258 226.15 259.61ZM226.56 261.18L224.4 266.75C226.4 267.49 228.19 266.83 228.79 265.3C229.39 263.77 229 262.78 226.56 261.18Z" fill="black"/>
</g>
<path d="M181.05 210.47C190.93 207.79 211.84 205.75 225.76 211.19C235.17 214.87 248.52 248.4 243.64 252.35C238.76 256.3 234.64 252.58 229.24 246.35C227.24 244.08 219.4 229.23 215.18 229.87C209.1 230.78 194.49 239.52 194.49 239.52L181.05 210.47Z" fill="#DD6A57"/>
<path d="M244.68 250C246.18 242.39 242.05 233.84 237.46 225.86C237.38 225.74 237.19 225.86 237.26 225.96C238.43 227.96 244.56 242.48 244.53 250.01C244.53 250.11 244.66 250.09 244.68 250Z" fill="#263238"/>
<path d="M181.05 210.47C190.93 207.79 211.84 205.75 225.76 211.19C235.17 214.87 240.53 247.1 235.65 251.05C230.77 255 224.56 250 220.11 241.81C218.67 239.16 216.11 227.81 211.92 228.41C205.84 229.33 190.92 231.72 190.92 231.72L181.05 210.47Z" fill="#DD6A57"/>
<path d="M199.85 230C201.42 229.59 201.97 229.44 203.55 229.05C205.13 228.66 206.7 228.31 208.3 228.05C209.679 227.708 211.106 227.603 212.52 227.74C213.844 228.04 215.034 228.763 215.91 229.8C217.98 232.06 218.71 235.35 219.62 238.19C220.62 241.37 223.27 247.39 226.99 250.13C227.972 250.926 229.11 251.509 230.33 251.84C231.224 252.131 232.176 252.192 233.1 252.02C236.85 250.86 237.6 246.34 237.56 242.61C237.48 235.61 235.26 228.61 232.72 222.22C232.1 220.65 231.44 219.09 230.78 217.53C230.141 215.695 229.118 214.018 227.78 212.61C225.43 210.44 219.39 209.32 217.52 208.95C217.38 208.95 217.45 208.71 217.59 208.74C219.86 209.15 226.13 209.48 229.77 213.14C231.09 214.48 231.77 216.38 232.51 218.08C233.25 219.78 234.07 221.67 234.77 223.5C236.171 227.036 237.291 230.678 238.12 234.39C238.87 237.91 239.53 241.82 238.94 245.39C238.43 248.5 236.28 251.63 233.17 252.55C230.56 253.34 227.96 251.73 226.82 250.94C225.701 250.154 224.692 249.223 223.82 248.17C222.024 245.667 220.413 243.037 219 240.3C217.68 237.6 217.09 234.52 215.55 231.94C215.206 231.312 214.741 230.758 214.182 230.312C213.622 229.865 212.979 229.535 212.29 229.34C210.891 229.13 209.469 229.13 208.07 229.34C205.376 229.447 202.699 229.802 200.07 230.4C199.38 230.57 199.19 230.14 199.85 230Z" fill="#263238"/>
<path d="M173.44 212.4C176.08 210.84 191.14 201.4 197.06 199.74C202.98 198.08 226.12 194.87 230.75 200.14C236.57 206.77 219.19 212.3 211.41 214.01C203.63 215.72 196.77 224.43 196.77 224.43L173.44 212.4Z" fill="#DD6A57"/>
<path d="M223.41 210.35C220.801 210.826 218.218 211.434 215.67 212.17C213.207 212.698 210.787 213.41 208.43 214.3C206.176 215.351 204.109 216.763 202.31 218.48C201.4 219.31 200.56 220.18 199.73 221.08C198.9 221.98 198 223.14 197.08 224.08C196.98 224.18 197.08 224.35 197.23 224.24C198.994 222.546 200.865 220.966 202.83 219.51C204.827 217.959 207.006 216.659 209.32 215.64C213.93 213.64 218.9 212.64 223.52 210.64C223.71 210.59 223.59 210.32 223.41 210.35Z" fill="#263238"/>
<path d="M234.46 251.46C236.24 252.46 238.25 253.46 240.36 253.37C241.261 253.345 242.135 253.052 242.87 252.53C243.254 252.251 243.592 251.914 243.87 251.53C244.202 251.142 244.386 250.65 244.39 250.14C244.39 250 244.58 250.01 244.55 250.14C244.503 250.424 244.476 250.712 244.47 251C244.428 251.24 244.361 251.474 244.27 251.7C244.095 252.147 243.833 252.555 243.5 252.9C242.759 253.658 241.782 254.141 240.73 254.27C238.24 254.61 236.06 253.27 234.35 251.63C234.339 251.623 234.329 251.613 234.322 251.602C234.314 251.591 234.309 251.579 234.306 251.566C234.303 251.553 234.303 251.54 234.305 251.527C234.308 251.514 234.313 251.501 234.32 251.49C234.327 251.479 234.337 251.469 234.347 251.462C234.358 251.454 234.371 251.449 234.384 251.446C234.397 251.443 234.41 251.443 234.423 251.445C234.436 251.448 234.449 251.453 234.46 251.46Z" fill="#263238"/>
<path d="M194.36 227.53C192.186 230.667 190.215 233.941 188.46 237.33C186.783 240.7 185.597 244.293 184.94 248C184.31 252 184.64 256 184.73 260.08C184.814 262.006 184.737 263.936 184.5 265.85C184.256 267.517 183.834 269.153 183.24 270.73C181.804 274.279 179.504 277.414 176.55 279.85C176.44 279.95 176.55 280.13 176.71 280.05C179.504 278.114 181.839 275.588 183.549 272.65C185.26 269.713 186.305 266.435 186.61 263.05C186.97 258.91 186.27 254.76 186.61 250.61C186.96 246.832 187.793 243.115 189.09 239.55C190.512 235.389 192.323 231.371 194.5 227.55C194.501 227.541 194.501 227.531 194.499 227.522C194.496 227.513 194.492 227.505 194.487 227.498C194.481 227.49 194.474 227.484 194.466 227.479C194.458 227.474 194.449 227.471 194.44 227.47C194.421 227.467 194.403 227.472 194.388 227.483C194.373 227.495 194.363 227.511 194.36 227.53Z" fill="#263238"/>
<path d="M157.83 221.28C150.063 226.018 142.665 231.336 135.7 237.19C128.654 242.94 122.28 249.468 116.7 256.65C113.613 260.722 110.914 265.074 108.64 269.65C108.59 269.74 108.72 269.81 108.78 269.72C111.101 265.837 113.677 262.112 116.49 258.57C119.275 255.054 122.249 251.692 125.4 248.5C131.844 242.075 138.76 236.142 146.09 230.75C150.21 227.65 153.99 224.69 158.09 221.58C158.47 221.28 158.27 221 157.83 221.28Z" fill="#263238"/>
<path d="M273.37 412.47C273.3 412.88 273.22 413.29 273.14 413.71C273.21 413.3 273.29 412.88 273.36 412.47H273.37Z" fill="#EBEBEB"/>
<path d="M114.74 301.92C101.23 320.21 87.15 341.44 83.74 364.38C83.74 364.72 84.26 364.84 84.34 364.49C85.8998 358.235 87.9049 352.099 90.34 346.13C99.22 343.68 107.93 341.68 112.6 332.86C117.35 323.8 116.75 311.99 115.85 302.12C115.73 301.59 115 301.56 114.74 301.92Z" fill="#FFC727"/>
<path d="M90.42 346C96.49 332.39 104.28 318.72 114.18 307.52C114.25 307.44 114.35 307.52 114.29 307.63C107.81 315.63 102.88 324.29 98.07 333.12C102.54 328.58 107.44 324.52 111.68 319.7C111.76 319.61 111.9 319.7 111.82 319.84C107.61 324.84 103.02 330.37 97.54 334.11C96.06 336.817 94.5734 339.534 93.08 342.26C93.45 342.05 93.83 341.87 94.21 341.68C94.27 341.68 94.33 341.75 94.27 341.78C93.85 341.99 93.43 342.22 93 342.4C92.29 343.69 91.59 344.97 90.85 346.26C90.69 346.49 90.29 346.24 90.42 346Z" fill="#263238"/>
<path d="M94.94 341.2C98.5719 339.173 102.036 336.859 105.3 334.28C105.39 334.21 105.52 334.33 105.43 334.41C102.26 337.128 98.791 339.477 95.09 341.41C94.92 341.54 94.77 341.3 94.94 341.2Z" fill="#263238"/>
<path d="M82.16 361C82.16 361.28 82.66 361.27 82.65 361C82.72 353.44 82.65 345.85 82.77 338.26C84.71 334.36 88.86 332.2 91.77 329.07C93.8465 326.78 95.6549 324.26 97.16 321.56C100.636 315.11 102.762 308.019 103.41 300.72C104.21 292.64 101.14 265.98 97.73 266.9C95.97 267.38 90.25 280.59 88.73 284.96C86.272 292.162 84.4746 299.573 83.36 307.1C80.58 324.82 80.81 343.08 82.16 361Z" fill="#FFC727"/>
<path d="M82.1 328.38C82.51 318.82 84.67 309.17 86.68 299.9C88.85 289.9 91.39 280.51 96.53 271.6C96.63 271.43 96.87 271.6 96.79 271.75C93.3594 278.677 90.7033 285.961 88.87 293.47C89.22 292.93 89.64 292.42 89.99 291.91C90.13 291.71 90.46 291.91 90.33 292.11C89.8695 292.915 89.3302 293.672 88.72 294.37C88.7089 294.375 88.697 294.377 88.685 294.377C88.673 294.377 88.6611 294.375 88.65 294.37C86.88 301.51 85.65 308.81 84.53 316.1L84.77 315.82C84.782 315.81 84.797 315.804 84.8127 315.804C84.8283 315.803 84.8437 315.808 84.8564 315.817C84.8691 315.826 84.8783 315.839 84.8826 315.855C84.8869 315.87 84.886 315.886 84.88 315.9C84.75 316.14 84.59 316.38 84.45 316.62C83.9 320.32 83.39 324.01 82.88 327.67C89.5 322 95.13 315.41 98.3 307.24C98.3 307.24 98.37 307.24 98.36 307.24C95.25 315.71 90.36 323.24 82.82 328.39L82.4 331.34C82.4 331.54 82.05 331.49 82.05 331.29C82.05 330.42 82.05 329.55 82.13 328.68C82 328.61 82 328.47 82.1 328.38Z" fill="#263238"/>
<path d="M85.2 314.53C90.2 307.02 94.93 299.73 98.62 291.43C98.62 291.34 98.82 291.43 98.78 291.5C95.68 299.75 91.33 308.1 85.46 314.72C85.34 314.86 85.1 314.68 85.2 314.53Z" fill="#263238"/>
<path d="M91.89 289.58C93.97 285.89 96.17 282.3 98.13 278.58C98.19 278.48 98.33 278.58 98.29 278.67C96.6822 282.594 94.643 286.327 92.21 289.8C92.07 290 91.77 289.79 91.89 289.58Z" fill="#263238"/>
<path d="M91.0801 291.18V291.24C91.0801 291.24 91.0001 291.18 91.0801 291.18Z" fill="#263238"/>
<path d="M77.0001 339.12C76.9194 344.125 76.3433 349.109 75.2801 354C75.3601 354.54 75.4301 355.08 75.5101 355.63C77.0583 350.213 77.9547 344.63 78.1801 339C78.2248 338.923 78.2484 338.835 78.2484 338.745C78.2484 338.656 78.2248 338.568 78.1801 338.49C78.4015 330.957 77.8486 323.421 76.5301 316C74.1901 302.11 69.0801 288.79 59.4001 278.38C59.3201 278.312 59.2254 278.262 59.1233 278.235C59.0212 278.209 58.9143 278.206 58.811 278.228C58.7077 278.249 58.6106 278.293 58.5272 278.358C58.4438 278.423 58.3764 278.506 58.3301 278.6C54.4201 288.54 55.7801 300.39 59.1101 310.3C60.9208 315.669 63.5083 320.742 66.7901 325.36C70.1101 330.07 74.3501 334 77.0001 339.12Z" fill="#FFC727"/>
<path d="M60.54 283.07C69.72 298 76.1 315.62 76.88 333.21C76.88 333.53 76.37 333.61 76.33 333.29C76.11 331.71 75.87 330.14 75.62 328.58C71.83 324.94 67.93 321.1 65.21 316.58C65.21 316.5 65.28 316.41 65.34 316.48C68.4939 320.34 71.8696 324.013 75.45 327.48C74.7834 323.587 74 319.757 73.1 315.99C72.85 315.71 72.61 315.42 72.37 315.13C72.13 314.84 72.48 314.68 72.64 314.86C72.8 315.04 72.79 315.03 72.86 315.11C71.5696 309.939 69.97 304.85 68.07 299.87C65.73 297.09 63.12 294.68 61.42 291.32C61.42 291.24 61.49 291.18 61.54 291.25C62.91 293.17 64.23 295.1 65.78 296.88C66.4 297.59 67.08 298.26 67.72 298.95C65.6027 293.554 63.0926 288.32 60.21 283.29C60.1886 283.247 60.1837 283.197 60.1963 283.15C60.2089 283.103 60.2381 283.062 60.2785 283.036C60.3189 283.009 60.3677 282.997 60.4158 283.004C60.4639 283.01 60.5081 283.034 60.54 283.07Z" fill="#263238"/>
<path d="M62.4 301.44C65.4 305.44 68.74 309.24 71.5 313.37C71.58 313.49 71.41 313.61 71.31 313.52C67.77 310.19 64.77 305.65 62.2 301.52C62.12 301.43 62.31 301.33 62.4 301.44Z" fill="#263238"/>
<path d="M71.92 314.29L72.04 314.42C72.1301 314.51 71.9901 314.64 71.9101 314.56L71.78 314.43C71.69 314.34 71.83 314.21 71.92 314.29Z" fill="#263238"/>
<path d="M46.17 311.7C46.9 319.36 50.93 328.52 55.85 334.42C58.0129 336.986 60.6863 339.074 63.7 340.55C67.1 342.23 70.7 344.17 74.18 345.55C75.8524 349.809 77.0952 354.224 77.89 358.73C78.01 358.35 78.12 357.95 78.23 357.56C75.97 338.16 63.42 321.56 47.36 310.94C47.2356 310.856 47.0894 310.811 46.9395 310.809C46.7896 310.807 46.6424 310.849 46.516 310.93C46.3896 311.011 46.2896 311.127 46.2281 311.263C46.1667 311.4 46.1465 311.552 46.17 311.7Z" fill="#FFC727"/>
<path d="M51.71 317.43C51.6 317.33 51.71 317.13 51.88 317.22C60.7018 323.783 67.7364 332.455 72.34 342.44C72.45 342.7 72.09 342.93 71.94 342.67C71.19 341.36 70.43 340.09 69.66 338.84C65.99 338.15 62.52 335.57 59.8 333.12C59.73 333.06 59.8 332.95 59.91 333.02C61.311 334.293 62.8665 335.385 64.54 336.27C66.04 337.03 67.65 337.51 69.2 338.12C67.84 335.96 66.43 333.89 64.95 331.89C60.9974 330.382 57.2904 328.296 53.95 325.7C53.84 325.62 53.95 325.45 54.05 325.52C57.3587 327.524 60.77 329.353 64.27 331C62.0178 328.047 59.5901 325.232 57 322.57C55.75 321.91 54.49 321.25 53.28 320.57C53.18 320.52 53.28 320.35 53.36 320.38C54.3614 320.738 55.3178 321.211 56.21 321.79C54.8 320.29 53.31 318.84 51.71 317.43Z" fill="#263238"/>
<path d="M52.05 324.13C52.27 324.257 52.4776 324.404 52.67 324.57C52.73 324.62 52.67 324.7 52.59 324.67C52.3673 324.568 52.1532 324.447 51.95 324.31C51.84 324.24 51.94 324.06 52.05 324.13Z" fill="#263238"/>
<path d="M103.29 400.74H59.29L62.84 360.67L63.62 351.83H98.96L99.74 360.67L103.29 400.74Z" fill="#455A64"/>
<path d="M99.74 360.67H62.84L63.62 351.83H98.96L99.74 360.67Z" fill="#263238"/>
<path d="M101.07 345.66H61.52V354.41H101.07V345.66Z" fill="#455A64"/>
<path d="M167.48 324.16C167.81 322.46 168.01 320.94 168.18 319.32C168.35 317.7 168.43 316.09 168.42 314.44C168.428 312.743 168.281 311.05 167.98 309.38C167.664 307.445 166.889 305.614 165.72 304.04C164.992 303.15 164.058 302.45 163 302C162.472 301.778 161.917 301.623 161.35 301.54C160.82 301.462 160.284 301.439 159.75 301.47C157.773 301.621 155.89 302.378 154.36 303.64C152.984 304.741 151.816 306.079 150.91 307.59C149.967 309.078 149.325 310.735 149.02 312.47C148.819 313.506 148.902 314.577 149.26 315.57C149.507 316.211 149.943 316.762 150.51 317.15C151.049 317.507 151.674 317.714 152.32 317.75C152.984 317.784 153.644 317.624 154.22 317.29C154.714 316.978 155.134 316.562 155.45 316.07C155.951 315.281 156.291 314.401 156.45 313.48C156.735 311.846 156.735 310.174 156.45 308.54C156.199 306.903 155.602 305.339 154.7 303.95C154.218 303.213 153.566 302.603 152.8 302.17C152.007 301.737 151.09 301.586 150.2 301.74C148.605 302.098 147.162 302.944 146.07 304.16C143.998 306.442 142.346 309.073 141.19 311.93C142.548 309.225 144.369 306.778 146.57 304.7C147.597 303.702 148.913 303.055 150.33 302.85C150.965 302.839 151.589 303.016 152.123 303.36C152.657 303.704 153.077 304.198 153.33 304.78C153.967 306.023 154.339 307.385 154.42 308.78C154.538 310.17 154.42 311.57 154.07 312.92C153.923 313.501 153.665 314.047 153.31 314.53C153.199 314.673 153.055 314.786 152.89 314.86C152.797 314.895 152.693 314.895 152.6 314.86C152.46 314.86 152.3 314.75 152.28 314.7C152.238 314.628 152.208 314.551 152.19 314.47C152.121 314.002 152.155 313.524 152.29 313.07C153.069 310.587 154.67 308.442 156.83 306.99C157.704 306.357 158.751 306.008 159.83 305.99C160.059 306.002 160.287 306.036 160.51 306.09C160.691 306.138 160.866 306.209 161.03 306.3C161.342 306.483 161.603 306.741 161.79 307.05C162.321 308.013 162.631 309.082 162.7 310.18C162.818 311.511 162.818 312.849 162.7 314.18C162.582 315.596 162.392 317.004 162.13 318.4C161.87 319.79 161.54 321.26 161.13 322.53L167.48 324.16Z" fill="#FFC727"/>
<path opacity="0.1" d="M167.48 324.16C167.81 322.46 168.01 320.94 168.18 319.32C168.35 317.7 168.43 316.09 168.42 314.44C168.428 312.743 168.281 311.05 167.98 309.38C167.664 307.445 166.889 305.614 165.72 304.04C164.992 303.15 164.058 302.45 163 302C162.472 301.778 161.917 301.623 161.35 301.54C160.82 301.462 160.284 301.439 159.75 301.47C157.773 301.621 155.89 302.378 154.36 303.64C152.984 304.741 151.816 306.079 150.91 307.59C149.967 309.078 149.325 310.735 149.02 312.47C148.819 313.506 148.902 314.577 149.26 315.57C149.507 316.211 149.943 316.762 150.51 317.15C151.049 317.507 151.674 317.714 152.32 317.75C152.984 317.784 153.644 317.624 154.22 317.29C154.714 316.978 155.134 316.562 155.45 316.07C155.951 315.281 156.291 314.401 156.45 313.48C156.735 311.846 156.735 310.174 156.45 308.54C156.199 306.903 155.602 305.339 154.7 303.95C154.218 303.213 153.566 302.603 152.8 302.17C152.007 301.737 151.09 301.586 150.2 301.74C148.605 302.098 147.162 302.944 146.07 304.16C143.998 306.442 142.346 309.073 141.19 311.93C142.548 309.225 144.369 306.778 146.57 304.7C147.597 303.702 148.913 303.055 150.33 302.85C150.965 302.839 151.589 303.016 152.123 303.36C152.657 303.704 153.077 304.198 153.33 304.78C153.967 306.023 154.339 307.385 154.42 308.78C154.538 310.17 154.42 311.57 154.07 312.92C153.923 313.501 153.665 314.047 153.31 314.53C153.199 314.673 153.055 314.786 152.89 314.86C152.797 314.895 152.693 314.895 152.6 314.86C152.46 314.86 152.3 314.75 152.28 314.7C152.238 314.628 152.208 314.551 152.19 314.47C152.121 314.002 152.155 313.524 152.29 313.07C153.069 310.587 154.67 308.442 156.83 306.99C157.704 306.357 158.751 306.008 159.83 305.99C160.059 306.002 160.287 306.036 160.51 306.09C160.691 306.138 160.866 306.209 161.03 306.3C161.342 306.483 161.603 306.741 161.79 307.05C162.321 308.013 162.631 309.082 162.7 310.18C162.818 311.511 162.818 312.849 162.7 314.18C162.582 315.596 162.392 317.004 162.13 318.4C161.87 319.79 161.54 321.26 161.13 322.53L167.48 324.16Z" fill="black"/>
<path d="M172.55 398.46C176.96 404.69 176.06 423.72 178.73 426.39C181.4 429.06 208.73 428.77 210.61 427.2C212.49 425.63 211.61 418.91 213.61 417.81C214.46 417.37 172.55 398.46 172.55 398.46Z" fill="#FFC727"/>
<path opacity="0.1" d="M172.55 398.46C176.96 404.69 176.06 423.72 178.73 426.39C181.4 429.06 208.73 428.77 210.61 427.2C212.49 425.63 211.61 418.91 213.61 417.81C214.46 417.37 172.55 398.46 172.55 398.46Z" fill="black"/>
<path d="M289.39 398.77C283.88 406.77 286.86 423.77 284.19 426.39C281.52 429.01 254.19 428.77 252.31 427.2C250.43 425.63 251.31 418.55 250.22 417.2C249.65 416.49 289.39 398.77 289.39 398.77Z" fill="#FFC727"/>
<path opacity="0.1" d="M289.39 398.77C283.88 406.77 286.86 423.77 284.19 426.39C281.52 429.01 254.19 428.77 252.31 427.2C250.43 425.63 251.31 418.55 250.22 417.2C249.65 416.49 289.39 398.77 289.39 398.77Z" fill="black"/>
<path opacity="0.3" d="M213.65 417.81C213.33 418.048 213.061 418.348 212.859 418.691C212.656 419.034 212.524 419.415 212.47 419.81C199.843 418.346 187.499 415.041 175.83 410C175.19 405.36 174.28 400.94 172.55 398.49C172.55 398.47 214.46 417.38 213.65 417.81Z" fill="black"/>
<path opacity="0.3" d="M289.39 398.77C287.34 401.77 286.46 405.96 286.03 410.23C274.839 415.188 262.978 418.467 250.83 419.96C250.847 419.006 250.641 418.061 250.23 417.2C249.64 416.49 289.39 398.77 289.39 398.77Z" fill="black"/>
<path d="M229.14 283.44C174.14 283.44 153.02 326.53 153.02 351.75C153.02 376.63 169.02 418.91 229.14 418.91C289.26 418.91 309.19 383.09 309.19 351.18C309.19 319.27 284.75 283.44 229.14 283.44Z" fill="#FFC727"/>
<path opacity="0.1" d="M229.14 283.44C174.14 283.44 153.02 326.53 153.02 351.75C153.02 376.63 169.02 418.91 229.14 418.91C289.26 418.91 309.19 383.09 309.19 351.18C309.19 319.27 284.75 283.44 229.14 283.44Z" fill="black"/>
<path d="M244.67 286.56C244.67 286.56 269.81 267.28 297.04 269.56C306.41 270.35 290.85 290.67 290.56 306.56L244.67 286.56Z" fill="#FFC727"/>
<path opacity="0.1" d="M244.67 286.56C244.67 286.56 269.81 267.28 297.04 269.56C306.41 270.35 290.85 290.67 290.56 306.56L244.67 286.56Z" fill="black"/>
<path opacity="0.3" d="M280.06 298.78C279.9 299.78 288.58 303.5 289.48 302.93C290.38 302.36 291.28 289.86 298.36 276.54C299.4 274.58 281.74 288 280.06 298.78Z" fill="black"/>
<path opacity="0.3" d="M285.52 348.3C286.359 348.172 287.143 347.807 287.783 347.25C288.422 346.692 288.889 345.964 289.13 345.15C289.05 346.15 288.745 347.12 288.237 347.986C287.73 348.851 287.034 349.591 286.2 350.15C286.08 350.23 286.14 350.46 286.3 350.41C291.11 348.6 290.59 341.81 288.9 337.48C288.81 337.24 288.72 337 288.61 336.77C287.53 334.26 285.61 332.44 283.29 332.77C275.52 333.89 278.32 349.34 285.52 348.3Z" fill="black"/>
<path d="M304 326.3C305.2 329.91 316.12 326.98 318.87 329.3C323.2 332.9 322 377.49 318.04 381.08C315.82 383.08 303.44 380.97 299.96 383.42C296.48 385.87 304 326.3 304 326.3Z" fill="#FFC727"/>
<path opacity="0.1" d="M304 326.3C305.2 329.91 316.12 326.98 318.87 329.3C323.2 332.9 322 377.49 318.04 381.08C315.82 383.08 303.44 380.97 299.96 383.42C296.48 385.87 304 326.3 304 326.3Z" fill="black"/>
<path opacity="0.3" d="M319.49 354.07C319.49 364.93 318.58 373.74 317.49 373.74C316.4 373.74 315.49 364.93 315.49 354.07C315.49 343.21 316.39 334.4 317.49 334.4C318.59 334.4 319.49 343.21 319.49 354.07Z" fill="black"/>
<path opacity="0.3" d="M207.8 297.73C207.98 297.67 226.54 291.64 243.8 296.36L245.52 290.07C226.3 284.81 206.52 291.27 205.73 291.54L207.79 297.73L206.79 294.64L207.8 297.73Z" fill="black"/>
<path d="M182 392.41C157.21 363.92 172.38 330.84 173.07 329.41C173.494 328.447 173.529 327.356 173.168 326.368C172.806 325.379 172.077 324.568 171.132 324.104C170.187 323.641 169.099 323.561 168.096 323.88C167.093 324.2 166.252 324.895 165.75 325.82C162.401 333.325 160.42 341.368 159.9 349.57C158.71 367.69 164.7 384.33 178.9 395.66C183.19 399.08 185.22 396.08 182 392.41Z" fill="white"/>
<path d="M171.24 316.77C171.238 317.648 171.497 318.508 171.983 319.239C172.47 319.971 173.163 320.541 173.974 320.879C174.785 321.217 175.678 321.306 176.54 321.136C177.402 320.966 178.194 320.543 178.816 319.923C179.438 319.302 179.862 318.511 180.034 317.65C180.206 316.788 180.119 315.895 179.783 315.083C179.447 314.271 178.878 313.577 178.148 313.089C177.417 312.601 176.559 312.34 175.68 312.34C174.504 312.34 173.376 312.806 172.544 313.637C171.712 314.467 171.243 315.594 171.24 316.77Z" fill="white"/>
<path d="M391.49 421.58H360.14V428.51H391.49V421.58Z" fill="#FFC727"/>
<g opacity="0.1">
<path opacity="0.1" d="M361.43 422.21C362.092 424.001 362.092 425.969 361.43 427.76C360.768 425.969 360.768 424.001 361.43 422.21Z" fill="black"/>
<path opacity="0.1" d="M363.76 422.21C364.422 424.001 364.422 425.969 363.76 427.76C363.098 425.969 363.098 424.001 363.76 422.21Z" fill="black"/>
<path opacity="0.1" d="M364.9 422.21C365.562 424.001 365.562 425.969 364.9 427.76C364.238 425.969 364.238 424.001 364.9 422.21Z" fill="black"/>
<path opacity="0.1" d="M371.17 422.21C371.824 424.002 371.824 425.968 371.17 427.76C370.508 425.969 370.508 424.001 371.17 422.21Z" fill="black"/>
<path opacity="0.1" d="M372.86 422.21C373.204 423.096 373.374 424.04 373.36 424.99C373.378 425.937 373.208 426.879 372.86 427.76C372.508 426.88 372.337 425.938 372.36 424.99C372.346 424.04 372.516 423.096 372.86 422.21Z" fill="black"/>
<path opacity="0.1" d="M379.86 422.21C380.522 424.001 380.522 425.969 379.86 427.76C379.198 425.969 379.198 424.001 379.86 422.21Z" fill="black"/>
<path opacity="0.1" d="M381.48 422.21C382.142 424.001 382.142 425.969 381.48 427.76C380.818 425.969 380.818 424.001 381.48 422.21Z" fill="black"/>
<path opacity="0.1" d="M384.45 422.21C385.112 424.001 385.112 425.969 384.45 427.76C383.796 425.968 383.796 424.002 384.45 422.21Z" fill="black"/>
<path opacity="0.1" d="M378.51 422.21C378.857 423.098 379.024 424.047 379 425C379.023 425.948 378.852 426.89 378.5 427.77C378.152 426.889 377.982 425.947 378 425C377.988 424.046 378.161 423.098 378.51 422.21Z" fill="black"/>
<path opacity="0.1" d="M367 422.21C367.662 424.001 367.662 425.969 367 427.76C366.338 425.969 366.338 424.001 367 422.21Z" fill="black"/>
<path opacity="0.1" d="M375.09 422.21C375.752 424.001 375.752 425.969 375.09 427.76C374.738 426.88 374.567 425.938 374.59 424.99C374.571 424.039 374.741 423.094 375.09 422.21Z" fill="black"/>
<path opacity="0.1" d="M376.26 422.21C376.922 424.001 376.922 425.969 376.26 427.76C375.598 425.969 375.598 424.001 376.26 422.21Z" fill="black"/>
<path opacity="0.1" d="M388.33 422.21C388.674 423.096 388.844 424.04 388.83 424.99C388.848 425.937 388.678 426.879 388.33 427.76C387.977 426.88 387.807 425.938 387.83 424.99C387.811 424.039 387.981 423.094 388.33 422.21Z" fill="black"/>
<path opacity="0.1" d="M390.08 422.21C390.424 423.096 390.594 424.04 390.58 424.99C390.603 425.938 390.432 426.88 390.08 427.76C389.732 426.879 389.562 425.937 389.58 424.99C389.566 424.04 389.736 423.096 390.08 422.21Z" fill="black"/>
<path opacity="0.1" d="M385.83 422.21C386.492 424.001 386.492 425.969 385.83 427.76C385.168 425.969 385.168 424.001 385.83 422.21Z" fill="black"/>
<path opacity="0.1" d="M369.81 422.21C370.159 423.094 370.329 424.039 370.31 424.99C370.333 425.938 370.163 426.88 369.81 427.76C369.148 425.969 369.148 424.001 369.81 422.21Z" fill="black"/>
</g>
<path opacity="0.1" d="M391.49 421.58V423.05L360.13 424.04V421.58H391.49Z" fill="black"/>
<path d="M388.87 414.65H357.52V421.58H388.87V414.65Z" fill="#FFC727"/>
<g opacity="0.1">
<path opacity="0.1" d="M387.46 420.83C386.793 419.044 386.793 417.076 387.46 415.29C388.127 417.076 388.127 419.044 387.46 420.83Z" fill="black"/>
<path opacity="0.1" d="M385.13 420.83C384.781 419.949 384.611 419.007 384.63 418.06C384.605 417.112 384.775 416.169 385.13 415.29C385.48 416.171 385.65 417.113 385.63 418.06C385.644 419.007 385.474 419.948 385.13 420.83Z" fill="black"/>
<path opacity="0.1" d="M384 420.83C383.333 419.044 383.333 417.076 384 415.29C384.667 417.076 384.667 419.044 384 420.83Z" fill="black"/>
<path opacity="0.1" d="M377.73 420.83C377.063 419.044 377.063 417.076 377.73 415.29C378.397 417.076 378.397 419.044 377.73 420.83Z" fill="black"/>
<path opacity="0.1" d="M376 420.83C375.656 419.948 375.486 419.007 375.5 418.06C375.48 417.113 375.65 416.171 376 415.29C376.355 416.169 376.525 417.112 376.5 418.06C376.519 419.007 376.349 419.949 376 420.83Z" fill="black"/>
<path opacity="0.1" d="M369 420.83C368.333 419.044 368.333 417.076 369 415.29C369.667 417.076 369.667 419.044 369 420.83Z" fill="black"/>
<path opacity="0.1" d="M367.41 420.83C367.061 419.949 366.891 419.007 366.91 418.06C366.885 417.112 367.055 416.169 367.41 415.29C368.077 417.076 368.077 419.044 367.41 420.83Z" fill="black"/>
<path opacity="0.1" d="M364.44 420.83C363.773 419.044 363.773 417.076 364.44 415.29C365.107 417.076 365.107 419.044 364.44 420.83Z" fill="black"/>
<path opacity="0.1" d="M370.38 420.83C370.036 419.948 369.866 419.007 369.88 418.06C369.855 417.112 370.025 416.169 370.38 415.29C370.73 416.171 370.9 417.113 370.88 418.06C370.894 419.007 370.724 419.948 370.38 420.83Z" fill="black"/>
<path opacity="0.1" d="M381.92 420.83C381.571 419.949 381.401 419.007 381.42 418.06C381.395 417.112 381.565 416.169 381.92 415.29C382.587 417.076 382.587 419.044 381.92 420.83Z" fill="black"/>
<path opacity="0.1" d="M373.8 420.83C373.133 419.044 373.133 417.076 373.8 415.29C374.467 417.076 374.467 419.044 373.8 420.83Z" fill="black"/>
<path opacity="0.1" d="M372.64 420.83C371.973 419.044 371.973 417.076 372.64 415.29C373.294 417.079 373.294 419.041 372.64 420.83Z" fill="black"/>
<path opacity="0.1" d="M360.56 420.83C359.893 419.044 359.893 417.076 360.56 415.29C360.915 416.169 361.085 417.112 361.06 418.06C361.079 419.007 360.909 419.949 360.56 420.83Z" fill="black"/>
<path opacity="0.1" d="M358.81 420.83C358.466 419.948 358.296 419.007 358.31 418.06C358.29 417.113 358.46 416.171 358.81 415.29C359.165 416.169 359.335 417.112 359.31 418.06C359.329 419.007 359.159 419.949 358.81 420.83Z" fill="black"/>
<path opacity="0.1" d="M363.06 420.83C362.393 419.044 362.393 417.076 363.06 415.29C363.727 417.076 363.727 419.044 363.06 420.83Z" fill="black"/>
<path opacity="0.1" d="M379.08 420.83C378.731 419.949 378.561 419.007 378.58 418.06C378.555 417.112 378.725 416.169 379.08 415.29C379.43 416.171 379.6 417.113 379.58 418.06C379.594 419.007 379.424 419.948 379.08 420.83Z" fill="black"/>
</g>
<path opacity="0.1" d="M388.87 414.65V416.12L357.52 417.11V414.65H388.87Z" fill="black"/>
<path d="M391.28 407.78H359.93V414.71H391.28V407.78Z" fill="#FFC727"/>
<g opacity="0.1">
<path opacity="0.1" d="M361.23 408.41C361.892 410.2 361.892 412.169 361.23 413.96C360.568 412.169 360.568 410.2 361.23 408.41Z" fill="black"/>
<path opacity="0.1" d="M363.56 408.41C363.909 409.294 364.079 410.239 364.06 411.19C364.083 412.137 363.912 413.08 363.56 413.96C362.898 412.169 362.898 410.2 363.56 408.41Z" fill="black"/>
<path opacity="0.1" d="M364.7 408.41C365.362 410.2 365.362 412.169 364.7 413.96C364.038 412.169 364.038 410.2 364.7 408.41Z" fill="black"/>
<path opacity="0.1" d="M371 408.41C371.662 410.2 371.662 412.169 371 413.96C370.338 412.169 370.338 410.2 371 408.41Z" fill="black"/>
<path opacity="0.1" d="M372.66 408.41C373.004 409.295 373.174 410.239 373.16 411.19C373.178 412.137 373.008 413.079 372.66 413.96C372.307 413.08 372.137 412.137 372.16 411.19C372.141 410.239 372.311 409.294 372.66 408.41Z" fill="black"/>
<path opacity="0.1" d="M379.66 408.41C380.322 410.2 380.322 412.169 379.66 413.96C378.998 412.169 378.998 410.2 379.66 408.41Z" fill="black"/>
<path opacity="0.1" d="M381.28 408.41C381.942 410.2 381.942 412.169 381.28 413.96C380.618 412.169 380.618 410.2 381.28 408.41Z" fill="black"/>
<path opacity="0.1" d="M384.25 408.41C384.912 410.2 384.912 412.169 384.25 413.96C383.588 412.169 383.588 410.2 384.25 408.41Z" fill="black"/>
<path opacity="0.1" d="M378.31 408.41C378.654 409.295 378.824 410.239 378.81 411.19C378.833 412.137 378.662 413.08 378.31 413.96C377.962 413.079 377.792 412.137 377.81 411.19C377.796 410.239 377.966 409.295 378.31 408.41Z" fill="black"/>
<path opacity="0.1" d="M366.77 408.41C367.432 410.2 367.432 412.169 366.77 413.96C366.108 412.169 366.108 410.2 366.77 408.41Z" fill="black"/>
<path opacity="0.1" d="M374.89 408.41C375.552 410.2 375.552 412.169 374.89 413.96C374.228 412.169 374.228 410.2 374.89 408.41Z" fill="black"/>
<path opacity="0.1" d="M376.06 408.41C376.714 410.202 376.714 412.167 376.06 413.96C375.398 412.169 375.398 410.2 376.06 408.41Z" fill="black"/>
<path opacity="0.1" d="M388.13 408.41C388.792 410.2 388.792 412.169 388.13 413.96C387.777 413.08 387.607 412.137 387.63 411.19C387.611 410.239 387.781 409.294 388.13 408.41Z" fill="black"/>
<path opacity="0.1" d="M389.88 408.41C390.224 409.295 390.394 410.239 390.38 411.19C390.398 412.137 390.228 413.079 389.88 413.96C389.527 413.08 389.357 412.137 389.38 411.19C389.366 410.239 389.536 409.295 389.88 408.41Z" fill="black"/>
<path opacity="0.1" d="M385.63 408.41C386.292 410.2 386.292 412.169 385.63 413.96C384.968 412.169 384.968 410.2 385.63 408.41Z" fill="black"/>
<path opacity="0.1" d="M369.61 408.41C369.959 409.294 370.129 410.239 370.11 411.19C370.133 412.137 369.962 413.08 369.61 413.96C369.262 413.079 369.092 412.137 369.11 411.19C369.096 410.239 369.266 409.295 369.61 408.41Z" fill="black"/>
</g>
<path opacity="0.1" d="M391.29 407.78V409.25L359.93 410.24V407.78H391.29Z" fill="black"/>
<path d="M162.2 417.41H130.85V424.34H162.2V417.41Z" fill="#FFC727"/>
<g opacity="0.1">
<path opacity="0.1" d="M132.14 418C132.802 419.791 132.802 421.759 132.14 423.55C131.478 421.759 131.478 419.791 132.14 418Z" fill="black"/>
<path opacity="0.1" d="M134.48 418C134.824 418.882 134.993 419.823 134.98 420.77C134.999 421.721 134.829 422.666 134.48 423.55C134.126 422.667 133.956 421.721 133.98 420.77C133.962 419.823 134.132 418.881 134.48 418Z" fill="black"/>
<path opacity="0.1" d="M135.62 418C135.964 418.882 136.133 419.823 136.12 420.77C136.144 421.721 135.974 422.667 135.62 423.55C135.271 422.666 135.101 421.721 135.12 420.77C135.107 419.823 135.276 418.882 135.62 418Z" fill="black"/>
<path opacity="0.1" d="M141.88 418C142.542 419.791 142.542 421.759 141.88 423.55C141.218 421.759 141.218 419.791 141.88 418Z" fill="black"/>
<path opacity="0.1" d="M143.58 418C144.242 419.791 144.242 421.759 143.58 423.55C142.918 421.759 142.918 419.791 143.58 418Z" fill="black"/>
<path opacity="0.1" d="M150.58 418C150.928 418.881 151.098 419.823 151.08 420.77C151.104 421.721 150.934 422.667 150.58 423.55C149.918 421.759 149.918 419.791 150.58 418Z" fill="black"/>
<path opacity="0.1" d="M152.2 418C152.544 418.882 152.713 419.823 152.7 420.77C152.724 421.721 152.554 422.667 152.2 423.55C151.851 422.666 151.681 421.721 151.7 420.77C151.687 419.823 151.856 418.882 152.2 418Z" fill="black"/>
<path opacity="0.1" d="M155.17 418C155.518 418.881 155.688 419.823 155.67 420.77C155.694 421.721 155.524 422.667 155.17 423.55C154.508 421.759 154.508 419.791 155.17 418Z" fill="black"/>
<path opacity="0.1" d="M149.23 418C149.892 419.791 149.892 421.759 149.23 423.55C148.876 422.667 148.706 421.721 148.73 420.77C148.712 419.823 148.882 418.881 149.23 418Z" fill="black"/>
<path opacity="0.1" d="M137.69 418C138.034 418.882 138.203 419.823 138.19 420.77C138.209 421.721 138.039 422.666 137.69 423.55C137.336 422.667 137.166 421.721 137.19 420.77C137.177 419.823 137.346 418.882 137.69 418Z" fill="black"/>
<path opacity="0.1" d="M145.81 418C146.472 419.791 146.472 421.759 145.81 423.55C145.148 421.759 145.148 419.791 145.81 418Z" fill="black"/>
<path opacity="0.1" d="M147 418C147.662 419.791 147.662 421.759 147 423.55C146.338 421.759 146.338 419.791 147 418Z" fill="black"/>
<path opacity="0.1" d="M159.05 418C159.712 419.791 159.712 421.759 159.05 423.55C158.388 421.759 158.388 419.791 159.05 418Z" fill="black"/>
<path opacity="0.1" d="M160.8 418C161.462 419.791 161.462 421.759 160.8 423.55C160.138 421.759 160.138 419.791 160.8 418Z" fill="black"/>
<path opacity="0.1" d="M156.55 418C156.898 418.881 157.068 419.823 157.05 420.77C157.074 421.721 156.904 422.667 156.55 423.55C155.888 421.759 155.888 419.791 156.55 418Z" fill="black"/>
<path opacity="0.1" d="M140.53 418C140.874 418.882 141.043 419.823 141.03 420.77C141.049 421.721 140.879 422.666 140.53 423.55C140.176 422.667 140.006 421.721 140.03 420.77C140.012 419.823 140.182 418.881 140.53 418Z" fill="black"/>
</g>
<path opacity="0.1" d="M162.21 417.41V418.88L130.85 419.87V417.41H162.21Z" fill="black"/>
<path d="M160.06 410.48H128.71V417.41H160.06V410.48Z" fill="#FFC727"/>
<g opacity="0.1">
<path opacity="0.1" d="M130 411.11C130.344 411.996 130.514 412.94 130.5 413.89C130.523 414.838 130.352 415.78 130 416.66C129.647 415.78 129.477 414.838 129.5 413.89C129.486 412.94 129.656 411.996 130 411.11Z" fill="black"/>
<path opacity="0.1" d="M132.33 411.11C132.992 412.901 132.992 414.869 132.33 416.66C131.676 414.868 131.676 412.902 132.33 411.11Z" fill="black"/>
<path opacity="0.1" d="M133.48 411.11C134.142 412.901 134.142 414.869 133.48 416.66C132.818 414.869 132.818 412.901 133.48 411.11Z" fill="black"/>
<path opacity="0.1" d="M139.74 411.11C140.402 412.901 140.402 414.869 139.74 416.66C139.387 415.78 139.217 414.838 139.24 413.89C139.221 412.939 139.391 411.994 139.74 411.11Z" fill="black"/>
<path opacity="0.1" d="M141.43 411.11C142.092 412.901 142.092 414.869 141.43 416.66C140.768 414.869 140.768 412.901 141.43 411.11Z" fill="black"/>
<path opacity="0.1" d="M148.44 411.11C149.102 412.901 149.102 414.869 148.44 416.66C147.778 414.869 147.778 412.901 148.44 411.11Z" fill="black"/>
<path opacity="0.1" d="M150.06 411.11C150.722 412.901 150.722 414.869 150.06 416.66C149.398 414.869 149.398 412.901 150.06 411.11Z" fill="black"/>
<path opacity="0.1" d="M153 411.11C153.662 412.901 153.662 414.869 153 416.66C152.338 414.869 152.338 412.901 153 411.11Z" fill="black"/>
<path opacity="0.1" d="M147.08 411.11C147.742 412.901 147.742 414.869 147.08 416.66C146.418 414.869 146.418 412.901 147.08 411.11Z" fill="black"/>
<path opacity="0.1" d="M135.55 411.11C136.212 412.901 136.212 414.869 135.55 416.66C134.888 414.869 134.888 412.901 135.55 411.11Z" fill="black"/>
<path opacity="0.1" d="M143.66 411.11C144.009 411.994 144.179 412.939 144.16 413.89C144.183 414.838 144.012 415.78 143.66 416.66C143.312 415.779 143.142 414.837 143.16 413.89C143.146 412.94 143.316 411.996 143.66 411.11Z" fill="black"/>
<path opacity="0.1" d="M144.83 411.11C145.492 412.901 145.492 414.869 144.83 416.66C144.477 415.78 144.307 414.838 144.33 413.89C144.311 412.939 144.481 411.994 144.83 411.11Z" fill="black"/>
<path opacity="0.1" d="M156.9 411.11C157.249 411.994 157.419 412.939 157.4 413.89C157.423 414.838 157.252 415.78 156.9 416.66C156.238 414.869 156.238 412.901 156.9 411.11Z" fill="black"/>
<path opacity="0.1" d="M158.65 411.11C159.312 412.901 159.312 414.869 158.65 416.66C157.988 414.869 157.988 412.901 158.65 411.11Z" fill="black"/>
<path opacity="0.1" d="M154.41 411.11C155.072 412.901 155.072 414.869 154.41 416.66C153.748 414.869 153.748 412.901 154.41 411.11Z" fill="black"/>
<path opacity="0.1" d="M138.38 411.11C139.042 412.901 139.042 414.869 138.38 416.66C137.718 414.869 137.718 412.901 138.38 411.11Z" fill="black"/>
</g>
<path opacity="0.1" d="M160.06 410.48V411.95L128.71 412.94V410.48H160.06Z" fill="black"/>
<path d="M164.9 396.68H133.55V403.61H164.9V396.68Z" fill="#FFC727"/>
<g opacity="0.1">
<path opacity="0.1" d="M134.84 397.31C135.502 399.1 135.502 401.069 134.84 402.86C134.178 401.069 134.178 399.1 134.84 397.31Z" fill="black"/>
<path opacity="0.1" d="M137.18 397.31C137.524 398.195 137.694 399.139 137.68 400.09C137.698 401.037 137.528 401.978 137.18 402.86C136.827 401.98 136.657 401.037 136.68 400.09C136.661 399.139 136.831 398.194 137.18 397.31Z" fill="black"/>
<path opacity="0.1" d="M138.32 397.31C138.664 398.195 138.834 399.139 138.82 400.09C138.838 401.037 138.668 401.978 138.32 402.86C137.967 401.98 137.797 401.037 137.82 400.09C137.806 399.139 137.976 398.195 138.32 397.31Z" fill="black"/>
<path opacity="0.1" d="M144.58 397.31C144.929 398.194 145.099 399.139 145.08 400.09C145.103 401.037 144.932 401.98 144.58 402.86C143.918 401.069 143.918 399.1 144.58 397.31Z" fill="black"/>
<path opacity="0.1" d="M146.28 397.31C146.942 399.1 146.942 401.069 146.28 402.86C145.618 401.069 145.618 399.1 146.28 397.31Z" fill="black"/>
<path opacity="0.1" d="M153.28 397.31C153.629 398.194 153.799 399.139 153.78 400.09C153.803 401.037 153.632 401.98 153.28 402.86C152.932 401.978 152.762 401.037 152.78 400.09C152.766 399.139 152.936 398.195 153.28 397.31Z" fill="black"/>
<path opacity="0.1" d="M154.9 397.31C155.244 398.195 155.414 399.139 155.4 400.09C155.418 401.037 155.248 401.978 154.9 402.86C154.547 401.98 154.377 401.037 154.4 400.09C154.386 399.139 154.556 398.195 154.9 397.31Z" fill="black"/>
<path opacity="0.1" d="M157.87 397.31C158.219 398.194 158.389 399.139 158.37 400.09C158.393 401.037 158.223 401.98 157.87 402.86C157.208 401.069 157.208 399.1 157.87 397.31Z" fill="black"/>
<path opacity="0.1" d="M151.93 397.31C152.592 399.1 152.592 401.069 151.93 402.86C151.268 401.069 151.268 399.1 151.93 397.31Z" fill="black"/>
<path opacity="0.1" d="M140.39 397.31C140.734 398.195 140.904 399.139 140.89 400.09C140.908 401.037 140.738 401.978 140.39 402.86C140.037 401.98 139.867 401.037 139.89 400.09C139.876 399.139 140.046 398.195 140.39 397.31Z" fill="black"/>
<path opacity="0.1" d="M148.5 397.31C149.162 399.1 149.162 401.069 148.5 402.86C147.846 401.067 147.846 399.102 148.5 397.31Z" fill="black"/>
<path opacity="0.1" d="M149.67 397.31C150.332 399.1 150.332 401.069 149.67 402.86C149.008 401.069 149.008 399.1 149.67 397.31Z" fill="black"/>
<path opacity="0.1" d="M161.75 397.31C162.412 399.1 162.412 401.069 161.75 402.86C161.088 401.069 161.088 399.1 161.75 397.31Z" fill="black"/>
<path opacity="0.1" d="M163.5 397.31C164.162 399.1 164.162 401.069 163.5 402.86C162.838 401.069 162.838 399.1 163.5 397.31Z" fill="black"/>
<path opacity="0.1" d="M159.25 397.31C159.599 398.194 159.769 399.139 159.75 400.09C159.773 401.037 159.602 401.98 159.25 402.86C158.902 401.978 158.732 401.037 158.75 400.09C158.736 399.139 158.906 398.195 159.25 397.31Z" fill="black"/>
<path opacity="0.1" d="M143.23 397.31C143.574 398.195 143.744 399.139 143.73 400.09C143.748 401.037 143.578 401.978 143.23 402.86C142.877 401.98 142.707 401.037 142.73 400.09C142.711 399.139 142.881 398.194 143.23 397.31Z" fill="black"/>
</g>
<path opacity="0.1" d="M164.9 396.68V398.15L133.55 399.14V396.68H164.9Z" fill="black"/>
<path d="M164.11 389.75H132.76V396.68H164.11V389.75Z" fill="#FFC727"/>
<g opacity="0.1">
<path opacity="0.1" d="M162.71 395.93C162.043 394.143 162.043 392.176 162.71 390.39C163.364 392.178 163.364 394.141 162.71 395.93Z" fill="black"/>
<path opacity="0.1" d="M160.37 395.93C160.026 395.047 159.856 394.107 159.87 393.16C159.85 392.212 160.02 391.27 160.37 390.39C160.725 391.269 160.895 392.212 160.87 393.16C160.884 394.107 160.714 395.047 160.37 395.93Z" fill="black"/>
<path opacity="0.1" d="M159.23 395.93C158.881 395.049 158.711 394.107 158.73 393.16C158.705 392.212 158.875 391.269 159.23 390.39C159.58 391.27 159.75 392.212 159.73 393.16C159.744 394.107 159.574 395.047 159.23 395.93Z" fill="black"/>
<path opacity="0.1" d="M153 395.93C152.333 394.143 152.333 392.176 153 390.39C153.667 392.176 153.667 394.143 153 395.93Z" fill="black"/>
<path opacity="0.1" d="M151.27 395.93C150.603 394.143 150.603 392.176 151.27 390.39C151.937 392.176 151.937 394.143 151.27 395.93Z" fill="black"/>
<path opacity="0.1" d="M144.27 395.93C143.921 395.049 143.751 394.107 143.77 393.16C143.745 392.212 143.915 391.269 144.27 390.39C144.937 392.176 144.937 394.143 144.27 395.93Z" fill="black"/>
<path opacity="0.1" d="M142.65 395.93C142.301 395.049 142.131 394.107 142.15 393.16C142.125 392.212 142.295 391.269 142.65 390.39C143 391.27 143.17 392.212 143.15 393.16C143.164 394.107 142.994 395.047 142.65 395.93Z" fill="black"/>
<path opacity="0.1" d="M139.68 395.93C139.013 394.143 139.013 392.176 139.68 390.39C140.347 392.176 140.347 394.143 139.68 395.93Z" fill="black"/>
<path opacity="0.1" d="M145.62 395.93C145.276 395.047 145.106 394.107 145.12 393.16C145.1 392.212 145.27 391.27 145.62 390.39C145.975 391.269 146.145 392.212 146.12 393.16C146.139 394.107 145.969 395.049 145.62 395.93Z" fill="black"/>
<path opacity="0.1" d="M157.16 395.93C156.816 395.047 156.646 394.107 156.66 393.16C156.635 392.212 156.805 391.269 157.16 390.39C157.51 391.27 157.68 392.212 157.66 393.16C157.674 394.107 157.504 395.047 157.16 395.93Z" fill="black"/>
<path opacity="0.1" d="M149 395.93C148.333 394.143 148.333 392.176 149 390.39C149.667 392.176 149.667 394.143 149 395.93Z" fill="black"/>
<path opacity="0.1" d="M147.88 395.93C147.213 394.143 147.213 392.176 147.88 390.39C148.547 392.176 148.547 394.143 147.88 395.93Z" fill="black"/>
<path opacity="0.1" d="M135.8 395.93C135.133 394.143 135.133 392.176 135.8 390.39C136.467 392.176 136.467 394.143 135.8 395.93Z" fill="black"/>
<path opacity="0.1" d="M134.05 395.93C133.383 394.143 133.383 392.176 134.05 390.39C134.717 392.176 134.717 394.143 134.05 395.93Z" fill="black"/>
<path opacity="0.1" d="M138.3 395.93C137.633 394.143 137.633 392.176 138.3 390.39C138.967 392.176 138.967 394.143 138.3 395.93Z" fill="black"/>
<path opacity="0.1" d="M154.32 395.93C153.976 395.047 153.806 394.107 153.82 393.16C153.8 392.212 153.97 391.27 154.32 390.39C154.675 391.269 154.845 392.212 154.82 393.16C154.834 394.107 154.664 395.047 154.32 395.93Z" fill="black"/>
</g>
<path opacity="0.1" d="M164.11 389.75V391.22L132.76 392.21V389.75H164.11Z" fill="black"/>
<path d="M162.2 382.82H130.85V389.75H162.2V382.82Z" fill="#FFC727"/>
<g opacity="0.1">
<path opacity="0.1" d="M132.14 383.46C132.807 385.246 132.807 387.214 132.14 389C131.486 387.211 131.486 385.249 132.14 383.46Z" fill="black"/>
<path opacity="0.1" d="M134.48 383.46C134.824 384.342 134.994 385.283 134.98 386.23C134.999 387.177 134.829 388.119 134.48 389C134.128 388.12 133.957 387.178 133.98 386.23C133.966 385.283 134.136 384.342 134.48 383.46Z" fill="black"/>
<path opacity="0.1" d="M135.62 383.46C135.969 384.341 136.139 385.283 136.12 386.23C136.143 387.178 135.973 388.12 135.62 389C135.271 388.119 135.101 387.177 135.12 386.23C135.106 385.283 135.276 384.342 135.62 383.46Z" fill="black"/>
<path opacity="0.1" d="M141.88 383.46C142.547 385.246 142.547 387.214 141.88 389C141.213 387.214 141.213 385.246 141.88 383.46Z" fill="black"/>
<path opacity="0.1" d="M143.58 383.46C144.247 385.246 144.247 387.214 143.58 389C142.913 387.214 142.913 385.246 143.58 383.46Z" fill="black"/>
<path opacity="0.1" d="M150.58 383.46C151.247 385.246 151.247 387.214 150.58 389C149.913 387.214 149.913 385.246 150.58 383.46Z" fill="black"/>
<path opacity="0.1" d="M152.2 383.46C152.549 384.341 152.719 385.283 152.7 386.23C152.723 387.178 152.553 388.12 152.2 389C151.851 388.119 151.681 387.177 151.7 386.23C151.686 385.283 151.856 384.342 152.2 383.46Z" fill="black"/>
<path opacity="0.1" d="M155.17 383.46C155.837 385.246 155.837 387.214 155.17 389C154.503 387.214 154.503 385.246 155.17 383.46Z" fill="black"/>
<path opacity="0.1" d="M149.23 383.46C149.574 384.342 149.744 385.283 149.73 386.23C149.749 387.177 149.579 388.119 149.23 389C148.878 388.12 148.707 387.178 148.73 386.23C148.711 385.283 148.881 384.341 149.23 383.46Z" fill="black"/>
<path opacity="0.1" d="M137.69 383.46C138.034 384.342 138.204 385.283 138.19 386.23C138.213 387.178 138.043 388.12 137.69 389C137.341 388.119 137.171 387.177 137.19 386.23C137.176 385.283 137.346 384.342 137.69 383.46Z" fill="black"/>
<path opacity="0.1" d="M145.81 383.46C146.477 385.246 146.477 387.214 145.81 389C145.143 387.214 145.143 385.246 145.81 383.46Z" fill="black"/>
<path opacity="0.1" d="M147 383.46C147.667 385.246 147.667 387.214 147 389C146.333 387.214 146.333 385.246 147 383.46Z" fill="black"/>
<path opacity="0.1" d="M159.05 383.46C159.717 385.246 159.717 387.214 159.05 389C158.383 387.214 158.383 385.246 159.05 383.46Z" fill="black"/>
<path opacity="0.1" d="M160.8 383.46C161.467 385.246 161.467 387.214 160.8 389C160.133 387.214 160.133 385.246 160.8 383.46Z" fill="black"/>
<path opacity="0.1" d="M156.55 383.46C157.217 385.246 157.217 387.214 156.55 389C155.883 387.214 155.883 385.246 156.55 383.46Z" fill="black"/>
<path opacity="0.1" d="M140.53 383.46C140.874 384.342 141.044 385.283 141.03 386.23C141.049 387.177 140.879 388.119 140.53 389C140.178 388.12 140.007 387.178 140.03 386.23C140.016 385.283 140.186 384.342 140.53 383.46Z" fill="black"/>
</g>
<path opacity="0.1" d="M162.21 382.82V384.3L130.85 385.29V382.82H162.21Z" fill="black"/>
<path d="M162.2 403.61H130.85V410.54H162.2V403.61Z" fill="#FFC727"/>
<g opacity="0.1">
<path opacity="0.1" d="M160.8 409.79C160.138 407.999 160.138 406.03 160.8 404.24C161.462 406.03 161.462 407.999 160.8 409.79Z" fill="black"/>
<path opacity="0.1" d="M158.46 409.79C157.798 407.999 157.798 406.03 158.46 404.24C159.122 406.03 159.122 407.999 158.46 409.79Z" fill="black"/>
<path opacity="0.1" d="M157.32 409.79C156.658 407.999 156.658 406.03 157.32 404.24C157.673 405.12 157.843 406.062 157.82 407.01C157.839 407.96 157.669 408.905 157.32 409.79Z" fill="black"/>
<path opacity="0.1" d="M151.06 409.79C150.716 408.904 150.546 407.96 150.56 407.01C150.537 406.062 150.708 405.12 151.06 404.24C151.408 405.121 151.578 406.062 151.56 407.01C151.574 407.96 151.404 408.904 151.06 409.79Z" fill="black"/>
<path opacity="0.1" d="M149.37 409.79C148.708 407.999 148.708 406.03 149.37 404.24C150.024 406.032 150.024 407.997 149.37 409.79Z" fill="black"/>
<path opacity="0.1" d="M142.36 409.79C142.016 408.904 141.846 407.96 141.86 407.01C141.842 406.062 142.012 405.121 142.36 404.24C142.713 405.12 142.883 406.062 142.86 407.01C142.874 407.96 142.704 408.904 142.36 409.79Z" fill="black"/>
<path opacity="0.1" d="M140.74 409.79C140.078 407.999 140.078 406.03 140.74 404.24C141.092 405.12 141.263 406.062 141.24 407.01C141.259 407.96 141.089 408.905 140.74 409.79Z" fill="black"/>
<path opacity="0.1" d="M137.77 409.79C137.426 408.904 137.256 407.96 137.27 407.01C137.247 406.062 137.418 405.12 137.77 404.24C138.118 405.121 138.288 406.062 138.27 407.01C138.284 407.96 138.114 408.904 137.77 409.79Z" fill="black"/>
<path opacity="0.1" d="M143.71 409.79C143.048 407.999 143.048 406.03 143.71 404.24C144.372 406.03 144.372 407.999 143.71 409.79Z" fill="black"/>
<path opacity="0.1" d="M155.25 409.79C154.588 407.999 154.588 406.03 155.25 404.24C155.603 405.12 155.773 406.062 155.75 407.01C155.769 407.96 155.599 408.905 155.25 409.79Z" fill="black"/>
<path opacity="0.1" d="M147.14 409.79C146.478 407.999 146.478 406.03 147.14 404.24C147.802 406.03 147.802 407.999 147.14 409.79Z" fill="black"/>
<path opacity="0.1" d="M146 409.79C145.651 408.905 145.481 407.96 145.5 407.01C145.477 406.062 145.648 405.12 146 404.24C146.348 405.121 146.518 406.062 146.5 407.01C146.514 407.96 146.344 408.904 146 409.79Z" fill="black"/>
<path opacity="0.1" d="M133.9 409.79C133.238 407.999 133.238 406.03 133.9 404.24C134.562 406.03 134.562 407.999 133.9 409.79Z" fill="black"/>
<path opacity="0.1" d="M132.14 409.79C131.478 407.999 131.478 406.03 132.14 404.24C132.802 406.03 132.802 407.999 132.14 409.79Z" fill="black"/>
<path opacity="0.1" d="M136.39 409.79C136.046 408.904 135.876 407.96 135.89 407.01C135.867 406.062 136.038 405.12 136.39 404.24C136.743 405.12 136.913 406.062 136.89 407.01C136.904 407.96 136.734 408.904 136.39 409.79Z" fill="black"/>
<path opacity="0.1" d="M152.41 409.79C151.748 407.999 151.748 406.03 152.41 404.24C153.072 406.03 153.072 407.999 152.41 409.79Z" fill="black"/>
</g>
<path opacity="0.1" d="M162.21 403.61V405.08L130.85 406.07V403.61H162.21Z" fill="black"/>
<path d="M128.24 400.16C148.88 403.87 143.42 434.44 122.75 430.73C102.08 427.02 107.56 396.45 128.24 400.16Z" fill="#FFC727"/>
<path opacity="0.1" d="M128.24 400.16C148.88 403.87 143.42 434.44 122.75 430.73C102.08 427.02 107.56 396.45 128.24 400.16Z" fill="black"/>
<path d="M126.3 399.81C145.97 403.34 140.52 433.92 120.81 430.38C101.1 426.84 106.6 396.28 126.3 399.81Z" fill="#FFC727"/>
<path opacity="0.1" d="M111.08 415.82C111.19 421.27 114.36 426.54 121.28 427.82C137.63 430.75 142.16 405.37 125.83 402.44L125.51 402.39C140.82 405.46 136.43 429.47 120.84 426.67C118.197 426.297 115.77 425.006 113.985 423.021C112.2 421.037 111.171 418.487 111.08 415.82Z" fill="black"/>
<g opacity="0.1">
<path opacity="0.1" d="M125.26 405.58C125.391 405.617 125.502 405.704 125.571 405.821C125.64 405.938 125.661 406.078 125.63 406.21L125.42 407.05C126.759 407.492 127.934 408.329 128.79 409.45C128.863 409.522 128.918 409.61 128.949 409.708C128.981 409.805 128.988 409.909 128.97 410.01C128.928 410.15 128.834 410.268 128.708 410.34C128.581 410.413 128.432 410.434 128.29 410.4C128.219 410.384 128.153 410.353 128.094 410.31C128.036 410.267 127.987 410.213 127.95 410.15C127.241 409.179 126.265 408.435 125.14 408.01L123.68 413.88C126.68 415.35 127.74 416.88 127.23 418.93C126.67 421.16 124.41 422.26 121.77 421.69L121.36 423.33C121.352 423.404 121.328 423.475 121.29 423.538C121.252 423.602 121.201 423.657 121.14 423.699C121.079 423.741 121.01 423.77 120.937 423.784C120.864 423.797 120.789 423.794 120.717 423.777C120.645 423.759 120.578 423.725 120.52 423.679C120.462 423.633 120.414 423.575 120.381 423.509C120.347 423.443 120.327 423.371 120.324 423.297C120.32 423.223 120.333 423.149 120.36 423.08L120.77 421.42C119.046 420.853 117.563 419.722 116.56 418.21C116.5 418.143 116.458 418.062 116.437 417.975C116.416 417.888 116.417 417.797 116.44 417.71C116.478 417.574 116.566 417.458 116.687 417.385C116.808 417.313 116.952 417.289 117.09 417.32C117.161 417.333 117.228 417.361 117.287 417.402C117.345 417.444 117.394 417.497 117.43 417.56C118.267 418.921 119.544 419.955 121.05 420.49L122.54 414.49C119.54 413.01 118.54 411.49 119.08 409.44C119.62 407.39 121.85 406.16 124.43 406.74L124.63 405.94C124.67 405.811 124.757 405.702 124.874 405.635C124.991 405.568 125.129 405.549 125.26 405.58ZM122.81 413.44L124.23 407.71C122.23 407.25 120.54 408.13 120.17 409.64C119.8 411.15 120.26 412.11 122.81 413.44ZM123.41 414.95L122 420.74C124.1 421.22 125.77 420.34 126.17 418.74C126.57 417.14 126 416.24 123.41 415V414.95Z" fill="black"/>
</g>
</svg>
