<svg width="254" height="320" viewBox="0 0 254 320" fill="none" xmlns="http://www.w3.org/2000/svg">
<path d="M253.624 83.1065C253.624 83.1065 235.25 231.428 204.626 264.808C168.082 304.823 141.575 298.835 126.808 319.625C112.074 298.937 85.5335 304.823 48.955 264.774C18.3312 231.394 0.0249023 83.0724 0.0249023 83.0724C80.2594 44.1461 126.808 0.490112 126.808 0.490112C128.237 1.8852 174.615 44.7926 253.624 83.1065Z" fill="#FFC727"/>
<path opacity="0.2" d="M126.808 0.55818V319.625C112.074 298.937 85.5335 304.823 48.955 264.774C18.3312 231.394 0.0249023 83.0724 0.0249023 83.0724C80.2594 44.1461 126.808 0.490112 126.808 0.490112V0.55818Z" fill="black"/>
<path opacity="0.1" d="M253.625 83.1067C253.625 83.1067 235.251 231.428 204.627 264.808C168.082 304.823 141.576 298.835 126.808 319.625V0.55835C128.237 1.88538 174.615 44.7928 253.625 83.1067Z" fill="black"/>
<path d="M233.923 95.05C233.923 95.05 218.237 220.37 192.581 248.544C161.685 282.57 139.261 277.432 126.774 294.888C114.32 277.432 91.8964 282.434 61.0004 248.544C35.2763 220.336 19.6582 95.05 19.6582 95.05C87.439 62.1464 126.774 25.2957 126.774 25.2957C126.774 25.2957 166.176 62.1464 233.923 95.05Z" fill="#FFC727"/>
<path d="M158.928 142.313H94.6523V200.634H158.928V142.313Z" fill="white"/>
<path d="M152.498 160.279H145.965V134.248C145.757 129.303 143.646 124.629 140.073 121.204C136.5 117.778 131.741 115.865 126.791 115.865C121.842 115.865 117.083 117.778 113.51 121.204C109.937 124.629 107.826 129.303 107.618 134.248V160.279H101.084V134.248C101.327 127.592 104.141 121.29 108.936 116.666C113.73 112.043 120.131 109.46 126.791 109.46C133.452 109.46 139.853 112.043 144.647 116.666C149.442 121.29 152.256 127.592 152.498 134.248V160.279Z" fill="white"/>
<path d="M129.53 172.188L132.219 184.948H120.786L123.474 172.188C122.421 171.53 121.611 170.548 121.166 169.389C120.721 168.23 120.665 166.958 121.007 165.764C121.349 164.571 122.07 163.521 123.062 162.774C124.053 162.027 125.261 161.623 126.502 161.623C127.743 161.623 128.951 162.027 129.943 162.774C130.934 163.521 131.655 164.571 131.997 165.764C132.339 166.958 132.284 168.23 131.839 169.389C131.394 170.548 130.583 171.53 129.53 172.188Z" fill="#37474F"/>
</svg>
