<svg width="500" height="500" viewBox="0 0 500 500" fill="none" xmlns="http://www.w3.org/2000/svg">
<path d="M262.32 120.67H211.01V54.7998H249.11L262.32 67.3498V120.67Z" fill="#EBEBEB"/>
<path d="M249.11 54.7998L262.32 67.3498H249.11V54.7998Z" fill="#DBDBDB"/>
<path d="M216.02 67.5498H244.55V65.8598H216.02V67.5498Z" fill="#DBDBDB"/>
<path d="M216.02 71.8198H244.55V70.1298H216.02V71.8198Z" fill="#DBDBDB"/>
<path d="M216.02 76.0898H244.55V74.3998H216.02V76.0898Z" fill="#DBDBDB"/>
<path d="M216.02 80.3599H257.82V78.6699H216.02V80.3599Z" fill="#DBDBDB"/>
<path d="M216.02 84.6299H257.82V82.9399H216.02V84.6299Z" fill="#DBDBDB"/>
<path d="M216.02 88.8896H257.82V87.1996H216.02V88.8896Z" fill="#DBDBDB"/>
<path d="M216.02 93.1597H257.82V91.4697H216.02V93.1597Z" fill="#DBDBDB"/>
<path d="M216.02 97.4297H257.82V95.7397H216.02V97.4297Z" fill="#DBDBDB"/>
<path d="M216.02 101.7H257.82V100.01H216.02V101.7Z" fill="#DBDBDB"/>
<path d="M216.02 105.97H257.82V104.28H216.02V105.97Z" fill="#DBDBDB"/>
<path d="M216.02 110.24H257.82V108.55H216.02V110.24Z" fill="#DBDBDB"/>
<path d="M216.02 114.51H257.82V112.82H216.02V114.51Z" fill="#DBDBDB"/>
<path d="M265.789 126.669C270.377 124.757 272.546 119.487 270.633 114.899C268.721 110.311 263.451 108.142 258.863 110.055C254.275 111.968 252.106 117.237 254.019 121.825C255.932 126.413 261.201 128.582 265.789 126.669Z" fill="#C7C7C7"/>
<path d="M266.78 116.08H257.86V124.18H266.78V116.08Z" fill="white"/>
<path d="M265.89 118.58H265V115C265.022 114.636 264.97 114.272 264.846 113.929C264.722 113.586 264.53 113.272 264.28 113.007C264.03 112.742 263.729 112.53 263.394 112.386C263.06 112.241 262.699 112.166 262.335 112.166C261.971 112.166 261.61 112.241 261.276 112.386C260.941 112.53 260.64 112.742 260.39 113.007C260.14 113.272 259.948 113.586 259.824 113.929C259.7 114.272 259.648 114.636 259.67 115V118.61H258.76V115C258.76 114.053 259.136 113.145 259.806 112.475C260.475 111.806 261.383 111.43 262.33 111.43C263.277 111.43 264.185 111.806 264.854 112.475C265.524 113.145 265.9 114.053 265.9 115L265.89 118.58Z" fill="white"/>
<path d="M262.7 120.23L263.07 122H261.49L261.86 120.23C261.747 120.158 261.654 120.059 261.59 119.942C261.525 119.825 261.491 119.694 261.49 119.56C261.49 119.35 261.573 119.15 261.721 119.001C261.87 118.853 262.07 118.77 262.28 118.77C262.49 118.77 262.69 118.853 262.839 119.001C262.987 119.15 263.07 119.35 263.07 119.56C263.069 119.694 263.035 119.825 262.97 119.942C262.906 120.059 262.813 120.158 262.7 120.23Z" fill="#C7C7C7"/>
<path d="M329.1 147.48L329.23 198.73C329.233 199.412 329.101 200.087 328.843 200.718C328.584 201.348 328.204 201.922 327.724 202.406C327.244 202.89 326.673 203.274 326.045 203.537C325.416 203.801 324.742 203.937 324.06 203.94L242.78 204.15C242.098 204.151 241.423 204.018 240.793 203.759C240.163 203.499 239.59 203.118 239.107 202.637C238.624 202.156 238.241 201.585 237.979 200.955C237.717 200.326 237.581 199.652 237.58 198.97L237.45 147.72C237.447 147.086 237.57 146.458 237.81 145.872C238.051 145.285 238.404 144.752 238.851 144.302C239.298 143.853 239.829 143.496 240.414 143.252C240.999 143.008 241.626 142.881 242.26 142.88L324.26 142.67C324.894 142.667 325.522 142.79 326.108 143.03C326.695 143.271 327.228 143.624 327.678 144.071C328.127 144.518 328.484 145.049 328.728 145.634C328.972 146.219 329.099 146.846 329.1 147.48Z" fill="#EBEBEB"/>
<path d="M316 191.55C316.002 192.493 315.724 193.416 315.202 194.201C314.679 194.987 313.935 195.6 313.065 195.963C312.194 196.325 311.235 196.422 310.309 196.24C309.384 196.058 308.533 195.605 307.864 194.94C307.196 194.274 306.74 193.425 306.554 192.5C306.368 191.575 306.46 190.616 306.819 189.743C307.178 188.871 307.788 188.125 308.572 187.599C309.355 187.073 310.277 186.792 311.22 186.79C311.846 186.788 312.467 186.91 313.046 187.149C313.625 187.387 314.152 187.738 314.596 188.18C315.04 188.622 315.392 189.147 315.633 189.725C315.874 190.303 315.999 190.923 316 191.55Z" fill="#DBDBDB"/>
<path d="M321.88 191.53C321.882 192.473 321.604 193.395 321.082 194.18C320.56 194.966 319.817 195.579 318.947 195.942C318.077 196.305 317.118 196.402 316.193 196.221C315.268 196.039 314.417 195.588 313.748 194.923C313.079 194.258 312.622 193.41 312.435 192.486C312.248 191.562 312.339 190.603 312.697 189.73C313.054 188.858 313.662 188.111 314.444 187.584C315.226 187.057 316.147 186.774 317.09 186.77C317.717 186.767 318.339 186.888 318.919 187.126C319.5 187.364 320.027 187.714 320.472 188.156C320.917 188.598 321.271 189.124 321.512 189.703C321.754 190.281 321.879 190.902 321.88 191.53Z" fill="#FFC727"/>
<path d="M258.156 151.633L249.356 151.656C247.037 151.663 245.161 153.548 245.167 155.867L245.176 159.357C245.182 161.677 247.068 163.553 249.387 163.546L258.187 163.523C260.507 163.517 262.382 161.632 262.376 159.312L262.367 155.822C262.361 153.503 260.476 151.627 258.156 151.633Z" fill="#FFC727"/>
<path d="M318.53 158H310.75C310.321 158.001 309.896 157.918 309.499 157.754C309.103 157.591 308.742 157.351 308.438 157.048C308.135 156.745 307.894 156.386 307.729 155.989C307.565 155.593 307.48 155.169 307.48 154.74C307.479 154.312 307.562 153.888 307.725 153.493C307.887 153.097 308.126 152.738 308.428 152.435C308.73 152.132 309.089 151.892 309.484 151.728C309.879 151.564 310.302 151.48 310.73 151.48H318.51C318.938 151.477 319.363 151.559 319.76 151.721C320.156 151.883 320.517 152.122 320.821 152.424C321.125 152.726 321.366 153.086 321.531 153.481C321.695 153.877 321.78 154.301 321.78 154.73C321.781 155.158 321.698 155.582 321.536 155.978C321.373 156.374 321.134 156.734 320.832 157.038C320.53 157.341 320.172 157.583 319.777 157.748C319.382 157.913 318.958 157.998 318.53 158Z" fill="white"/>
<path d="M288.77 187.323L245.25 187.437L245.255 189.577L288.775 189.463L288.77 187.323Z" fill="#DBDBDB"/>
<path d="M276.082 192.117L245.272 192.197L245.278 194.337L276.088 194.257L276.082 192.117Z" fill="#DBDBDB"/>
<path d="M304.486 151.512L282.776 151.569L282.781 153.709L304.491 153.652L304.486 151.512Z" fill="#DBDBDB"/>
<path d="M247.18 175.94H246.88V179.19H247.18V175.94Z" fill="#C7C7C7"/>
<path d="M248.65 177.42H245.4V177.72H248.65V177.42Z" fill="#C7C7C7"/>
<path d="M248.074 176.306L245.769 178.611L245.981 178.823L248.286 176.518L248.074 176.306Z" fill="#C7C7C7"/>
<path d="M245.991 176.316L245.779 176.528L248.084 178.833L248.296 178.621L245.991 176.316Z" fill="#C7C7C7"/>
<path d="M251.09 175.94H250.79V179.19H251.09V175.94Z" fill="#C7C7C7"/>
<path d="M252.57 177.42H249.32V177.72H252.57V177.42Z" fill="#C7C7C7"/>
<path d="M251.989 176.311L249.691 178.609L249.903 178.821L252.201 176.523L251.989 176.311Z" fill="#C7C7C7"/>
<path d="M249.895 176.304L249.683 176.516L251.981 178.814L252.193 178.602L249.895 176.304Z" fill="#C7C7C7"/>
<path d="M255.01 175.94H254.71V179.19H255.01V175.94Z" fill="#C7C7C7"/>
<path d="M256.48 177.42H253.23V177.72H256.48V177.42Z" fill="#C7C7C7"/>
<path d="M253.81 178.82L253.6 178.61L255.9 176.31L256.12 176.52L253.81 178.82Z" fill="#C7C7C7"/>
<path d="M255.9 178.82L253.6 176.52L253.81 176.31L256.12 178.61L255.9 178.82Z" fill="#C7C7C7"/>
<path d="M258.92 175.94H258.62V179.19H258.92V175.94Z" fill="#C7C7C7"/>
<path d="M260.4 177.42H257.15V177.72H260.4V177.42Z" fill="#C7C7C7"/>
<path d="M257.73 178.82L257.52 178.61L259.82 176.31L260.03 176.52L257.73 178.82Z" fill="#C7C7C7"/>
<path d="M259.82 178.82L257.52 176.52L257.73 176.31L260.03 178.61L259.82 178.82Z" fill="#C7C7C7"/>
<path d="M267.47 175.94H267.17V179.19H267.47V175.94Z" fill="#C7C7C7"/>
<path d="M268.94 177.42H265.69V177.72H268.94V177.42Z" fill="#C7C7C7"/>
<path d="M266.28 178.82L266.06 178.61L268.36 176.31L268.58 176.52L266.28 178.82Z" fill="#C7C7C7"/>
<path d="M268.36 178.82L266.06 176.52L266.28 176.31L268.58 178.61L268.36 178.82Z" fill="#C7C7C7"/>
<path d="M271.38 175.94H271.08V179.19H271.38V175.94Z" fill="#C7C7C7"/>
<path d="M272.86 177.42H269.61V177.72H272.86V177.42Z" fill="#C7C7C7"/>
<path d="M270.19 178.82L269.98 178.61L272.28 176.31L272.49 176.52L270.19 178.82Z" fill="#C7C7C7"/>
<path d="M272.28 178.82L269.98 176.52L270.19 176.31L272.49 178.61L272.28 178.82Z" fill="#C7C7C7"/>
<path d="M275.3 175.94H275V179.19H275.3V175.94Z" fill="#C7C7C7"/>
<path d="M276.77 177.42H273.52V177.72H276.77V177.42Z" fill="#C7C7C7"/>
<path d="M274.11 178.82L273.89 178.61L276.19 176.31L276.41 176.52L274.11 178.82Z" fill="#C7C7C7"/>
<path d="M276.19 178.82L273.89 176.52L274.11 176.31L276.41 178.61L276.19 178.82Z" fill="#C7C7C7"/>
<path d="M279.22 175.94H278.92V179.19H279.22V175.94Z" fill="#C7C7C7"/>
<path d="M280.69 177.42H277.44V177.72H280.69V177.42Z" fill="#C7C7C7"/>
<path d="M278.02 178.82L277.81 178.61L280.11 176.31L280.32 176.52L278.02 178.82Z" fill="#C7C7C7"/>
<path d="M280.11 178.82L277.81 176.52L278.02 176.31L280.32 178.61L280.11 178.82Z" fill="#C7C7C7"/>
<path d="M287.76 175.94H287.46V179.19H287.76V175.94Z" fill="#C7C7C7"/>
<path d="M289.24 177.42H285.99V177.72H289.24V177.42Z" fill="#C7C7C7"/>
<path d="M286.57 178.82L286.36 178.61L288.66 176.31L288.87 176.52L286.57 178.82Z" fill="#C7C7C7"/>
<path d="M288.66 178.82L286.36 176.52L286.57 176.31L288.87 178.61L288.66 178.82Z" fill="#C7C7C7"/>
<path d="M291.68 175.94H291.38V179.19H291.68V175.94Z" fill="#C7C7C7"/>
<path d="M293.15 177.42H289.9V177.72H293.15V177.42Z" fill="#C7C7C7"/>
<path d="M290.48 178.82L290.27 178.61L292.57 176.31L292.79 176.52L290.48 178.82Z" fill="#C7C7C7"/>
<path d="M292.57 178.82L290.27 176.52L290.48 176.31L292.79 178.61L292.57 178.82Z" fill="#C7C7C7"/>
<path d="M295.59 175.94H295.29V179.19H295.59V175.94Z" fill="#C7C7C7"/>
<path d="M297.07 177.42H293.82V177.72H297.07V177.42Z" fill="#C7C7C7"/>
<path d="M294.4 178.82L294.19 178.61L296.49 176.31L296.7 176.52L294.4 178.82Z" fill="#C7C7C7"/>
<path d="M296.49 178.82L294.19 176.52L294.4 176.31L296.7 178.61L296.49 178.82Z" fill="#C7C7C7"/>
<path d="M299.51 175.94H299.21V179.19H299.51V175.94Z" fill="#C7C7C7"/>
<path d="M300.98 177.42H297.73V177.72H300.98V177.42Z" fill="#C7C7C7"/>
<path d="M298.31 178.82L298.1 178.61L300.4 176.31L300.62 176.52L298.31 178.82Z" fill="#C7C7C7"/>
<path d="M300.4 178.82L298.1 176.52L298.31 176.31L300.62 178.61L300.4 178.82Z" fill="#C7C7C7"/>
<path d="M308.05 175.94H307.75V179.19H308.05V175.94Z" fill="#C7C7C7"/>
<path d="M309.53 177.42H306.28V177.72H309.53V177.42Z" fill="#C7C7C7"/>
<path d="M306.86 178.82L306.65 178.61L308.95 176.31L309.16 176.52L306.86 178.82Z" fill="#C7C7C7"/>
<path d="M308.95 178.82L306.65 176.52L306.86 176.31L309.16 178.61L308.95 178.82Z" fill="#C7C7C7"/>
<path d="M311.97 175.94H311.67V179.19H311.97V175.94Z" fill="#C7C7C7"/>
<path d="M313.44 177.42H310.19V177.72H313.44V177.42Z" fill="#C7C7C7"/>
<path d="M310.78 178.82L310.56 178.61L312.87 176.31L313.08 176.52L310.78 178.82Z" fill="#C7C7C7"/>
<path d="M312.87 178.82L310.56 176.52L310.78 176.31L313.08 178.61L312.87 178.82Z" fill="#C7C7C7"/>
<path d="M315.89 175.94H315.59V179.19H315.89V175.94Z" fill="#C7C7C7"/>
<path d="M317.36 177.42H314.11V177.72H317.36V177.42Z" fill="#C7C7C7"/>
<path d="M314.69 178.82L314.48 178.61L316.78 176.31L316.99 176.52L314.69 178.82Z" fill="#C7C7C7"/>
<path d="M316.78 178.82L314.48 176.52L314.69 176.31L316.99 178.61L316.78 178.82Z" fill="#C7C7C7"/>
<path d="M319.8 175.94H319.5V179.19H319.8V175.94Z" fill="#C7C7C7"/>
<path d="M321.27 177.42H318.02V177.72H321.27V177.42Z" fill="#C7C7C7"/>
<path d="M318.61 178.82L318.39 178.61L320.69 176.31L320.91 176.52L318.61 178.82Z" fill="#C7C7C7"/>
<path d="M320.69 178.82L318.39 176.52L318.61 176.31L320.91 178.61L320.69 178.82Z" fill="#C7C7C7"/>
<path d="M338.092 205.325C338.89 200.419 335.56 195.795 330.654 194.997C325.748 194.199 321.124 197.529 320.326 202.435C319.528 207.341 322.858 211.965 327.764 212.763C332.67 213.562 337.294 210.231 338.092 205.325Z" fill="#C7C7C7"/>
<path d="M333.69 201.62H324.77V209.72H333.69V201.62Z" fill="white"/>
<path d="M332.8 204.12H331.9V200.5C331.858 199.821 331.56 199.184 331.064 198.718C330.569 198.252 329.915 197.993 329.235 197.993C328.555 197.993 327.901 198.252 327.406 198.718C326.91 199.184 326.612 199.821 326.57 200.5V204.12H325.66V200.5C325.66 199.553 326.036 198.645 326.706 197.975C327.375 197.306 328.283 196.93 329.23 196.93C330.177 196.93 331.085 197.306 331.754 197.975C332.424 198.645 332.8 199.553 332.8 200.5V204.12Z" fill="white"/>
<path d="M329.61 205.77L329.98 207.54H328.4L328.77 205.77C328.657 205.698 328.564 205.599 328.5 205.482C328.435 205.365 328.401 205.233 328.4 205.1C328.4 204.89 328.483 204.689 328.631 204.541C328.78 204.393 328.981 204.31 329.19 204.31C329.4 204.31 329.601 204.393 329.749 204.541C329.897 204.689 329.98 204.89 329.98 205.1C329.979 205.233 329.945 205.365 329.88 205.482C329.816 205.599 329.723 205.698 329.61 205.77Z" fill="#C7C7C7"/>
<path d="M116.833 117.553L177.539 127.711L184.908 83.6738L124.202 73.5151L116.833 117.553Z" fill="#EBEBEB"/>
<path d="M119.77 115.448L175.436 124.764L181.961 85.7758L126.295 76.4605L119.77 115.448Z" fill="white"/>
<path d="M131 88.63C130.849 89.5408 130.971 90.4761 131.351 91.3176C131.731 92.159 132.352 92.869 133.135 93.3577C133.918 93.8464 134.829 94.092 135.752 94.0633C136.675 94.0346 137.568 93.733 138.32 93.1967C139.071 92.6603 139.647 91.9131 139.974 91.0497C140.301 90.1862 140.365 89.2452 140.157 88.3455C139.95 87.4459 139.48 86.6279 138.808 85.9951C138.135 85.3622 137.291 84.9429 136.38 84.79C135.158 84.5875 133.905 84.878 132.896 85.5978C131.888 86.3177 131.206 87.4081 131 88.63Z" fill="#DBDBDB"/>
<path d="M145.9 111.19L176.86 116.38L164.89 92.7998L145.9 111.19Z" fill="#DBDBDB"/>
<path d="M133.77 109.17L159.32 113.45L148.83 97.6499L133.77 109.17Z" fill="#EBEBEB"/>
<path d="M176.861 116.356L121.195 107.041L119.789 115.444L175.455 124.759L176.861 116.356Z" fill="#EBEBEB"/>
<path d="M99.4 131.47H160.95V86.8197H99.4V131.47Z" fill="#EBEBEB"/>
<path d="M101.95 128.9H158.39V89.3699H101.95V128.9Z" fill="white"/>
<path d="M108.54 100.61C108.538 101.536 108.811 102.442 109.324 103.213C109.837 103.984 110.567 104.585 111.422 104.941C112.277 105.297 113.218 105.391 114.127 105.211C115.035 105.032 115.87 104.587 116.526 103.933C117.181 103.279 117.628 102.445 117.809 101.537C117.991 100.629 117.899 99.687 117.545 98.8313C117.191 97.9756 116.591 97.2441 115.821 96.7294C115.051 96.2147 114.146 95.9399 113.22 95.9399C111.981 95.9399 110.792 96.4316 109.914 97.3071C109.037 98.1827 108.543 99.3705 108.54 100.61Z" fill="#DBDBDB"/>
<path d="M127.01 120.4H158.4L142.7 99.1196L127.01 120.4Z" fill="#DBDBDB"/>
<path d="M114.7 120.41H140.62L127.66 106.55L114.7 120.41Z" fill="#EBEBEB"/>
<path d="M158.39 120.39H101.95V128.91H158.39V120.39Z" fill="#EBEBEB"/>
<path d="M194.75 298.61H106.51V420.72H194.75V298.61Z" fill="#EBEBEB"/>
<path d="M199.03 294.08H102.24V298.61H199.03V294.08Z" fill="#DBDBDB"/>
<path d="M229.46 294.08H199.02V298.61H229.46V294.08Z" fill="#EBEBEB"/>
<path d="M224.65 298.61H194.75V420.72H224.65V298.61Z" fill="#DBDBDB"/>
<path d="M185.26 355.14H116V316H185.26V355.14ZM116.26 354.89H185V316.23H116.25L116.26 354.89Z" fill="#C7C7C7"/>
<path d="M154.45 327.43H140.97V335.18H154.45V327.43Z" fill="#C7C7C7"/>
<path d="M158.56 334.72H144.83V327.89H158.56V334.72ZM145.08 334.47H158.31V328.14H145.08V334.47Z" fill="#C7C7C7"/>
<path d="M185.26 404.3H116V365.14H185.26V404.3ZM116.26 404.05H185V365.39H116.25L116.26 404.05Z" fill="#C7C7C7"/>
<path d="M154.45 376.59H140.97V384.34H154.45V376.59Z" fill="#C7C7C7"/>
<path d="M158.56 383.88H144.83V377.05H158.56V383.88ZM145.08 383.63H158.31V377.3H145.08V383.63Z" fill="#C7C7C7"/>
<path d="M51.54 420.76L101.16 420.51L150.77 420.43L250 420.26L349.23 420.42L398.84 420.51L448.46 420.76L398.84 421L349.23 421.09L250 421.26L150.77 421.09L101.16 421L51.54 420.76Z" fill="#263238"/>
<path d="M103.3 464.64C127.755 464.64 147.58 460.835 147.58 456.14C147.58 451.446 127.755 447.64 103.3 447.64C78.8449 447.64 59.02 451.446 59.02 456.14C59.02 460.835 78.8449 464.64 103.3 464.64Z" fill="#EBEBEB"/>
<path d="M267.97 472.44C363.526 472.44 440.99 464.842 440.99 455.47C440.99 446.098 363.526 438.5 267.97 438.5C172.414 438.5 94.95 446.098 94.95 455.47C94.95 464.842 172.414 472.44 267.97 472.44Z" fill="#EBEBEB"/>
<path d="M315.63 307.45L312.72 324.93L292.97 431.56H289.79L304.15 324.93L306.27 307.45H315.63Z" fill="#C7C7C7"/>
<path d="M306.27 307.45H315.63L312.72 324.93H304.15L306.27 307.45Z" fill="#A6A6A6"/>
<path d="M377.64 431.56H374.46L354.71 324.93L351.8 307.45H361.16L363.28 324.93L377.64 431.56Z" fill="#C7C7C7"/>
<path d="M361.16 307.45L363.28 324.93H354.71L351.8 307.45H361.16Z" fill="#A6A6A6"/>
<path d="M436.87 431.56H433.68L413.94 324.93L411.02 307.45H420.38L422.51 324.93L436.87 431.56Z" fill="#C7C7C7"/>
<path d="M422.51 324.93H413.94L411.02 307.45H420.38L422.51 324.93Z" fill="#A6A6A6"/>
<path d="M431.82 315.66H287.13V300.42H341.29L369.5 142.4H446.3L431.82 315.66Z" fill="#C7C7C7"/>
<path d="M431.2 300.42H287.13V315.66H431.74L431.2 300.42Z" fill="#DBDBDB"/>
<path d="M431.82 315.66H423.93L438.79 142.4H446.3L431.82 315.66Z" fill="#DBDBDB"/>
<path d="M433.61 120.28C431.38 117.83 422.25 110.98 414.36 107.28C410.54 105.45 399 101.38 397.36 104.21C395.72 107.04 399.01 108.53 399.01 108.53C399.01 108.53 393.87 107.53 392.5 110.53C391.13 113.53 396.28 115.68 396.28 115.68C396.28 115.68 390.94 115.05 389.78 118.13C388.62 121.21 394.17 122.51 394.17 122.51C394.17 122.51 389.31 121.71 389.43 124.65C389.57 128.19 398.69 128.65 402.82 130.9C403.76 131.4 421.1 142.51 421.1 142.51L433.61 120.28Z" fill="#EB9481"/>
<path d="M394.24 122.54C400.95 122.9 403.83 124.23 409.24 128.06C409.35 128.13 409.48 127.99 409.38 127.9C404.44 123.67 401.07 121.49 394.26 122.21C393.91 122.25 393.92 122.52 394.24 122.54Z" fill="#263238"/>
<path d="M396 115.53C402.94 116.53 406.07 117.92 412 121.53C412.09 121.53 412.18 121.44 412.1 121.38C406.56 117.38 403.16 115.27 396.1 115.2C395.81 115.18 395.71 115.48 396 115.53Z" fill="#263238"/>
<path d="M399.58 108.59C406.23 110.03 409.73 111.42 415.05 115.65C415.18 115.75 415.34 115.58 415.22 115.47C410.22 110.62 405.86 108.85 399.65 108.39C399.22 108.36 399.16 108.5 399.58 108.59Z" fill="#263238"/>
<path d="M424 146.27C424 146.27 415.64 145.2 412.07 143.92C408.5 142.64 397 133 398.93 130.38C401.44 127.01 409.2 131.27 412.73 133.85C412.73 133.85 418.53 126.05 424.73 127.9C430.93 129.75 424 146.27 424 146.27Z" fill="#EB9481"/>
<path d="M399.92 129.68C404.43 128.26 408.84 131.95 412.45 134.2C412.502 134.236 412.562 134.259 412.625 134.266C412.688 134.274 412.751 134.266 412.81 134.243C412.87 134.22 412.922 134.184 412.964 134.136C413.006 134.089 413.035 134.032 413.05 133.97C415.7 130.86 420.34 127.25 424.63 127.67C424.657 127.67 424.682 127.66 424.701 127.641C424.719 127.622 424.73 127.597 424.73 127.57C424.73 127.544 424.719 127.518 424.701 127.499C424.682 127.481 424.657 127.47 424.63 127.47C420.09 126.4 415.24 129.58 412.55 133.17C408.89 130.8 404.3 127.3 399.87 129.64C399.88 129.65 399.9 129.69 399.92 129.68Z" fill="#263238"/>
<path d="M353.33 111.82C356.33 110.49 367.98 106.95 376.71 106.72C380.94 106.61 393.14 107.58 393.48 110.83C393.82 114.08 390.22 114.11 390.22 114.11C390.22 114.11 395.31 115.29 395.35 118.58C395.39 121.87 389.8 121.75 389.8 121.75C389.8 121.75 394.94 123.34 394.75 126.63C394.56 129.92 388.95 128.85 388.95 128.85C388.95 128.85 393.72 130.09 392.42 132.73C390.85 135.91 382.32 132.63 377.64 132.99C376.58 133.07 356.23 136.17 356.23 136.17L353.33 111.82Z" fill="#EB9481"/>
<path d="M388.87 128.89C382.59 126.5 379.42 126.54 372.94 127.89C372.81 127.89 372.74 127.74 372.87 127.7C379.11 125.84 383.07 125.22 389 128.65C389.29 128.76 389.17 129 388.87 128.89Z" fill="#263238"/>
<path d="M390.08 121.76C383.34 119.84 379.91 119.85 373.02 120.76C372.92 120.76 372.89 120.61 373.02 120.59C379.71 119.17 383.67 118.59 390.16 121.45C390.42 121.53 390.39 121.85 390.08 121.76Z" fill="#263238"/>
<path d="M389.66 114C383 112.61 379.24 112.46 372.66 114.16C372.645 114.165 372.629 114.167 372.613 114.167C372.597 114.166 372.581 114.162 372.567 114.155C372.552 114.148 372.54 114.138 372.529 114.126C372.518 114.114 372.51 114.1 372.505 114.085C372.5 114.07 372.497 114.054 372.498 114.038C372.499 114.022 372.503 114.006 372.51 113.992C372.517 113.978 372.527 113.965 372.539 113.954C372.551 113.943 372.565 113.935 372.58 113.93C379.13 111.54 383.82 111.69 389.69 113.79C390.08 113.91 390.08 114.06 389.66 114Z" fill="#263238"/>
<path d="M352 138.47C352 138.47 360.07 140.89 363.84 141.17C367.61 141.45 382.09 137.33 381.38 134.17C380.45 130.07 371.63 130.81 367.38 131.74C367.38 131.74 365.25 122.25 358.81 121.41C352.37 120.57 352 138.47 352 138.47Z" fill="#EB9481"/>
<path d="M380.77 133.11C377.23 129.97 371.7 131.55 367.49 132.11C367.428 132.122 367.364 132.119 367.303 132.101C367.242 132.083 367.187 132.051 367.141 132.006C367.096 131.962 367.062 131.907 367.043 131.847C367.023 131.787 367.019 131.723 367.03 131.66C365.88 127.75 363.11 122.56 359.03 121.2C358.91 121.2 358.95 120.98 359.03 121.01C363.62 121.87 366.76 126.74 367.75 131.12C372.06 130.44 377.68 129.12 380.75 133.04C380.82 133.1 380.8 133.13 380.77 133.11Z" fill="#263238"/>
<path d="M376.33 173.21C353.45 167.03 317.42 146.34 320.73 136.38C323.94 126.7 337.45 116.58 354.73 111.2C357.25 110.41 356.73 115.7 357.9 124.92C358.47 129.28 366.12 141.03 362.43 141C360.501 141.059 358.601 141.483 356.83 142.25C355.48 142.77 371.71 153.61 380.78 160.41C393 169.53 386.1 175.84 376.33 173.21Z" fill="#EB9481"/>
<path d="M343.3 166.19L368.66 150.31C368.66 150.31 383.89 159.57 387.66 164.7C391.43 169.83 388.46 175.38 376.66 175.39C363.09 175.4 343.3 166.19 343.3 166.19Z" fill="#FFC727"/>
<g opacity="0.1">
<path opacity="0.1" d="M375.15 154.49H362L364.34 153.03H372.96L375.15 154.49Z" fill="black"/>
<path opacity="0.1" d="M381.84 159.29H354.32L356.65 157.83H379.91L381.84 159.29Z" fill="black"/>
<path opacity="0.1" d="M387.15 164.08H346.67L349 162.62H385.76C386.29 163.13 386.76 163.62 387.15 164.08Z" fill="black"/>
<path opacity="0.1" d="M389.18 168.88H349.7C348.31 168.34 347.09 167.88 346.1 167.42H389C389.132 167.896 389.192 168.388 389.18 168.88Z" fill="black"/>
<path opacity="0.1" d="M387.74 172.22C387.158 172.81 386.482 173.3 385.74 173.67H364.5C362.72 173.23 360.96 172.74 359.25 172.22H387.74Z" fill="black"/>
</g>
<path d="M350 168.14C360.21 161.9 370.32 154.86 372 153.49C372.07 153.43 372 153.32 371.9 153.36C364.28 157.798 356.933 162.691 349.9 168.01C349.883 168.023 349.871 168.043 349.869 168.065C349.866 168.086 349.872 168.108 349.885 168.125C349.898 168.142 349.918 168.154 349.939 168.156C349.961 168.159 349.983 168.153 350 168.14Z" fill="#263238"/>
<path d="M376.64 175.39C371.657 175.232 366.716 174.428 361.94 173C368.57 168.55 376.45 163.3 382.22 159.59C384.23 161.068 386.053 162.784 387.65 164.7C391.41 169.82 388.45 175.38 376.64 175.39Z" fill="#263238"/>
<path d="M292.73 451.88C295.55 452.15 372.16 433.88 374.57 431.42C374.87 431.14 373.36 424.18 371.15 414.68V414.49C369.76 408.49 347.45 359.79 347.45 359.79L297.79 373.63L320.35 418.8C320.35 418.8 311 425.55 303 432C298.05 435.94 293.78 439.47 292.88 440.62C290.47 443.59 289.93 451.63 292.73 451.88Z" fill="#EB9481"/>
<path d="M292.74 451.87C295.54 452.14 372.15 433.87 374.58 431.42C374.87 431.14 373.36 424.18 371.15 414.68V414.5C370.65 412.26 367.21 404.07 363.15 394.7C354.98 396.89 325.68 404.81 315.04 408.1L320.39 418.81C320.39 418.81 311 425.56 303 432C298.05 435.93 293.78 439.47 292.88 440.61C290.47 443.59 289.92 451.64 292.74 451.87Z" fill="#EBEBEB"/>
<path d="M292.48 452.24C295.38 452.49 372.04 434.04 374.48 431.49C375.42 430.49 373.73 418.43 369.53 405.61L320.12 417.61C320.12 417.61 294.89 437.61 292.47 440.67C290.05 443.73 289.59 452 292.48 452.24Z" fill="#FFC727"/>
<path d="M292.84 448.91C305.62 445.5 357.47 432.91 370.35 430.56C370.46 430.56 370.48 430.61 370.35 430.64C357.77 434.29 305.82 446.42 292.87 449.12C292.62 449.18 292.57 449 292.84 448.91Z" fill="#263238"/>
<path d="M296.77 436.69C298.19 436.308 299.675 436.224 301.129 436.445C302.584 436.665 303.977 437.185 305.22 437.97C307.461 439.372 309.079 441.581 309.74 444.14C309.74 444.22 309.62 444.26 309.59 444.14C308.539 441.701 306.726 439.668 304.421 438.346C302.117 437.024 299.446 436.486 296.81 436.81C296.798 436.806 296.788 436.8 296.779 436.791C296.771 436.782 296.764 436.772 296.761 436.76C296.757 436.749 296.756 436.736 296.757 436.724C296.759 436.712 296.763 436.701 296.77 436.69Z" fill="#263238"/>
<path d="M316.44 419.82C321.57 418.51 327.97 418.89 332.18 422.33C332.34 422.47 332.18 422.69 331.98 422.65C326.912 421.378 321.723 420.65 316.5 420.48C316.424 420.47 316.353 420.434 316.3 420.378C316.247 420.323 316.214 420.251 316.207 420.174C316.2 420.098 316.219 420.021 316.262 419.957C316.304 419.892 316.367 419.844 316.44 419.82Z" fill="#263238"/>
<path d="M312.84 422.33C317.97 421.02 324.37 421.4 328.58 424.84C328.74 424.97 328.58 425.2 328.38 425.16C323.315 423.892 318.129 423.168 312.91 423C312.866 423.005 312.821 423.001 312.779 422.988C312.737 422.975 312.697 422.955 312.663 422.927C312.628 422.899 312.6 422.864 312.579 422.826C312.558 422.787 312.545 422.744 312.54 422.7C312.535 422.656 312.539 422.612 312.552 422.569C312.565 422.527 312.585 422.487 312.613 422.453C312.641 422.419 312.675 422.39 312.714 422.369C312.753 422.348 312.796 422.335 312.84 422.33Z" fill="#263238"/>
<path d="M309.24 424.83C314.37 423.52 320.77 423.9 324.98 427.34C325.14 427.47 324.98 427.7 324.78 427.66C319.716 426.384 314.53 425.656 309.31 425.49C309.233 425.481 309.162 425.447 309.107 425.392C309.053 425.337 309.019 425.265 309.01 425.188C309.002 425.111 309.021 425.034 309.062 424.969C309.104 424.904 309.167 424.855 309.24 424.83Z" fill="#263238"/>
<path d="M305.65 427.34C310.77 426.03 317.17 426.41 321.38 429.84C321.54 429.98 321.38 430.21 321.18 430.17C316.115 428.899 310.929 428.171 305.71 428C305.622 428.008 305.535 427.981 305.468 427.925C305.4 427.869 305.358 427.788 305.35 427.7C305.342 427.613 305.369 427.526 305.425 427.458C305.482 427.391 305.562 427.348 305.65 427.34Z" fill="#263238"/>
<path d="M364.14 419.14C369.92 417.77 372.06 426.74 366.28 428.14C360.5 429.54 358.36 420.51 364.14 419.14Z" fill="#263238"/>
<path d="M309.8 414.88C313.44 417.79 318.21 419.03 322.48 420.68C322.578 420.709 322.681 420.714 322.782 420.694C322.882 420.675 322.976 420.633 323.057 420.571C323.138 420.508 323.203 420.428 323.247 420.336C323.291 420.244 323.312 420.142 323.31 420.04C323.331 420.04 323.352 420.035 323.371 420.025C323.39 420.015 323.406 420 323.418 419.983C323.43 419.965 323.437 419.944 323.439 419.923C323.441 419.902 323.438 419.88 323.43 419.86C321.919 415.24 319.214 411.1 315.59 407.86C313.45 406 309.66 404.68 307.59 407.47C305.61 410.07 307.68 413.18 309.8 414.88ZM308.54 410.67C307.7 404.95 313.79 408.04 315.31 409.47C316.283 410.408 317.192 411.41 318.03 412.47C319.721 414.697 321.3 417.006 322.76 419.39C320.71 418.45 318.6 417.69 316.52 416.83C314 415.82 309 413.83 308.54 410.67Z" fill="#263238"/>
<path d="M340.91 412.18C339.7 408.92 335.69 409.11 333.11 410.29C328.714 412.383 324.947 415.598 322.19 419.61C322.178 419.628 322.17 419.648 322.168 419.669C322.165 419.691 322.167 419.712 322.173 419.732C322.18 419.753 322.191 419.771 322.206 419.786C322.221 419.802 322.24 419.813 322.26 419.82C322.229 419.917 322.22 420.02 322.236 420.12C322.252 420.221 322.291 420.317 322.35 420.399C322.41 420.482 322.488 420.55 322.578 420.597C322.668 420.644 322.768 420.669 322.87 420.67C327.43 420.29 332.36 420.45 336.67 418.67C339.19 417.65 342.06 415.26 340.91 412.18ZM329.67 418.68C327.43 418.92 325.19 419.05 322.96 419.37C325.035 417.495 327.205 415.726 329.46 414.07C330.559 413.275 331.715 412.563 332.92 411.94C334.78 411 341.49 409.76 339.07 415.01C337.74 417.9 332.34 418.39 329.67 418.68Z" fill="#263238"/>
<path d="M315.92 412.92L368.65 398.8C368.65 398.8 322.31 302.71 326.05 297.42C327.92 294.78 377.34 292.55 392.67 278.74C412.58 260.81 398.09 234.74 398.09 234.74H342.83C342.83 234.74 343.83 246.27 341.73 248.07C340.35 249.27 274.73 256.76 268.16 279.18C260.11 306.67 315.92 412.92 315.92 412.92Z" fill="#263238"/>
<path d="M315 405.19C316.399 404.541 317.843 403.993 319.32 403.55C320.85 403.02 322.39 402.49 323.92 401.98C326.92 400.98 330 400.04 333.06 399.16C339.23 397.38 345.4 395.64 351.62 394.02C354.86 393.18 361.79 391.35 362.23 391.41C362.43 391.41 362.48 391.79 362.3 391.86C356.3 394.04 350.2 395.91 344.11 397.81C338.02 399.71 331.93 401.56 325.76 403.15C324.05 403.59 322.33 403.99 320.62 404.41C318.831 404.939 317.006 405.34 315.16 405.61C315 405.62 314.8 405.28 315 405.19Z" fill="#455A64"/>
<path d="M316.47 293.12C317.56 292.12 319.22 291.98 320.6 291.7L344.39 287C351.81 285.53 359.28 284.19 366.66 282.53C372.77 281.16 378.97 279.38 384.19 275.88C389.298 272.442 393 267.281 394.62 261.34C396.31 255.43 396.25 249.13 395.49 243.08C395.3 241.6 394.98 240.13 394.66 238.67C394.66 238.56 394.82 238.52 394.84 238.67C397.2 249.93 397.77 263.07 389.56 272.34C385.56 276.86 379.95 279.62 374.21 281.46C367.72 283.55 360.92 284.65 354.21 285.97L330.42 290.67C326.6 291.42 322.72 292.04 318.94 292.95C318.172 293.072 317.458 293.42 316.89 293.95C316.626 294.359 316.466 294.825 316.422 295.309C316.378 295.794 316.453 296.281 316.64 296.73C317.08 298.59 317.64 300.44 318.23 302.26C323.03 317 356.65 386.79 357.56 388.4C357.66 388.57 357.39 388.71 357.29 388.54C349.59 375.72 324.53 321.84 319.29 307.92C317.913 304.358 316.767 300.71 315.86 297C315.54 295.66 315.34 294.16 316.47 293.12Z" fill="#455A64"/>
<path d="M157.79 453.8C160.41 454.85 239.06 458.87 242.08 457.16C242.44 456.98 242.95 449.87 243.49 440.16L243.89 430.98C244.03 427.88 284.52 382.75 284.52 382.75L228.07 379.34L193.55 429.83C193.55 429.83 182.68 433.68 173.19 437.58C167.31 440 162.23 442.15 161 443C158 445.21 155.16 452.78 157.79 453.8Z" fill="#EB9481"/>
<path d="M254.21 417.41C248.33 424.41 243.94 429.94 243.9 430.96L243.49 440.14C242.95 449.87 242.44 456.98 242.08 457.14C239.08 458.85 160.41 454.83 157.78 453.79C155.15 452.75 157.94 445.19 161.04 442.98C162.23 442.14 167.32 439.98 173.17 437.55C182.65 433.66 193.52 429.81 193.52 429.81L203.52 415.23L254.21 417.41Z" fill="#EBEBEB"/>
<path d="M157.44 454.08C160.15 455.14 238.91 458.96 242.01 457.21C243.19 456.55 245.01 444.47 244.53 430.99L193.75 428.58C193.75 428.58 163.92 440.66 160.75 442.94C157.58 445.22 154.74 453 157.44 454.08Z" fill="#FFC727"/>
<path d="M158.73 451C171.95 451.31 225.23 453.84 238.27 455.16C238.38 455.16 238.38 455.24 238.27 455.24C225.16 455.24 171.9 452.24 158.72 451.24C158.44 451.18 158.45 451 158.73 451Z" fill="#263238"/>
<path d="M165.93 440.36C167.402 440.392 168.85 440.729 170.185 441.35C171.519 441.972 172.709 442.864 173.68 443.97C175.441 445.943 176.372 448.518 176.28 451.16C176.28 451.24 176.13 451.23 176.12 451.16C175.799 448.525 174.632 446.065 172.795 444.149C170.958 442.232 168.549 440.963 165.93 440.53C165.907 440.53 165.886 440.521 165.87 440.505C165.854 440.49 165.845 440.468 165.845 440.445C165.845 440.423 165.854 440.401 165.87 440.385C165.886 440.369 165.907 440.36 165.93 440.36Z" fill="#263238"/>
<path d="M189.55 429.7C194.83 429.88 200.87 432.05 203.94 436.53C204.06 436.7 203.81 436.87 203.66 436.78C199.156 434.135 194.382 431.98 189.42 430.35C189.35 430.319 189.292 430.264 189.257 430.196C189.222 430.127 189.211 430.049 189.226 429.973C189.241 429.898 189.281 429.83 189.34 429.78C189.399 429.73 189.473 429.702 189.55 429.7Z" fill="#263238"/>
<path d="M185.39 431.09C190.68 431.28 196.71 433.44 199.79 437.92C199.9 438.09 199.66 438.26 199.5 438.17C195 435.526 190.229 433.37 185.27 431.74C185.184 431.725 185.107 431.675 185.058 431.603C185.008 431.531 184.989 431.442 185.005 431.355C185.021 431.269 185.07 431.193 185.143 431.143C185.215 431.094 185.304 431.075 185.39 431.09Z" fill="#263238"/>
<path d="M181.23 432.49C186.52 432.67 192.56 434.83 195.63 439.31C195.75 439.49 195.5 439.65 195.35 439.57C190.848 436.918 186.074 434.759 181.11 433.13C181.036 433.104 180.975 433.052 180.936 432.984C180.897 432.916 180.884 432.836 180.899 432.759C180.913 432.683 180.954 432.613 181.015 432.564C181.076 432.515 181.152 432.489 181.23 432.49Z" fill="#263238"/>
<path d="M177.07 433.88C182.36 434.06 188.4 436.22 191.47 440.71C191.59 440.88 191.34 441.05 191.19 440.96C186.702 438.316 181.945 436.157 177 434.52C176.929 434.496 176.869 434.448 176.829 434.385C176.788 434.322 176.771 434.247 176.779 434.172C176.787 434.098 176.82 434.028 176.873 433.975C176.926 433.922 176.996 433.889 177.07 433.88Z" fill="#263238"/>
<path d="M235.52 442.45C241.45 442.75 240.98 451.97 235.04 451.66C229.1 451.35 229.58 442.14 235.52 442.45Z" fill="#263238"/>
<path d="M184.56 423.09C187.24 426.91 191.47 429.43 195.11 432.22C195.197 432.28 195.296 432.318 195.401 432.33C195.505 432.343 195.611 432.33 195.71 432.292C195.808 432.255 195.896 432.194 195.966 432.116C196.035 432.037 196.085 431.942 196.11 431.84C196.131 431.845 196.152 431.844 196.173 431.839C196.193 431.835 196.213 431.825 196.229 431.811C196.245 431.798 196.258 431.781 196.267 431.762C196.276 431.742 196.28 431.721 196.28 431.7C196.11 426.846 194.669 422.122 192.1 418C190.57 415.62 187.3 413.28 184.52 415.37C181.74 417.46 183 420.86 184.56 423.09ZM184.56 418.7C185.37 412.98 190.34 417.64 191.4 419.45C192.071 420.625 192.659 421.844 193.16 423.1C194.161 425.721 195.028 428.391 195.76 431.1C194.06 429.62 192.24 428.3 190.49 426.89C188.37 425.18 184.09 421.85 184.53 418.7H184.56Z" fill="#263238"/>
<path d="M215.18 429.24C214.93 425.77 211.03 424.83 208.18 425.24C203.374 426.019 198.856 428.047 195.08 431.12C195.063 431.133 195.05 431.15 195.041 431.169C195.031 431.188 195.027 431.209 195.027 431.23C195.027 431.251 195.031 431.272 195.041 431.291C195.05 431.31 195.063 431.327 195.08 431.34C195.018 431.424 194.977 431.522 194.961 431.625C194.946 431.729 194.955 431.834 194.99 431.933C195.024 432.031 195.083 432.12 195.159 432.191C195.236 432.262 195.329 432.313 195.43 432.34C199.92 433.27 204.6 434.81 209.23 434.34C212 434 215.41 432.52 215.18 429.24ZM202.57 432.32C200.35 431.92 198.16 431.41 195.93 431.1C198.45 429.881 201.03 428.789 203.66 427.83C204.937 427.384 206.244 427.026 207.57 426.76C209.63 426.38 216.42 427.08 212.62 431.44C210.53 433.84 205.21 432.8 202.57 432.32Z" fill="#263238"/>
<path d="M191.14 419.25L254.21 427C254.21 427 316.58 352.38 321.62 347.41C337.24 332.01 393.24 305.41 409.95 280.71C424.95 258.5 409.76 234.77 409.76 234.77H348.18C349.759 241.33 351.859 247.754 354.46 253.98C354.46 253.98 303.31 292.49 276.05 319.98C258.48 337.71 191.14 419.25 191.14 419.25Z" fill="#263238"/>
<path d="M343.51 250C345.309 250.346 347.073 250.855 348.78 251.52C350.56 252.14 352.32 252.86 354.05 253.63C357.439 255.189 360.741 256.931 363.94 258.85C364.04 258.91 363.94 259.05 363.85 259C360.47 257.37 356.99 255.92 353.5 254.53L348.5 252.53C346.768 251.929 345.069 251.238 343.41 250.46C343.16 250.4 343.27 250 343.51 250Z" fill="#455A64"/>
<path d="M346.75 234.75C347.54 237.54 348.24 240.35 349.12 243.11C349.53 244.37 349.93 245.66 350.45 246.89C350.89 247.89 351.54 249.09 352.76 249.29C354.16 249.52 354.53 248.29 354.38 247.17C354.169 245.883 353.892 244.608 353.55 243.35C353.22 241.9 351.55 234.86 351.55 234.82C351.55 234.78 351.55 234.69 351.62 234.61C351.636 234.595 351.658 234.587 351.68 234.587C351.702 234.587 351.723 234.595 351.74 234.61C352.01 234.75 353.74 240.16 354.1 241.5C354.46 242.84 354.85 244.19 355.22 245.5C355.601 246.49 355.728 247.559 355.59 248.61C355.476 249.11 355.205 249.561 354.816 249.895C354.427 250.23 353.941 250.432 353.43 250.47C353.48 250.56 353.54 250.64 353.59 250.74C353.72 251.01 353.82 251.3 353.93 251.58C354.04 251.86 354.15 252.16 354.25 252.45C354.289 252.591 354.32 252.735 354.34 252.88C354.34 253.05 354.34 253.21 354.34 253.37C354.362 253.427 354.361 253.491 354.337 253.547C354.313 253.603 354.267 253.647 354.21 253.67C354.153 253.693 354.089 253.691 354.033 253.667C353.977 253.643 353.932 253.597 353.91 253.54C353.83 253.4 353.72 253.29 353.63 253.15C353.544 253.004 353.474 252.85 353.42 252.69C353.32 252.41 353.23 252.13 353.15 251.85C353.07 251.57 352.97 251.28 352.91 251C352.877 250.828 352.853 250.654 352.84 250.48C352.251 250.444 351.684 250.247 351.2 249.91C350.391 249.256 349.784 248.386 349.45 247.4C348.99 246.24 348.63 245.04 348.26 243.85C347.313 240.916 346.627 237.904 346.21 234.85C346.197 234.778 346.212 234.704 346.254 234.644C346.295 234.584 346.358 234.543 346.43 234.53C346.502 234.517 346.575 234.532 346.635 234.574C346.695 234.615 346.737 234.678 346.75 234.75Z" fill="#455A64"/>
<path d="M383.54 240.54C383.84 241.92 384.04 243.32 384.4 244.7C384.76 246.08 385.16 247.38 385.65 248.7C386.082 249.971 386.695 251.173 387.47 252.27C388.269 253.303 389.216 254.213 390.28 254.97C392.309 256.484 394.572 257.657 396.98 258.44C398.19 258.853 399.426 259.187 400.68 259.44C401.33 259.56 401.98 259.66 402.68 259.72C403.222 259.725 403.759 259.833 404.26 260.04C404.308 260.068 404.347 260.109 404.375 260.157C404.402 260.205 404.416 260.26 404.416 260.315C404.416 260.37 404.402 260.425 404.375 260.473C404.347 260.521 404.308 260.562 404.26 260.59C403.322 260.9 402.319 260.962 401.35 260.77C398.147 260.542 395.037 259.595 392.25 258C390.371 257.006 388.679 255.693 387.25 254.12C385.89 252.463 384.929 250.517 384.44 248.43C383.719 245.889 383.352 243.261 383.35 240.62C383.357 240.602 383.367 240.585 383.38 240.571C383.393 240.557 383.41 240.546 383.427 240.538C383.445 240.531 383.464 240.527 383.484 240.527C383.503 240.528 383.522 240.532 383.54 240.54Z" fill="#455A64"/>
<path d="M205 410C206.703 409.957 208.406 410.023 210.1 410.2C211.89 410.32 213.67 410.43 215.45 410.57C218.96 410.86 222.45 411.18 225.95 411.57C232.95 412.37 240.03 413.2 247.04 414.17C250.7 414.68 258.55 415.73 258.97 415.96C259.012 415.988 259.045 416.029 259.062 416.076C259.08 416.123 259.083 416.175 259.069 416.224C259.056 416.272 259.028 416.316 258.988 416.348C258.949 416.379 258.901 416.398 258.85 416.4C251.85 416.03 244.85 415.35 237.85 414.69C230.85 414.03 223.85 413.34 216.85 412.37C214.93 412.1 213.01 411.78 211.08 411.49C209.032 411.275 207.001 410.924 205 410.44C204.81 410.36 204.77 410 205 410Z" fill="#455A64"/>
<path d="M340.77 333C337.5 335.1 334.34 337.36 331.17 339.6C328.144 341.57 325.238 343.721 322.47 346.04C321.105 347.324 319.82 348.69 318.62 350.13L314.86 354.48C312.35 357.37 309.86 360.29 307.39 363.22C305.99 364.867 304.6 366.533 303.22 368.22C301.78 369.95 300.44 371.77 298.99 373.5C298.973 373.522 298.964 373.549 298.966 373.577C298.968 373.604 298.981 373.63 299.001 373.649C299.021 373.668 299.047 373.678 299.075 373.679C299.103 373.679 299.13 373.669 299.15 373.65C301.71 370.76 304.43 367.99 306.99 365.09C309.55 362.19 312.11 359.29 314.64 356.35C317.17 353.41 319.43 350.58 322.03 347.89C324.689 345.376 327.575 343.113 330.65 341.13C334.15 338.63 337.65 336.13 341.08 333.52C341.37 333.3 341.1 332.82 340.77 333Z" fill="#455A64"/>
<path d="M353.47 254.41C342.95 261.79 332.07 270.04 322.18 278.23C312.29 286.42 302.5 294.78 292.94 303.38C290.273 305.78 287.607 308.214 284.94 310.68C282.28 313.16 279.68 316.27 277.02 318.75C276.88 318.88 277.1 319.09 277.24 318.96C282.05 314.65 287.02 309.96 291.89 305.72C296.76 301.48 301.59 297.32 306.46 293.15C316.247 284.77 326.157 276.534 336.19 268.44C341.75 263.93 348.19 259.37 353.69 254.72C353.9 254.57 353.65 254.27 353.47 254.41Z" fill="#455A64"/>
<path d="M407.89 242C407.29 240.23 406.65 238.47 405.99 236.71C405.99 236.61 405.79 236.71 405.83 236.76C408.31 244.08 410.83 251.58 411.11 259.38C411.284 263.115 410.741 266.849 409.51 270.38C408.225 273.754 406.318 276.858 403.89 279.53C398.99 285.06 392.76 289.42 386.89 293.83C380.49 298.624 373.987 303.29 367.38 307.83C360.8 312.35 354.05 316.66 347.23 320.83C340.41 325 333.51 328.76 326.73 332.83C323.443 334.773 320.366 337.052 317.55 339.63C314.71 342.29 312.17 345.24 309.61 348.17C304.13 354.43 298.703 360.737 293.33 367.09C282.537 379.757 271.96 392.614 261.6 405.66C260.333 407.247 259.067 408.844 257.8 410.45C257.74 410.53 257.8 410.64 257.91 410.56C268.577 397.5 279.36 384.534 290.26 371.66C295.673 365.26 301.117 358.894 306.59 352.56C311.84 346.5 316.89 340.07 323.59 335.56C326.82 333.36 330.27 331.49 333.66 329.56C337.213 327.56 340.733 325.5 344.22 323.38C351.173 319.2 358.013 314.867 364.74 310.38C371.43 305.9 378.03 301.31 384.51 296.52C387.737 294.134 390.943 291.7 394.13 289.22C396.886 287.136 399.527 284.902 402.04 282.53C404.526 280.181 406.661 277.487 408.38 274.53C410.109 271.403 411.181 267.956 411.53 264.4C412.29 256.77 410.3 249.14 407.89 242Z" fill="#455A64"/>
<path d="M338.22 245.59C339.32 247.69 416.22 265.47 416.76 265.12C418.1 264.12 422.51 193.7 402.22 162.2C398.65 156.65 389.97 155.62 385.5 156.78C383.27 157.36 374.1 165.17 369.9 172.98C365.7 180.79 337.54 244.25 338.22 245.59Z" fill="#FFC727"/>
<g opacity="0.1">
<path opacity="0.1" d="M399.37 159.29H381.66C382.36 158.71 383.01 158.22 383.58 157.83H396.73C397.665 158.211 398.551 158.701 399.37 159.29Z" fill="black"/>
<path opacity="0.1" d="M403.37 164.08H376.56C377.03 163.57 377.51 163.08 377.98 162.62H402.48C402.79 163.1 403.08 163.58 403.37 164.08Z" fill="black"/>
<path opacity="0.1" d="M405.91 168.88H372.53C372.89 168.38 373.27 167.88 373.65 167.42H405.19C405.44 167.9 405.67 168.39 405.91 168.88Z" fill="black"/>
<path opacity="0.1" d="M408 173.67H369.55L369.9 172.98C370.04 172.73 370.18 172.47 370.33 172.22H407.39C407.59 172.7 407.79 173.18 408 173.67Z" fill="black"/>
<path opacity="0.1" d="M409.72 178.47H367.22C367.47 177.95 367.7 177.47 367.91 177.01H409.22C409.39 177.49 409.56 178 409.72 178.47Z" fill="black"/>
<path opacity="0.1" d="M411.2 183.27H365L365.67 181.81H410.77C410.92 182.29 411.06 182.78 411.2 183.27Z" fill="black"/>
<path opacity="0.1" d="M412.46 188.06H362.81C363.03 187.56 363.25 187.06 363.47 186.6H412.1L412.46 188.06Z" fill="black"/>
<path opacity="0.1" d="M413.55 192.86H360.63C360.85 192.37 361.08 191.86 361.29 191.4H413.23C413.34 191.88 413.45 192.37 413.55 192.86Z" fill="black"/>
<path opacity="0.1" d="M414.47 197.66H358.47C358.69 197.17 358.9 196.66 359.12 196.2H414.2C414.3 196.68 414.39 197.17 414.47 197.66Z" fill="black"/>
<path opacity="0.1" d="M415.28 202.45H356.34C356.56 201.96 356.77 201.45 356.99 200.99H415L415.28 202.45Z" fill="black"/>
<path opacity="0.1" d="M416 207.25H354.21C354.42 206.77 354.64 206.25 354.85 205.79H415.76C415.83 206.28 415.89 206.76 416 207.25Z" fill="black"/>
<path opacity="0.1" d="M416.53 212H352.1C352.31 211.51 352.52 211 352.74 210.54H416.36C416.42 211.07 416.47 211.55 416.53 212Z" fill="black"/>
<path opacity="0.1" d="M417 216.84H350C350.2 216.36 350.42 215.84 350.63 215.38H416.86C416.91 215.87 417 216.35 417 216.84Z" fill="black"/>
<path opacity="0.1" d="M417.38 221.64H347.91C348.11 221.16 348.33 220.64 348.54 220.18H417.27C417.31 220.67 417.35 221.15 417.38 221.64Z" fill="black"/>
<path opacity="0.1" d="M417.68 226.43H345.84L346.46 224.97H417.6C417.63 225.46 417.65 226 417.68 226.43Z" fill="black"/>
<path opacity="0.1" d="M417.89 231.23H343.79L344.41 229.77H417.84C417.86 230.26 417.88 230.75 417.89 231.23Z" fill="black"/>
<path opacity="0.1" d="M418 236H341.78L342.39 234.54H418V236Z" fill="black"/>
<path opacity="0.1" d="M418.1 240.82H339.84C340.01 240.36 340.21 239.87 340.41 239.36H418.09C418.1 239.85 418.1 240.34 418.1 240.82Z" fill="black"/>
<path opacity="0.1" d="M418.1 244.16C418.1 244.65 418.1 245.16 418.1 245.62H338.24C338.27 245.125 338.392 244.64 338.6 244.19L418.1 244.16Z" fill="black"/>
<path opacity="0.1" d="M418 249C418 249.5 418 250 418 250.46H354C352 249.95 350.19 249.46 348.5 249H418Z" fill="black"/>
<path opacity="0.1" d="M417.88 253.75C417.88 254.25 417.88 254.75 417.82 255.21H373.3C371.3 254.72 369.3 254.21 367.3 253.75H417.88Z" fill="black"/>
<path opacity="0.1" d="M417.62 258.54C417.62 259.05 417.55 259.54 417.51 260H393.51L387.26 258.54H417.62Z" fill="black"/>
<path opacity="0.1" d="M417.16 263.34C417.112 263.833 417.025 264.321 416.9 264.8H414.9C413.4 264.5 411.07 263.99 408.14 263.34H417.16Z" fill="black"/>
</g>
<path d="M398.75 178.4C412.58 177.28 435.5 172.32 447.97 165.4C455.45 161.22 456.58 155.61 456.97 151.69C457.97 141.55 441.07 125.09 432.19 118.95C431.02 118.14 429.32 124.1 423.94 130.79C419.39 136.46 410.81 142.86 412.1 143.95C414 145.55 422.81 151.62 422.39 152.35C421.67 153.6 413.5 157.07 401.26 163C384.84 170.92 389 179.2 398.75 178.4Z" fill="#EB9481"/>
<path d="M435.13 174.49L411.41 156.25C411.41 156.25 395.36 164.01 391.13 168.75C386.9 173.49 389.31 179.3 401.07 180.45C414.55 181.76 435.13 174.49 435.13 174.49Z" fill="#FFC727"/>
<path d="M429.16 175.06C420.16 167.13 410.51 159.53 408.7 158.31C408.62 158.26 408.54 158.38 408.6 158.44C415.08 164.43 421.916 170.024 429.07 175.19C429.14 175.24 429.23 175.12 429.16 175.06Z" fill="#263238"/>
<path d="M414.79 178.6C413.001 178.906 411.296 179.588 409.79 180.6C409.075 181.134 408.432 181.759 407.88 182.46C407.594 182.797 407.34 183.158 407.12 183.54C406.896 183.903 406.706 184.284 406.55 184.68C406.55 184.77 406.65 184.82 406.7 184.76C406.99 184.47 407.23 184.13 407.53 183.84C407.83 183.55 408.1 183.24 408.41 182.96C409.039 182.367 409.707 181.816 410.41 181.31C411.733 180.225 413.24 179.385 414.86 178.83C414.875 178.826 414.889 178.818 414.901 178.808C414.913 178.798 414.924 178.786 414.931 178.772C414.938 178.758 414.943 178.743 414.945 178.727C414.946 178.711 414.945 178.696 414.94 178.68C414.935 178.665 414.928 178.651 414.918 178.639C414.908 178.627 414.895 178.617 414.882 178.609C414.868 178.602 414.852 178.597 414.837 178.596C414.821 178.594 414.805 178.596 414.79 178.6Z" fill="#263238"/>
<g opacity="0.1">
<path opacity="0.1" d="M415.36 159.29H405.48C406.48 158.75 407.48 158.29 408.26 157.83H413.46L415.36 159.29Z" fill="black"/>
<path opacity="0.1" d="M421.59 164.08H397.2C397.96 163.59 398.76 163.08 399.56 162.62H419.69L421.59 164.08Z" fill="black"/>
<path opacity="0.1" d="M427.83 168.88H391L391.11 168.75C391.546 168.275 392.013 167.831 392.51 167.42H425.92L427.83 168.88Z" fill="black"/>
<path opacity="0.1" d="M434.06 173.67H389.22C389.165 173.187 389.185 172.698 389.28 172.22H432.18L434.06 173.67Z" fill="black"/>
<path opacity="0.1" d="M426.86 177C425.08 177.48 423.09 178 420.98 178.46H393.24C392.449 178.072 391.713 177.581 391.05 177H426.86Z" fill="black"/>
</g>
<path d="M383.44 169.79C387.44 171.45 395.53 166.33 399.18 161.69C399.42 161.37 400.31 147.13 400.78 144.32C400.87 143.75 382.47 145.66 382.47 145.66C382.889 149.334 382.856 153.045 382.37 156.71C382.3 157.12 379.61 168.18 383.44 169.79Z" fill="#EB9481"/>
<path d="M382.06 157.84C382.06 157.9 382.06 157.96 382 158.03H382.09C382.648 158.207 383.22 158.334 383.8 158.41C393.4 159.79 398.58 148.57 400.23 144.2C397.23 144.11 382.47 145.64 382.47 145.64C382.889 149.314 382.856 153.025 382.37 156.69C382.37 156.83 382.32 156.96 382.3 157.08C382.244 157.34 382.164 157.595 382.06 157.84Z" fill="#263238"/>
<path d="M380.06 112.87C380.06 112.87 374.06 115.29 372.9 121.35C371.74 127.41 373.06 133.79 373.58 134.11C374.1 134.43 380.06 112.87 380.06 112.87Z" fill="#263238"/>
<path d="M403.19 121.93C405.1 128.26 401.73 146.52 397.19 150.59C390.66 156.48 379.99 157.02 374.99 149.17C370.14 141.57 374.99 117.85 379.99 114.17C387.43 108.72 400.35 112.59 403.19 121.93Z" fill="#EB9481"/>
<path d="M373.72 128.89C373.337 130.567 373.103 132.273 373.02 133.99C372.9 135.76 372.88 137.53 372.89 139.3C372.89 139.4 373.05 139.39 373.05 139.3C373.05 137.56 373.17 135.82 373.32 134.09C373.47 132.36 373.75 130.64 373.84 128.91C373.85 128.83 373.74 128.83 373.72 128.89Z" fill="#263238"/>
<path d="M385 133C385 132.95 385.09 133.07 385.08 133.12C384.82 134.35 384.73 135.79 385.77 136.4C385.77 136.4 385.77 136.48 385.77 136.47C384.44 136 384.58 134.08 385 133Z" fill="#263238"/>
<path d="M386.36 131.87C388.36 132.08 387.8 136.07 385.94 135.87C384.08 135.67 384.67 131.7 386.36 131.87Z" fill="#263238"/>
<path d="M378.16 132.19C378.16 132.14 378.05 132.19 378.05 132.28C377.91 133.53 377.55 134.93 376.37 135.19V135.26C377.77 135.25 378.23 133.39 378.16 132.19Z" fill="#263238"/>
<path d="M377.23 130.74C375.23 130.31 374.55 134.28 376.37 134.68C378.19 135.08 378.88 131.1 377.23 130.74Z" fill="#263238"/>
<path d="M388.19 130.26C387.686 130.035 387.195 129.781 386.72 129.5C386.164 129.304 385.686 128.932 385.36 128.44C385.291 128.266 385.281 128.074 385.332 127.893C385.383 127.713 385.491 127.554 385.64 127.44C385.973 127.262 386.348 127.175 386.726 127.189C387.104 127.203 387.471 127.317 387.79 127.52C388.496 127.831 389.06 128.395 389.37 129.1C389.429 129.264 389.44 129.442 389.402 129.612C389.363 129.782 389.277 129.937 389.152 130.059C389.028 130.181 388.871 130.265 388.701 130.301C388.53 130.337 388.353 130.322 388.19 130.26Z" fill="#263238"/>
<path d="M376 128.51C376.55 128.477 377.097 128.413 377.64 128.32C378.231 128.334 378.81 128.155 379.29 127.81C379.406 127.673 379.478 127.504 379.494 127.325C379.51 127.145 379.47 126.966 379.38 126.81C379.136 126.53 378.823 126.319 378.472 126.198C378.121 126.077 377.745 126.05 377.38 126.12C376.606 126.161 375.875 126.489 375.33 127.04C375.227 127.171 375.162 127.328 375.143 127.494C375.123 127.659 375.149 127.827 375.218 127.979C375.287 128.131 375.397 128.26 375.535 128.354C375.673 128.448 375.834 128.502 376 128.51Z" fill="#263238"/>
<path d="M384.9 144.64C384.56 144.89 384.21 145.25 383.75 145.23C383.291 145.152 382.852 144.982 382.46 144.73C382.46 144.73 382.38 144.73 382.4 144.78C382.542 145.05 382.754 145.277 383.015 145.435C383.276 145.594 383.575 145.679 383.88 145.68C384.146 145.645 384.396 145.531 384.598 145.353C384.799 145.174 384.943 144.94 385.01 144.68C385 144.65 384.94 144.61 384.9 144.64Z" fill="#263238"/>
<path d="M384.11 140.75C383.728 141.198 383.257 141.562 382.726 141.819C382.196 142.075 381.619 142.219 381.03 142.24C380.519 142.263 380.008 142.216 379.51 142.1L379.22 142.02C379.131 142.003 379.044 141.976 378.96 141.94C378.894 141.922 378.837 141.88 378.798 141.824C378.76 141.767 378.743 141.698 378.75 141.63C378.745 141.59 378.745 141.55 378.75 141.51V141.4C378.85 140.4 379.15 139 379.15 139C378.78 139.13 376.89 139.68 376.99 139.19C377.698 134.905 378.841 130.704 380.4 126.65C380.45 126.52 380.66 126.58 380.63 126.71C379.99 130.71 378.63 134.5 377.96 138.47C378.634 138.261 379.334 138.15 380.04 138.14C380.17 138.2 379.42 140.91 379.4 141.35C380.169 141.54 380.969 141.572 381.75 141.445C382.532 141.317 383.28 141.034 383.95 140.61C384.11 140.57 384.2 140.67 384.11 140.75Z" fill="#263238"/>
<path d="M380.14 141.69C380.565 142.444 381.178 143.075 381.92 143.52C382.332 143.755 382.808 143.853 383.28 143.8C384.28 143.68 384.46 142.8 384.38 141.97C384.342 141.544 384.251 141.124 384.11 140.72C382.923 141.457 381.533 141.797 380.14 141.69Z" fill="#263238"/>
<path d="M381.92 143.52C382.332 143.755 382.808 143.853 383.28 143.8C384.28 143.68 384.46 142.8 384.38 141.97C383.855 141.915 383.328 142.038 382.881 142.319C382.435 142.6 382.097 143.023 381.92 143.52Z" fill="#FF98B9"/>
<path d="M401.71 136.74C399.62 137.04 398.26 130.68 397.97 128.26C397.71 126.14 398.06 119.58 398.03 119.12C398 118.66 388.43 123.48 383.62 121.22C378.81 118.96 376.16 113.91 376.42 111.79C376.68 109.67 383.77 105.3 389.22 105.87C394.67 106.44 400.92 114.46 400.92 114.46C400.193 113.315 399.558 112.115 399.02 110.87C399.15 110.64 402.42 112.58 402.68 115.17C402.68 115.17 402.47 111.94 402.75 111.92C403.03 111.9 405.32 115.01 404.39 116.92C404.39 116.92 407.1 120.13 406.93 123.16C406.76 126.19 404.17 136.39 401.71 136.74Z" fill="#263238"/>
<path d="M380.21 119.61C381.576 120.643 383.09 121.466 384.7 122.05C386.528 122.511 388.442 122.511 390.27 122.05C392.103 121.644 393.859 120.945 395.47 119.98C396.89 119.14 398.2 118.06 399.69 117.35C400.06 117.17 400.38 117.71 400.12 117.99C397.381 120.807 393.808 122.665 389.93 123.29C388.131 123.584 386.287 123.403 384.579 122.767C382.871 122.13 381.358 121.06 380.19 119.66C380.19 119.66 380.19 119.59 380.21 119.61Z" fill="#263238"/>
<path d="M385.78 138.9C384.411 138.528 383.245 137.629 382.537 136.4C381.829 135.171 381.636 133.711 382 132.34C382.26 131.374 382.786 130.499 383.519 129.817C384.251 129.134 385.16 128.671 386.143 128.48C387.126 128.288 388.142 128.376 389.077 128.734C390.012 129.092 390.828 129.704 391.432 130.503C392.037 131.301 392.405 132.253 392.495 133.25C392.585 134.247 392.393 135.249 391.942 136.143C391.49 137.036 390.797 137.785 389.941 138.305C389.085 138.824 388.101 139.093 387.1 139.08C386.654 139.08 386.21 139.019 385.78 138.9ZM382.69 132.52C382.451 133.406 382.48 134.343 382.773 135.213C383.066 136.082 383.611 136.845 384.338 137.405C385.065 137.966 385.941 138.297 386.857 138.359C387.773 138.421 388.686 138.21 389.482 137.753C390.277 137.296 390.919 136.613 391.327 135.79C391.735 134.968 391.889 134.044 391.771 133.134C391.653 132.224 391.268 131.369 390.665 130.678C390.061 129.987 389.266 129.49 388.38 129.25C388.004 129.154 387.618 129.1 387.23 129.09C386.2 129.079 385.196 129.409 384.374 130.03C383.552 130.651 382.96 131.527 382.69 132.52Z" fill="#FFC727"/>
<path d="M374.58 137.4C372.4 137.11 370.94 134.5 371.32 131.57C371.466 130.243 372.03 128.997 372.93 128.01C373.287 127.56 373.755 127.211 374.288 126.995C374.82 126.779 375.399 126.705 375.969 126.78C376.539 126.854 377.08 127.075 377.539 127.42C377.998 127.765 378.36 128.224 378.59 128.75C379.199 129.939 379.42 131.29 379.22 132.61C378.86 135.38 376.98 137.45 374.93 137.42L374.58 137.4ZM373.45 128.5C372.656 129.382 372.159 130.491 372.03 131.67C371.7 134.2 372.88 136.45 374.67 136.67C376.46 136.89 378.18 135.03 378.52 132.49C378.691 131.32 378.496 130.125 377.96 129.07C377.766 128.655 377.475 128.293 377.111 128.015C376.747 127.736 376.321 127.549 375.87 127.47H375.6C375.189 127.482 374.786 127.58 374.416 127.758C374.046 127.935 373.717 128.188 373.45 128.5Z" fill="#FFC727"/>
<path d="M382.1 133L382.63 132.51C381.91 131.73 380.17 130.58 378.69 131.8L379.14 132.35C380.47 131.23 382 132.91 382.1 133Z" fill="#FFC727"/>
<path d="M405.57 137.44L406.25 137.2C406.13 136.88 405.09 134.12 403.54 133.65C401.99 133.18 392.46 132.87 392.05 132.85V133.57C394.81 133.67 402.24 134 403.35 134.34C404.46 134.68 405.3 136.68 405.57 137.44Z" fill="#FFC727"/>
<path d="M399.25 136.81C399.25 136.81 403.51 131 406.16 132.53C408.81 134.06 405.51 142.53 402.34 143.66C401.943 143.829 401.515 143.916 401.083 143.916C400.651 143.916 400.223 143.828 399.826 143.658C399.429 143.488 399.071 143.239 398.772 142.926C398.474 142.614 398.242 142.245 398.09 141.84L399.25 136.81Z" fill="#EB9481"/>
<path d="M405.16 134.94V135.02C402.94 135.87 401.73 137.89 400.87 140.02C401.003 139.802 401.181 139.616 401.393 139.474C401.605 139.332 401.846 139.237 402.098 139.197C402.35 139.157 402.608 139.173 402.853 139.242C403.099 139.312 403.326 139.434 403.52 139.6C403.58 139.6 403.52 139.73 403.46 139.71C403.075 139.583 402.66 139.576 402.27 139.691C401.881 139.805 401.536 140.035 401.28 140.35C400.866 140.891 400.504 141.471 400.2 142.08C400.1 142.28 399.74 142.16 399.82 141.94C399.86 139 402.13 135.16 405.16 134.94Z" fill="#263238"/>
<path d="M406.63 132.6C406.329 132.379 405.978 132.236 405.608 132.183C405.238 132.131 404.861 132.171 404.51 132.3C404.41 132.3 404.4 132.39 404.51 132.36C404.931 132.236 405.379 132.236 405.8 132.36C406.15 132.47 407.14 132.88 407.13 134.95C406.978 136.585 406.527 138.178 405.8 139.65C405.8 139.7 405.86 139.75 405.89 139.7C406.374 138.779 406.762 137.811 407.05 136.81C407.33 135.69 407.7 133.51 406.63 132.6Z" fill="#263238"/>
<path d="M400.67 163.07C399.96 163.86 399.33 164.69 398.58 165.44C397.825 166.202 397.031 166.923 396.2 167.6C394.593 168.916 392.85 170.056 391 171C389.089 172.138 386.864 172.635 384.65 172.42C383.646 172.249 382.708 171.808 381.936 171.144C381.164 170.48 380.588 169.618 380.27 168.65C379.34 166.15 379.97 163.49 380.58 160.87C380.58 160.78 380.46 160.74 380.43 160.87C379.74 163.56 379.22 165.77 379.69 168.3C379.844 169.288 380.242 170.221 380.848 171.016C381.454 171.81 382.248 172.441 383.16 172.85C387.59 174.69 392.31 171.5 395.59 168.77C396.55 167.968 397.462 167.11 398.32 166.2C399.239 165.275 400.075 164.271 400.82 163.2C400.85 163.08 400.73 163 400.67 163.07Z" fill="#263238"/>
<path d="M437.27 260.2H78.73V272.95H437.27V260.2Z" fill="#37474F"/>
<path d="M437.27 267.97H78.73V272.95H437.27V267.97Z" fill="#455A64"/>
<path d="M91.59 451.85H86.44L101.44 272.95H114.59L91.59 451.85Z" fill="#455A64"/>
<path d="M114.59 272.95L113.05 284.92H100.44L101.44 272.95H114.59Z" fill="#263238"/>
<path d="M424.41 451.85H429.56L414.56 272.95H401.41L424.41 451.85Z" fill="#455A64"/>
<path d="M401.41 272.95L402.95 284.92H415.56L414.56 272.95H401.41Z" fill="#263238"/>
<path d="M300.33 260.19H355.72V255.88L300.33 254.09V260.19Z" fill="#455A64"/>
<path d="M256.79 260.11H293.34C296.46 260.11 291.94 251.23 280.56 247.83C269.18 244.43 253.21 256.78 256.79 260.11Z" fill="#37474F"/>
<path d="M271.13 260.11C270.535 258.242 269.737 256.444 268.75 254.75C268.262 253.922 267.693 253.145 267.05 252.43C266.386 251.709 265.667 251.04 264.9 250.43C265.89 250.721 266.807 251.219 267.59 251.89C268.385 252.563 269.061 253.364 269.59 254.26C270.124 255.149 270.531 256.109 270.8 257.11C271.08 258.084 271.192 259.099 271.13 260.11Z" fill="#263238"/>
<path d="M266.8 251.66C264.88 252.91 262.96 254.03 261.16 255.32C260.259 255.945 259.41 256.64 258.62 257.4C257.81 258.151 257.184 259.078 256.79 260.11C256.815 258.923 257.258 257.783 258.04 256.89C258.766 255.977 259.622 255.175 260.58 254.51C261.527 253.848 262.531 253.273 263.58 252.79C264.61 252.3 265.69 251.921 266.8 251.66Z" fill="#263238"/>
<path d="M230.57 242.92H319.4L305.28 176.79H216.44L230.57 242.92Z" fill="#455A64"/>
<path d="M227.29 242.92H316.12L301.99 176.79H213.16L227.29 242.92Z" fill="#37474F"/>
<path d="M275.2 219.21H277.28L274.12 204.38H272.04L275.2 219.21Z" fill="#263238"/>
<path d="M271.09 219.21H273.17L270.01 204.38H267.92L271.09 219.21Z" fill="#263238"/>
<path d="M266.98 219.21H269.06L265.9 204.38H263.81L266.98 219.21Z" fill="#263238"/>
<path d="M262.87 219.21H264.95L261.79 204.38H259.7L262.87 219.21Z" fill="#263238"/>
<path d="M258.75 219.21H260.84L257.68 204.38H255.59L258.75 219.21Z" fill="#263238"/>
<path d="M254.64 219.21H256.73L253.56 204.38H251.48L254.64 219.21Z" fill="#263238"/>
<path d="M250.53 219.21H252.62L249.45 204.38H247.37L250.53 219.21Z" fill="#263238"/>
<path d="M252.41 260.2H296.1V256.8L252.41 255.39V260.2Z" fill="#455A64"/>
<path d="M240.53 260.19H263.99L278.12 223.13H254.66L240.53 260.19Z" fill="#455A64"/>
<path d="M236.67 260.19H260.13L274.25 223.13H250.8L236.67 260.19Z" fill="#263238"/>
<path d="M232.4 123.66C232.4 123.66 227 167.25 218 177.06C207.26 188.82 199.47 187.06 195.13 193.17C190.8 187.09 183 188.82 172.25 177.05C163.25 167.24 157.87 123.65 157.87 123.65C181.45 112.21 195.13 99.3799 195.13 99.3799C195.55 99.7899 209.18 112.4 232.4 123.66Z" fill="#FFC727"/>
<path opacity="0.2" d="M195.13 99.3999V193.17C190.8 187.09 183 188.82 172.25 177.05C163.25 167.24 157.87 123.65 157.87 123.65C181.45 112.21 195.13 99.3799 195.13 99.3799V99.3999Z" fill="black"/>
<path opacity="0.1" d="M232.4 123.66C232.4 123.66 227 167.25 218 177.06C207.26 188.82 199.47 187.06 195.13 193.17V99.3999C195.55 99.7899 209.18 112.4 232.4 123.66Z" fill="black"/>
<path d="M226.61 127.17C226.61 127.17 222 164 214.46 172.28C205.38 182.28 198.79 180.77 195.12 185.9C191.46 180.77 184.87 182.24 175.79 172.28C168.23 163.99 163.64 127.17 163.64 127.17C183.56 117.5 195.12 106.67 195.12 106.67C195.12 106.67 206.7 117.5 226.61 127.17Z" fill="#FFC727"/>
<path d="M204.57 141.06H185.68V158.2H204.57V141.06Z" fill="white"/>
<path d="M202.68 146.34H200.76V138.69C200.699 137.236 200.078 135.863 199.028 134.856C197.978 133.849 196.58 133.287 195.125 133.287C193.67 133.287 192.272 133.849 191.222 134.856C190.172 135.863 189.551 137.236 189.49 138.69V146.34H187.57V138.69C187.641 136.734 188.468 134.881 189.877 133.523C191.286 132.164 193.168 131.405 195.125 131.405C197.082 131.405 198.964 132.164 200.373 133.523C201.782 134.881 202.609 136.734 202.68 138.69V146.34Z" fill="white"/>
<path d="M195.93 149.84L196.72 153.59H193.36L194.15 149.84C193.841 149.646 193.602 149.358 193.472 149.017C193.341 148.677 193.324 148.303 193.425 147.952C193.526 147.601 193.738 147.293 194.029 147.073C194.32 146.854 194.675 146.735 195.04 146.735C195.405 146.735 195.76 146.854 196.051 147.073C196.342 147.293 196.554 147.601 196.655 147.952C196.755 148.303 196.739 148.677 196.608 149.017C196.478 149.358 196.239 149.646 195.93 149.84Z" fill="#37474F"/>
<path d="M133.43 243.89H78.73V197.63L106.07 180.26L133.43 197.63V243.89Z" fill="#FFC727"/>
<path opacity="0.2" d="M133.43 243.89H78.73V197.63L106.07 180.26L133.43 197.63V243.89Z" fill="black"/>
<path d="M130.34 236.53H81.81V174.24H117.84L130.34 186.11V236.53Z" fill="#EBEBEB"/>
<path d="M117.84 174.24L130.34 186.11H117.84V174.24Z" fill="#DBDBDB"/>
<path d="M86.55 186.29H113.53V184.69H86.55V186.29Z" fill="#DBDBDB"/>
<path d="M86.55 190.33H113.53V188.73H86.55V190.33Z" fill="#DBDBDB"/>
<path d="M86.55 194.36H113.53V192.76H86.55V194.36Z" fill="#DBDBDB"/>
<path d="M86.55 198.41H126.08V196.81H86.55V198.41Z" fill="#DBDBDB"/>
<path d="M86.55 202.44H126.08V200.84H86.55V202.44Z" fill="#DBDBDB"/>
<path d="M86.55 206.48H126.08V204.88H86.55V206.48Z" fill="#DBDBDB"/>
<path d="M86.55 210.51H126.08V208.91H86.55V210.51Z" fill="#DBDBDB"/>
<path d="M86.55 214.56H126.08V212.96H86.55V214.56Z" fill="#DBDBDB"/>
<path d="M86.55 218.59H126.08V216.99H86.55V218.59Z" fill="#DBDBDB"/>
<path d="M86.55 222.63H126.08V221.03H86.55V222.63Z" fill="#DBDBDB"/>
<path d="M86.55 226.66H126.08V225.06H86.55V226.66Z" fill="#DBDBDB"/>
<path d="M86.55 230.7H126.08V229.1H86.55V230.7Z" fill="#DBDBDB"/>
<path d="M133.43 209.21V243.89H78.73V209.21C81.08 210.54 83.39 211.93 85.73 213.3C88.07 214.67 90.36 216.07 92.66 217.49C95.2266 219.05 97.7866 220.63 100.34 222.23H100.43L100.36 222.29L106.1 225.88C108.01 224.68 109.92 223.47 111.84 222.29L111.77 222.23H111.85C114.41 220.64 116.96 219.06 119.53 217.49C121.83 216.084 124.14 214.69 126.46 213.31C128.77 211.93 131.08 210.54 133.43 209.21Z" fill="#FFC727"/>
<path d="M133.43 209.21C131.22 210.76 128.97 212.21 126.74 213.77C124.51 215.33 122.25 216.77 119.99 218.24C117.73 219.71 115.26 221.31 112.9 222.83L112.69 222.98L106.39 226.98L106.07 227.17L105.77 226.98C103.67 225.647 101.573 224.314 99.48 222.98C99.403 222.94 99.3295 222.893 99.26 222.84C96.88 221.32 94.52 219.84 92.16 218.24C89.8 216.64 87.66 215.24 85.42 213.78C83.18 212.32 80.94 210.78 78.73 209.22C81.08 210.55 83.39 211.94 85.73 213.31C88.07 214.68 90.36 216.08 92.66 217.5C95.2266 219.06 97.7866 220.64 100.34 222.24L106.08 225.83C107.99 224.63 109.9 223.42 111.82 222.24C114.38 220.65 116.93 219.07 119.5 217.5C121.8 216.094 124.11 214.7 126.43 213.32C128.77 211.93 131.08 210.54 133.43 209.21Z" fill="white"/>
<path d="M100.41 222.18L100.34 222.24L99.48 222.97C98.11 224.13 96.7 225.24 95.27 226.32C93.53 227.65 91.75 228.92 89.96 230.18C88.17 231.44 86.35 232.66 84.5 233.84C82.65 235.02 80.79 236.18 78.86 237.24C80.52 235.79 82.25 234.43 83.99 233.11C85.73 231.79 87.52 230.5 89.3 229.24C91.08 227.98 92.92 226.76 94.76 225.58C96.23 224.58 97.76 223.7 99.26 222.83L100.32 222.23L100.41 222.18Z" fill="white"/>
<path d="M133.29 237.24C131.36 236.18 129.49 235.02 127.65 233.84C125.81 232.66 124 231.42 122.19 230.18C120.38 228.94 118.62 227.65 116.87 226.32C115.45 225.24 114.05 224.14 112.69 222.98C112.39 222.73 112.1 222.49 111.82 222.24L111.75 222.18H111.83L112.9 222.79C114.43 223.66 115.9 224.59 117.39 225.54C119.24 226.72 121.05 227.95 122.85 229.2C124.65 230.45 126.42 231.74 128.16 233.07C129.9 234.4 131.63 235.79 133.29 237.24Z" fill="white"/>
<path d="M133.29 252.76C138.261 252.76 142.29 248.731 142.29 243.76C142.29 238.79 138.261 234.76 133.29 234.76C128.319 234.76 124.29 238.79 124.29 243.76C124.29 248.731 128.319 252.76 133.29 252.76Z" fill="#37474F"/>
<path d="M137.75 241.49H128.83V249.59H137.75V241.49Z" fill="white"/>
<path d="M136.86 244H136V240.38C135.958 239.702 135.659 239.065 135.164 238.599C134.669 238.133 134.015 237.874 133.335 237.874C132.655 237.874 132.001 238.133 131.506 238.599C131.01 239.065 130.712 239.702 130.67 240.38V244H129.77V240.38C129.744 239.896 129.817 239.412 129.985 238.957C130.153 238.503 130.411 238.087 130.745 237.735C131.078 237.383 131.48 237.103 131.925 236.912C132.371 236.72 132.85 236.622 133.335 236.622C133.82 236.622 134.299 236.72 134.745 236.912C135.19 237.103 135.592 237.383 135.925 237.735C136.259 238.087 136.517 238.503 136.685 238.957C136.852 239.412 136.926 239.896 136.9 240.38L136.86 244Z" fill="white"/>
<path d="M133.67 245.64L134.05 247.41H132.46L132.83 245.64C132.718 245.568 132.625 245.469 132.561 245.352C132.496 245.235 132.462 245.104 132.46 244.97C132.457 244.83 132.491 244.691 132.559 244.567C132.627 244.444 132.726 244.341 132.846 244.268C132.967 244.196 133.104 244.156 133.245 244.153C133.385 244.151 133.524 244.185 133.647 244.253C133.77 244.322 133.873 244.421 133.946 244.542C134.018 244.662 134.057 244.8 134.06 244.94C134.062 245.081 134.027 245.22 133.959 245.343C133.89 245.465 133.791 245.568 133.67 245.64Z" fill="#37474F"/>
<path d="M174.16 152.73H82.34V166.65H174.16V152.73Z" fill="white"/>
<path d="M174.65 167.15H81.84V152.23H174.65V167.15ZM82.84 166.15H173.65V153.23H82.84V166.15Z" fill="#EBEBEB"/>
<path d="M79.89 168.69C84.8606 168.69 88.89 164.661 88.89 159.69C88.89 154.719 84.8606 150.69 79.89 150.69C74.9195 150.69 70.89 154.719 70.89 159.69C70.89 164.661 74.9195 168.69 79.89 168.69Z" fill="#37474F"/>
<path d="M84.35 157.41H75.43V165.51H84.35V157.41Z" fill="white"/>
<path d="M83.46 159.91H82.55V156.3C82.55 155.595 82.2698 154.918 81.7709 154.419C81.2721 153.92 80.5955 153.64 79.89 153.64C79.1845 153.64 78.5079 153.92 78.0091 154.419C77.5103 154.918 77.23 155.595 77.23 156.3V159.91H76.32V156.3C76.32 155.353 76.6961 154.445 77.3656 153.776C78.0351 153.106 78.9432 152.73 79.89 152.73C80.8368 152.73 81.7449 153.106 82.4144 153.776C83.0839 154.445 83.46 155.353 83.46 156.3V159.91Z" fill="white"/>
<path d="M80.27 161.56L80.64 163.34H79.05L79.43 161.56C79.3134 161.491 79.2169 161.393 79.1502 161.276C79.0835 161.158 79.0489 161.025 79.05 160.89C79.072 160.694 79.1652 160.514 79.3118 160.383C79.4585 160.252 79.6483 160.179 79.845 160.179C80.0417 160.179 80.2315 160.252 80.3782 160.383C80.5248 160.514 80.618 160.694 80.64 160.89C80.6402 161.024 80.6063 161.155 80.5416 161.273C80.4768 161.39 80.3834 161.489 80.27 161.56Z" fill="#37474F"/>
<path d="M98.26 156.73H97.26V163.1H98.26V156.73Z" fill="#37474F"/>
<path d="M100.94 159.41H94.57V160.41H100.94V159.41Z" fill="#37474F"/>
<path d="M99.6553 157.304L95.151 161.809L95.8581 162.516L100.362 158.011L99.6553 157.304Z" fill="#37474F"/>
<path d="M95.8652 157.305L95.1581 158.012L99.6624 162.516L100.369 161.809L95.8652 157.305Z" fill="#37474F"/>
<path d="M109.07 156.73H108.07V163.1H109.07V156.73Z" fill="#37474F"/>
<path d="M111.76 159.41H105.39V160.41H111.76V159.41Z" fill="#37474F"/>
<path d="M110.476 157.303L105.972 161.808L106.679 162.515L111.183 158.01L110.476 157.303Z" fill="#37474F"/>
<path d="M106.679 157.31L105.972 158.018L110.476 162.522L111.183 161.815L106.679 157.31Z" fill="#37474F"/>
<path d="M119.89 156.73H118.89V163.1H119.89V156.73Z" fill="#37474F"/>
<path d="M122.57 159.41H116.2V160.41H122.57V159.41Z" fill="#37474F"/>
<path d="M121.28 157.31L116.776 161.814L117.483 162.521L121.987 158.017L121.28 157.31Z" fill="#37474F"/>
<path d="M117.49 157.31L116.783 158.017L121.287 162.521L121.994 161.814L117.49 157.31Z" fill="#37474F"/>
<path d="M130.71 156.73H129.71V163.1H130.71V156.73Z" fill="#37474F"/>
<path d="M133.39 159.41H127.02V160.41H133.39V159.41Z" fill="#37474F"/>
<path d="M132.101 157.309L127.597 161.813L128.304 162.52L132.808 158.016L132.101 157.309Z" fill="#37474F"/>
<path d="M128.311 157.309L127.604 158.016L132.108 162.52L132.815 161.813L128.311 157.309Z" fill="#37474F"/>
<path d="M141.52 156.73H140.52V163.1H141.52V156.73Z" fill="#37474F"/>
<path d="M144.21 159.41H137.84V160.41H144.21V159.41Z" fill="#37474F"/>
<path d="M142.922 157.308L138.417 161.812L139.125 162.519L143.629 158.015L142.922 157.308Z" fill="#37474F"/>
<path d="M139.125 157.315L138.417 158.022L142.922 162.526L143.629 161.819L139.125 157.315Z" fill="#37474F"/>
<path d="M152.34 156.73H151.34V163.1H152.34V156.73Z" fill="#37474F"/>
<path d="M155.02 159.41H148.65V160.41H155.02V159.41Z" fill="#37474F"/>
<path d="M153.736 157.304L149.231 161.809L149.938 162.516L154.443 158.011L153.736 157.304Z" fill="#37474F"/>
<path d="M149.946 157.304L149.238 158.011L153.743 162.516L154.45 161.808L149.946 157.304Z" fill="#37474F"/>
<path d="M96.55 373.91C96.55 373.91 74.38 368.91 62.23 357.69C50.08 346.47 43.3 326.44 43.3 326.44C51.7246 328.066 60.0301 330.258 68.16 333C70.16 335.12 73.92 339.49 75.68 343.63C75.8866 341.102 75.9067 338.562 75.74 336.03C78.5755 337.261 81.2299 338.873 83.63 340.82C93.7 349.61 96.55 373.91 96.55 373.91Z" fill="#FFC727"/>
<path d="M57.14 336.19C54.14 334.09 51.04 332.08 48.03 329.97C48.0013 329.942 47.9829 329.905 47.9778 329.865C47.9727 329.825 47.9813 329.784 48.002 329.749C48.0228 329.715 48.0546 329.688 48.0923 329.674C48.13 329.66 48.1715 329.658 48.21 329.67C53.92 333.08 59.56 336.73 65 340.55C66.9 341.88 68.77 343.27 70.61 344.68L70.23 344.02C69.56 342.91 68.86 341.82 68.16 340.73C66.7697 338.505 65.1941 336.401 63.45 334.44C63.39 334.37 63.45 334.27 63.56 334.34C65.29 336.34 67.01 338.34 68.56 340.41C69.31 341.41 70 342.41 70.66 343.52C71.01 344.07 71.34 344.63 71.66 345.19L71.99 345.76C74.86 348.01 77.65 350.36 80.31 352.84C81.96 354.38 83.54 355.96 85.07 357.6C84.22 354.92 83.47 352.21 82.47 349.6C82.47 349.51 82.59 349.48 82.62 349.6C83.62 352.37 84.62 355.15 85.39 358C87.09 359.827 88.7067 361.73 90.24 363.71C90.24 363.59 90.24 363.47 90.16 363.35C89.91 362.35 89.65 361.26 89.37 360.23C88.83 358.23 88.24 356.23 87.56 354.23C86.2767 350.143 84.2419 346.331 81.56 342.99C81.5 342.91 81.56 342.81 81.67 342.88C86 348.01 88.54 354.16 90.16 360.61C90.39 361.56 90.62 362.5 90.83 363.45C90.95 363.95 91.08 364.45 91.17 364.98C91.84 365.89 92.49 366.8 93.17 367.74C96.9492 373.518 100.094 379.687 102.55 386.14C105.325 393.384 107.698 400.775 109.66 408.28C109.66 408.43 109.48 408.48 109.43 408.34C105.09 395.34 100.67 382.21 93.24 370.62C91.6742 368.173 89.9853 365.807 88.18 363.53C84.5082 363.294 80.8835 362.575 77.4 361.39C73.5962 360.108 69.9679 358.354 66.6 356.17C64.6939 354.874 62.8549 353.483 61.09 352C61.0794 351.995 61.0701 351.987 61.0629 351.977C61.0556 351.968 61.0507 351.957 61.0483 351.945C61.0459 351.933 61.0462 351.921 61.0491 351.91C61.0521 351.898 61.0576 351.887 61.0652 351.878C61.0729 351.869 61.0825 351.861 61.0934 351.856C61.1043 351.851 61.1162 351.849 61.1282 351.849C61.1401 351.849 61.1519 351.852 61.1626 351.858C61.1733 351.863 61.1827 351.871 61.19 351.88C64.2849 354.369 67.7026 356.428 71.35 358C74.9334 359.642 78.6811 360.9 82.53 361.75C84.17 362.11 85.83 362.37 87.53 362.6C85.4788 360.067 83.2993 357.641 81 355.33C80.25 354.59 79.48 353.87 78.71 353.15C76.1246 351.341 73.38 349.772 70.51 348.46C66.88 346.7 63.31 344.84 59.71 343.01C57.71 342.01 55.71 340.92 53.62 339.93C53.54 339.88 53.62 339.76 53.7 339.8C57.35 341.56 61.05 343.2 64.7 344.89C68.17 346.47 71.7 348.06 74.99 349.89L75.41 350.14C72.4033 347.527 69.3067 345.024 66.12 342.63C63.15 340.45 60.17 338.28 57.14 336.19Z" fill="#263238"/>
<path d="M58.4 347.61C60.2 348.4 62.04 349.1 63.82 349.94C65.6 350.78 67.39 351.8 69.14 352.83C69.21 352.88 69.14 352.98 69.06 352.95C67.3 352.1 65.51 351.31 63.76 350.43C62.01 349.55 60.19 348.56 58.35 347.76C58.27 347.72 58.31 347.57 58.4 347.61Z" fill="#263238"/>
<path d="M168.56 262.2C164.464 267.484 162.147 273.928 161.94 280.61C161.86 282.61 162.18 285.36 162.41 288.61C154.14 293 147.94 301 147.94 301C152.64 298.18 159.08 297 162.56 297.5C162.447 299.725 162.162 301.939 161.71 304.12C160.18 304.03 157.21 304.24 152.31 305.98C155.222 305.95 158.109 306.522 160.79 307.66C156.84 320.24 145.09 333.15 112.66 338.66C109.214 323.235 111.244 307.092 118.4 293C128.12 273.87 168.56 262.2 168.56 262.2Z" fill="#FFC727"/>
<path d="M101.43 392.42C101.99 387.047 102.69 381.69 103.53 376.35C105.174 365.667 107.356 355.073 110.07 344.61C111.341 339.698 112.904 334.866 114.75 330.14C114.658 329.277 114.621 328.408 114.64 327.54C114.64 326.54 114.64 325.46 114.64 324.43C114.64 322.35 114.74 320.273 114.94 318.2C115.271 314.099 115.94 310.032 116.94 306.04C117.53 303.73 118.22 301.46 118.94 299.17C118.94 299.08 119.11 299.12 119.08 299.17C118.009 303.158 117.211 307.214 116.69 311.31C116.111 315.348 115.748 319.414 115.6 323.49C115.6 324.6 115.54 325.71 115.54 326.83C115.54 327.3 115.54 327.78 115.54 328.26C117.128 324.399 118.952 320.638 121 317C124.296 311.204 128.006 305.653 132.1 300.39C132.11 299.778 132.201 299.169 132.37 298.58C132.52 297.85 132.68 297.13 132.84 296.41C133.17 294.93 133.54 293.41 133.95 291.99C134.75 289.05 135.82 286.21 136.74 283.31C136.74 283.21 136.91 283.26 136.88 283.31C136.02 286.18 135.45 289.16 134.8 292.08C134.47 293.53 134.16 294.98 133.8 296.43C133.64 297.15 133.48 297.87 133.33 298.6V298.76C134.64 297.11 135.98 295.47 137.33 293.87C143.52 286.61 150.33 279.87 157.15 273.26C157.99 272.44 158.85 271.64 159.7 270.83C159.715 270.821 159.733 270.817 159.751 270.819C159.769 270.821 159.786 270.829 159.798 270.842C159.811 270.855 159.819 270.871 159.821 270.889C159.823 270.907 159.819 270.925 159.81 270.94C153.28 277.76 146.81 284.65 140.75 291.86C139.31 293.58 137.88 295.31 136.48 297.07C137.22 296.57 137.96 296.07 138.69 295.61C140.58 294.37 142.49 293.17 144.46 292.07C146.43 290.97 148.41 289.89 150.46 288.88C152.51 287.87 154.77 287.01 156.77 285.88C156.86 285.83 156.93 285.97 156.85 286.01C154.799 286.957 152.82 288.053 150.93 289.29C148.93 290.46 146.93 291.64 145.04 292.87C143.15 294.1 141.22 295.27 139.33 296.5C137.75 297.5 136.2 298.64 134.56 299.59C130.799 304.419 127.33 309.468 124.17 314.71C122.205 318.012 120.413 321.413 118.8 324.9L119.96 324.4L122.96 323.08C124.87 322.23 126.79 321.4 128.7 320.57C132.34 318.99 136.03 317.57 139.6 315.8C141.611 314.856 143.555 313.777 145.42 312.57C145.5 312.51 145.57 312.64 145.5 312.7C138.85 317.28 131.39 320.51 124.03 323.77L120.84 325.18C119.96 325.57 119.08 326 118.18 326.34C116.004 331.207 114.17 336.219 112.69 341.34C109.809 351.67 107.473 362.145 105.69 372.72C103.83 383.31 102.57 393.98 101.6 404.72C101.47 406.06 101.35 407.39 101.2 408.72C101.2 408.832 101.156 408.938 101.077 409.017C100.998 409.096 100.891 409.14 100.78 409.14C100.669 409.14 100.562 409.096 100.483 409.017C100.404 408.938 100.36 408.832 100.36 408.72C100.31 403.27 100.86 397.82 101.43 392.42Z" fill="#263238"/>
<path d="M121.16 302.85C121.76 299.55 122.64 296.33 123.53 293.1C123.53 293 123.69 293.05 123.67 293.1C122.85 296.27 122.26 299.5 121.67 302.72C121.08 305.94 120.52 309.29 120.06 312.59C120.06 312.64 119.97 312.65 119.97 312.59C120.187 309.324 120.584 306.072 121.16 302.85Z" fill="#263238"/>
<path d="M135.14 311.79C137.396 310.292 139.755 308.955 142.2 307.79C143.38 307.18 144.58 306.6 145.77 306.02C146.96 305.44 148.29 304.92 149.51 304.31C149.526 304.306 149.544 304.307 149.56 304.313C149.575 304.32 149.589 304.331 149.598 304.346C149.607 304.36 149.611 304.377 149.609 304.394C149.608 304.411 149.601 304.427 149.59 304.44C148.4 305.03 147.28 305.75 146.11 306.39C144.94 307.03 143.72 307.71 142.51 308.39C140.14 309.66 137.81 311.07 135.32 312.11C135.278 312.134 135.227 312.14 135.18 312.127C135.134 312.114 135.094 312.082 135.07 312.04C135.046 311.998 135.04 311.947 135.053 311.901C135.066 311.854 135.098 311.814 135.14 311.79Z" fill="#263238"/>
<path opacity="0.1" d="M96.15 335.51C96.15 335.51 75.63 330.61 66.22 316.85C57.22 303.71 54.31 281.31 54.08 279.34C54.45 281.14 58.69 300.72 72.65 309.84C83.34 316.83 93.67 322.57 96.15 335.51Z" fill="#263238"/>
<path d="M96.15 335.51C96.15 335.51 75.63 330.61 66.22 316.85C57.22 303.71 54.31 281.31 54.08 279.34C54.0761 279.294 54.0761 279.247 54.08 279.2C54.08 279.2 63.92 293.2 74.26 296.75C84.6 300.3 99.11 312.65 96.15 335.51Z" fill="#FFC727"/>
<path d="M57.7 286.91C59.5227 290.678 61.6288 294.301 64 297.75C66.3928 301.024 69.23 303.949 72.43 306.44C75.22 308.65 78.17 310.66 80.99 312.82L80.92 312.72C80.39 311.94 79.83 311.17 79.24 310.43C78.07 308.93 76.79 307.51 75.49 306.11C72.95 303.34 70.34 300.63 68.06 297.64C66.7869 295.989 65.6846 294.213 64.77 292.34C64.77 292.25 64.87 292.2 64.91 292.34C68.24 299.27 74.91 303.71 79.63 309.56C80.3033 310.394 80.9341 311.262 81.52 312.16C81.9887 312.808 82.3844 313.505 82.7 314.24C85.2969 316.32 87.6457 318.693 89.7 321.31C89.523 319.959 89.2489 318.622 88.88 317.31C88.4009 315.486 87.667 313.739 86.7 312.12C86.7 312.04 86.78 311.95 86.83 312.03C87.823 313.656 88.625 315.391 89.22 317.2C89.6607 318.629 89.9227 320.107 90 321.6C91.0134 322.977 91.9385 324.416 92.77 325.91C92.68 325.47 92.6 325.03 92.51 324.59C92.11 322.59 91.66 320.51 91.13 318.5C90.1624 314.413 88.4981 310.523 86.21 307C86.2058 306.984 86.207 306.966 86.2134 306.95C86.2198 306.935 86.2311 306.921 86.2456 306.912C86.2601 306.903 86.2771 306.899 86.294 306.901C86.311 306.902 86.3271 306.909 86.34 306.92C88.6905 310.407 90.5293 314.212 91.8 318.22C92.46 320.22 92.98 322.28 93.44 324.35C93.67 325.35 93.87 326.35 94.06 327.35C94.16 327.87 94.28 328.41 94.36 328.95C96.3981 333.413 97.9827 338.07 99.09 342.85C101.109 351.393 102.572 360.058 103.47 368.79C104.525 377.931 104.995 387.129 104.88 396.33C104.88 397.48 104.8 398.63 104.73 399.79C104.73 400.08 104.27 400.13 104.26 399.79C104.06 395.24 103.94 390.69 103.67 386.14C103.4 381.59 103 377.05 102.52 372.51C101.584 363.601 100.155 354.751 98.24 346C96.58 338.5 94.42 330.95 90.32 324.38C88.2817 321.112 85.7902 318.149 82.92 315.58C80.05 313 76.92 310.74 73.92 308.35C70.8477 306.016 68.0587 303.331 65.61 300.35C63.0721 297.044 60.8586 293.501 59 289.77C58.52 288.84 58 287.92 57.53 286.99C57.52 286.91 57.65 286.83 57.7 286.91Z" fill="#263238"/>
<path d="M61.24 289.92C62.5786 292.688 64.1056 295.361 65.81 297.92C65.81 297.98 65.75 298.04 65.71 297.98C63.9513 295.446 62.406 292.77 61.09 289.98C61.05 289.88 61.19 289.83 61.24 289.92Z" fill="#263238"/>
<path d="M171.42 326.44C171.42 326.44 171.75 355.59 154.32 364C136.89 372.41 127.54 365.41 115.7 368.23C116.16 367.54 124.61 355.39 138.06 352.04C151.9 348.57 167.23 338.58 171.42 326.44Z" fill="#FFC727"/>
<path opacity="0.1" d="M171.42 326.44C171.42 326.44 171.75 355.59 154.32 364C136.89 372.41 127.54 365.41 115.7 368.23C121.959 365.255 128.648 363.284 135.52 362.39C146.53 361 167.52 353.88 171.42 326.44Z" fill="black"/>
<path d="M114.55 368.75C116.623 366.86 118.957 365.277 121.48 364.05C121.86 363.87 122.24 363.73 122.62 363.57C122.803 363.335 123 363.112 123.21 362.9C123.727 362.35 124.274 361.829 124.85 361.34C125.939 360.394 127.11 359.547 128.35 358.81C131.24 357.11 134.41 355.92 137.35 354.35C137.359 354.345 137.368 354.343 137.377 354.342C137.387 354.341 137.397 354.342 137.406 354.344C137.415 354.347 137.424 354.352 137.432 354.358C137.439 354.364 137.445 354.371 137.45 354.38C137.455 354.389 137.457 354.398 137.458 354.408C137.459 354.417 137.458 354.427 137.456 354.436C137.453 354.446 137.448 354.454 137.442 354.462C137.436 354.469 137.428 354.475 137.42 354.48C135.96 355.24 134.55 356.07 133.13 356.9C131.71 357.73 130.34 358.48 128.99 359.34C127.777 360.116 126.624 360.982 125.54 361.93C125.24 362.2 124.94 362.49 124.65 362.79C126.576 362.136 128.544 361.611 130.54 361.22C133.73 360.58 136.95 360.12 140.14 359.44C141.702 359.109 143.244 358.692 144.76 358.19C146.21 357.03 147.65 355.87 149.02 354.61C150.683 353.094 152.193 351.42 153.53 349.61C153.59 349.53 153.72 349.61 153.66 349.69C151.545 352.552 149.15 355.195 146.51 357.58C147.26 357.29 148.01 356.99 148.74 356.65C154.726 353.964 159.865 349.694 163.6 344.3C163.66 344.22 163.79 344.3 163.73 344.37C160.566 349.001 156.481 352.929 151.73 355.91C149.345 357.398 146.794 358.603 144.13 359.5C141.043 360.463 137.892 361.208 134.7 361.73C131.572 362.243 128.484 362.978 125.46 363.93C122.68 364.872 120.068 366.249 117.72 368.01C113.269 371.466 109.687 375.914 107.26 381C103.96 387.61 102.39 395 101.51 402.31C101.51 402.62 100.99 402.62 101.01 402.31C101.83 390 105.11 377.26 114.55 368.75Z" fill="#263238"/>
<path d="M134.78 359.24C135.692 357.882 136.92 356.767 138.36 355.99C140.014 355.134 141.467 353.933 142.62 352.47C142.68 352.39 142.81 352.47 142.75 352.55C141.705 353.886 140.432 355.027 138.99 355.92C137.405 356.757 136.01 357.911 134.89 359.31C134.84 359.38 134.73 359.31 134.78 359.24Z" fill="#263238"/>
<path d="M125.53 390.26L124.74 406.29L122.31 455.26H85.74L83.31 406.29L82.52 390.26H125.53Z" fill="#37474F"/>
<path d="M125.53 390.26L124.74 406.29H83.31L82.52 390.26H125.53Z" fill="#263238"/>
<path d="M128.09 383.57H79.95V398.86H128.09V383.57Z" fill="#37474F"/>
</svg>
