<svg width="229" height="224" viewBox="0 0 229 224" fill="none" xmlns="http://www.w3.org/2000/svg">
<path d="M88.2191 195.677C88.2191 195.292 83.7407 181.418 83.7407 181.418L79.8564 182.999L81.9585 170.352L91.3402 178.955L87.6341 180.276L92.6334 194.728L88.2191 195.677Z" fill="#FFBF48" fill-opacity="0.5"/>
<path d="M161.984 112.787C162.176 112.456 165.183 98.2057 165.183 98.2057L161.006 97.7265L169.145 87.6995L173.038 99.697L169.149 99.0745L166.307 114.072L161.984 112.787Z" fill="#FFBF48" fill-opacity="0.5"/>
<path d="M49.554 76.7589C49.5037 76.3827 43.1929 63.2074 43.1929 63.2074L39.5371 65.2809L39.9118 52.4728L50.372 59.7814L46.8807 61.5728L53.7993 75.2362L49.554 76.7589Z" fill="#FFBF48" fill-opacity="0.5"/>
<path d="M198.41 149.869C212.029 145.229 219.231 130.648 214.497 117.301C209.762 103.955 194.884 96.8967 181.265 101.537C167.646 106.177 160.444 120.758 165.178 134.104C169.913 147.451 184.791 154.509 198.41 149.869Z" fill="#E0E0E0"/>
<path d="M206.083 141.568C216.279 131.577 216.279 115.377 206.083 105.386C195.888 95.3941 179.358 95.3941 169.163 105.386C158.967 115.377 158.967 131.577 169.163 141.568C179.358 151.559 195.888 151.56 206.083 141.568Z" fill="#EBEBEB"/>
<path d="M193.983 141.171C204.32 137.528 209.762 126.565 206.136 116.685C202.511 106.805 191.191 101.75 180.853 105.393C170.515 109.037 165.074 119.999 168.699 129.879C172.325 139.759 183.645 144.814 193.983 141.171Z" fill="#FCFCFC"/>
<path d="M193.963 141.068C189.097 142.786 183.739 142.577 179.027 140.487C174.315 138.397 170.619 134.589 168.725 129.872C168.784 130.047 168.839 130.222 168.903 130.401C169.76 132.843 171.104 135.094 172.857 137.022C174.609 138.951 176.736 140.519 179.112 141.635C181.488 142.752 184.067 143.394 186.699 143.525C189.331 143.656 191.963 143.274 194.443 142.399C196.922 141.525 199.2 140.176 201.143 138.431C203.086 136.687 204.656 134.581 205.762 132.237C206.867 129.892 207.486 127.356 207.583 124.775C207.679 122.194 207.252 119.62 206.324 117.203C206.26 117.028 206.192 116.858 206.123 116.688C207.727 121.504 207.354 126.742 205.084 131.293C202.814 135.844 198.826 139.35 193.963 141.068Z" fill="#FAFAFA"/>
<path d="M180.884 105.452C185.754 103.736 191.115 103.948 195.828 106.044C200.541 108.139 204.234 111.953 206.123 116.675C206.064 116.5 206.009 116.321 205.94 116.146C204.155 111.283 200.472 107.314 195.7 105.112C190.929 102.911 185.461 102.657 180.498 104.406C175.536 106.156 171.486 109.765 169.239 114.441C166.993 119.117 166.733 124.476 168.519 129.339C168.583 129.514 168.656 129.684 168.724 129.859C167.111 125.04 167.479 119.794 169.75 115.237C172.021 110.679 176.015 107.169 180.884 105.452Z" fill="#E0E0E0"/>
<path d="M199.094 125.044C198.148 122.469 196.279 121.242 194.186 121.215C195.214 119.926 195.557 118.112 194.799 116.074C193.885 113.544 191.773 112.254 188.826 112.612L187.679 109.478L184.736 110.517L185.801 113.423L184.128 114.014L183.063 111.108L180.116 112.147L181.185 115.049L178.503 115.989L176.634 116.647L177.694 119.531L179.563 118.873L184.713 132.908L182.648 133.638L183.708 136.522L185.773 135.797L188.456 134.852L189.694 138.229L192.642 137.19L191.403 133.813L193.071 133.222L194.314 136.603L197.257 135.564L195.978 132.075C199.131 130.463 200.154 127.978 199.094 125.044ZM183.296 117.574L187.281 116.168C189.493 115.389 191.083 115.855 191.755 117.691C192.427 119.527 191.499 120.853 189.287 121.632L184.763 123.226L182.757 117.78L183.296 117.574ZM193.071 129.979L188.273 131.663L187.935 131.784L185.833 126.065L190.996 124.247C193.409 123.396 195.032 123.799 195.758 125.797C196.485 127.794 195.484 129.133 193.071 129.979Z" fill="#E0E0E0"/>
<path d="M197.664 125.55C196.718 122.975 194.849 121.748 192.756 121.717C193.784 120.432 194.127 118.618 193.368 116.58C192.454 114.046 190.343 112.76 187.396 113.118L186.249 109.984L183.306 111.023L184.37 113.929L182.698 114.516L181.633 111.614L178.676 112.657L179.746 115.564L177.063 116.509L175.194 117.167L176.25 120.055L178.119 119.397L183.283 133.455L181.217 134.185L182.277 137.069L184.343 136.343L187.025 135.394L188.264 138.775L191.211 137.736L189.968 134.35L191.641 133.764L192.884 137.14L195.827 136.106L194.547 132.613C197.7 130.969 198.738 128.484 197.664 125.55ZM181.875 118.081L185.865 116.674C188.076 115.895 189.662 116.356 190.338 118.197C191.015 120.038 190.083 121.354 187.871 122.138L183.347 123.732L181.341 118.269L181.875 118.081ZM191.655 130.486L186.833 132.187L186.491 132.304L184.393 126.589L189.557 124.767C191.97 123.92 193.592 124.319 194.319 126.316C195.045 128.314 194.054 129.635 191.641 130.486H191.655Z" fill="#EBEBEB"/>
<path d="M181.634 111.623C181.675 111.735 180.551 112.241 178.787 112.931L178.965 112.563C179.303 113.387 179.687 114.355 180.089 115.447L180.208 115.77L179.874 115.891L179.084 116.173C177.69 116.666 176.388 117.1 175.305 117.44L175.483 117.073C176.059 118.833 176.397 120.015 176.26 120.056C176.123 120.096 175.625 118.99 174.925 117.266L174.82 117.006L175.104 116.898C176.159 116.482 177.448 116.003 178.842 115.515L179.632 115.237L179.422 115.685C179.034 114.61 178.686 113.607 178.412 112.76L178.316 112.478L178.586 112.393C180.395 111.815 181.593 111.511 181.634 111.623Z" fill="#FAFAFA"/>
<path d="M186.903 109.827C186.967 110.006 186.227 110.436 185.244 110.781C184.262 111.126 183.416 111.265 183.339 111.081C183.261 110.897 184.015 110.472 185.002 110.123C185.989 109.773 186.821 109.643 186.903 109.827Z" fill="#FAFAFA"/>
<path d="M183.054 133.285C182.867 133.347 181.587 130.32 180.193 126.522C178.799 122.725 177.817 119.59 178.004 119.523C178.192 119.456 179.471 122.483 180.865 126.285C182.259 130.087 183.246 133.217 183.054 133.285Z" fill="#FAFAFA"/>
<path d="M189.357 121.636C189.426 121.816 188.206 122.416 186.638 122.98C185.071 123.544 183.741 123.835 183.677 123.652C183.613 123.468 184.824 122.877 186.396 122.308C187.968 121.739 189.289 121.453 189.357 121.636Z" fill="#FAFAFA"/>
<path d="M192.615 130.168C192.679 130.351 191.463 130.947 189.873 131.511C188.283 132.075 186.98 132.367 186.912 132.183C186.843 131.999 188.064 131.408 189.631 130.839C191.198 130.271 192.546 129.984 192.615 130.168Z" fill="#FAFAFA"/>
<path d="M51.6517 180.527C61.8201 180.527 70.0632 172.449 70.0632 162.484C70.0632 152.519 61.8201 144.44 51.6517 144.44C41.4833 144.44 33.2402 152.519 33.2402 162.484C33.2402 172.449 41.4833 180.527 51.6517 180.527Z" fill="#E0E0E0"/>
<path d="M55.5255 178.042C65.5077 176.144 72.0299 166.675 70.0932 156.893C68.1564 147.11 58.4942 140.718 48.512 142.616C38.5297 144.514 32.0075 153.983 33.9443 163.766C35.881 173.549 45.5432 179.94 55.5255 178.042Z" fill="#EBEBEB"/>
<path d="M63.6719 167.85C67.9253 161.733 66.1828 153.307 59.7799 149.032C53.3769 144.756 44.7382 146.249 40.4848 152.367C36.2313 158.484 37.9738 166.91 44.3768 171.185C50.7797 175.461 59.4184 173.968 63.6719 167.85Z" fill="#FCFCFC"/>
<path d="M59.7445 149.089C62.7594 151.103 64.8541 154.19 65.5837 157.694C66.3132 161.198 65.6201 164.842 63.6516 167.853C63.7293 167.75 63.807 167.647 63.8847 167.535C65.979 164.524 66.7668 160.82 66.0748 157.239C65.3827 153.659 63.2676 150.494 60.1946 148.442C58.6731 147.425 56.9621 146.713 55.1596 146.344C53.357 145.976 51.498 145.96 49.6888 146.295C46.0351 146.974 42.8058 149.046 40.7115 152.058C40.6338 152.17 40.5653 152.277 40.4922 152.389C42.6316 149.492 45.8397 147.526 49.4348 146.909C53.0298 146.293 56.7284 147.075 59.7445 149.089Z" fill="#E0E0E0"/>
<path d="M55.8657 167.387C56.9761 165.793 56.9167 164.252 56.0667 163.057C56.7205 163.06 57.3639 162.897 57.9337 162.583C58.5035 162.269 58.9798 161.815 59.3158 161.265C60.408 159.698 60.2892 157.987 58.8589 156.491L60.2069 154.557L58.379 153.339L57.1269 155.13L56.0896 154.44L57.3417 152.649L55.5138 151.431L54.2617 153.222L52.6029 152.111L51.4513 151.368L50.2083 153.159L51.3691 153.93L45.3233 162.604L44.0437 161.749L42.8008 163.54L44.0803 164.391L45.7391 165.502L44.2859 167.593L46.1138 168.811L47.5716 166.72L48.6044 167.409L47.1512 169.505L48.9791 170.723L50.4825 168.56C52.7263 169.653 54.6044 169.205 55.8657 167.387ZM53.6813 155.457L56.149 157.105C57.5199 158.023 57.9038 159.102 57.1132 160.24C56.3227 161.377 55.1665 161.404 53.7956 160.49L50.9943 158.618L53.3477 155.233L53.6813 155.457ZM50.4825 166.062L47.5259 164.069L47.3157 163.925L49.7788 160.387L52.9776 162.524C54.4719 163.518 54.9015 164.602 54.0469 165.829C53.1924 167.056 51.9905 167.042 50.5008 166.062H50.4825Z" fill="#E0E0E0"/>
<path d="M54.979 166.796C56.0894 165.202 56.03 163.661 55.18 162.466C55.8338 162.47 56.4772 162.306 57.047 161.992C57.6168 161.678 58.0931 161.224 58.4291 160.674C59.5213 159.107 59.4025 157.396 57.9721 155.9L59.3431 153.961L57.5152 152.743L56.2631 154.534L55.2257 153.845L56.4778 152.053L54.6499 150.835L53.3978 152.627L51.739 151.516L50.5783 150.741L49.3353 152.533L50.496 153.303L44.4366 162.013L43.157 161.158L41.9141 162.949L43.1936 163.805L44.857 164.915L43.4129 167.002L45.2408 168.22L46.6986 166.129L47.7313 166.819L46.2782 168.914L48.1061 170.133L49.6095 167.97C51.8395 169.062 53.7177 168.614 54.979 166.796ZM52.7946 154.866L55.2623 156.514C56.6332 157.432 57.0171 158.511 56.2265 159.649C55.4359 160.786 54.2798 160.813 52.9089 159.895L50.1076 158.028L52.461 154.642L52.7946 154.866ZM49.5958 165.471L46.6118 163.46L46.4016 163.317L48.8646 159.779L52.0635 161.915C53.5532 162.909 53.9828 163.993 53.1282 165.22C52.2737 166.447 51.1038 166.469 49.6141 165.471H49.5958Z" fill="#EBEBEB"/>
<path d="M56.4593 152.062C56.3908 152.161 55.6094 151.771 54.4715 151.082L54.8782 151.006C54.5446 151.543 54.1333 152.17 53.6764 152.837L53.4799 153.128L53.1874 152.931L52.6939 152.604C51.8302 152.027 51.0396 151.476 50.409 151.001L50.8203 150.925C50.016 151.968 49.4494 152.618 49.3305 152.551C49.2117 152.483 49.6321 151.713 50.3313 150.598L50.4776 150.365L50.7426 150.522C51.4281 150.934 52.2415 151.449 53.1052 152.027L53.5941 152.358L53.1006 152.448C53.5576 151.785 54.0145 151.18 54.403 150.683L54.5857 150.441L54.8097 150.607C55.8699 151.395 56.5279 151.964 56.4593 152.062Z" fill="#FAFAFA"/>
<path d="M59.6808 154.261C59.5711 154.418 58.9862 154.221 58.3784 153.813C57.7706 153.406 57.3639 152.945 57.4645 152.788C57.565 152.631 58.1591 152.828 58.7714 153.236C59.3838 153.643 59.7905 154.1 59.6808 154.261Z" fill="#FAFAFA"/>
<path d="M44.4275 161.825C44.2675 161.713 45.4602 159.72 47.0962 157.347C48.7322 154.973 50.1899 153.177 50.3544 153.285C50.5189 153.392 49.3217 155.39 47.6857 157.741C46.0497 160.092 44.592 161.933 44.4275 161.825Z" fill="#FAFAFA"/>
<path d="M53.8231 160.531C53.7134 160.688 52.836 160.294 51.8626 159.635C50.8893 158.977 50.1947 158.328 50.3044 158.171C50.414 158.014 51.2914 158.408 52.2648 159.066C53.2381 159.725 53.9236 160.37 53.8231 160.531Z" fill="#FAFAFA"/>
<path d="M50.199 165.882C50.0894 166.044 49.212 165.645 48.2386 164.987C47.2653 164.328 46.5707 163.684 46.6803 163.522C46.79 163.361 47.672 163.76 48.6408 164.418C49.6095 165.076 50.3133 165.721 50.199 165.882Z" fill="#FAFAFA"/>
<path d="M142.069 31.6402C145.319 24.5868 142.119 16.2872 134.921 13.1024C127.724 9.91772 119.255 13.0539 116.005 20.1073C112.756 27.1606 115.956 35.4603 123.153 38.645C130.35 41.8297 138.819 38.6935 142.069 31.6402Z" fill="#E0E0E0"/>
<path d="M139.987 33.1108C145.021 27.1478 144.169 18.3148 138.084 13.3817C131.999 8.44869 122.986 9.28366 117.952 15.2467C112.919 21.2097 113.771 30.0427 119.855 34.9758C125.94 39.9088 134.953 39.0738 139.987 33.1108Z" fill="#EBEBEB"/>
<path d="M139.061 28.0231C141.263 22.6928 138.527 16.5781 132.95 14.3655C127.373 12.1528 121.067 14.6801 118.865 20.0104C116.663 25.3406 119.399 31.4553 124.976 33.668C130.553 35.8806 136.859 33.3533 139.061 28.0231Z" fill="#FCFCFC"/>
<path d="M124.992 33.6279C122.365 32.5854 120.256 30.5798 119.114 28.0374C117.973 25.495 117.888 22.6164 118.878 20.0137C118.832 20.1077 118.791 20.2018 118.75 20.2958C117.734 22.9066 117.803 25.8036 118.943 28.365C120.082 30.9264 122.2 32.948 124.843 33.996C127.486 35.044 130.443 35.0349 133.079 33.9705C135.715 32.9062 137.821 30.8715 138.944 28.3031C138.98 28.2091 139.017 28.115 139.049 28.0165C137.912 30.5612 135.808 32.5712 133.183 33.6191C130.558 34.667 127.619 34.6701 124.992 33.6279Z" fill="#FAFAFA"/>
<path d="M132.933 14.4069C135.56 15.4484 137.669 17.4532 138.811 19.9949C139.953 22.5365 140.038 25.4145 139.048 28.0166C139.093 27.927 139.135 27.833 139.176 27.7389C140.191 25.1281 140.122 22.2311 138.983 19.6698C137.844 17.1084 135.725 15.0867 133.082 14.0387C130.439 12.9907 127.482 12.9999 124.846 14.0642C122.21 15.1285 120.105 17.1633 118.982 19.7316C118.945 19.8257 118.909 19.9197 118.877 20.0138C120.014 17.4698 122.119 15.4609 124.744 14.4138C127.369 13.3668 130.307 13.3643 132.933 14.4069Z" fill="#E0E0E0"/>
<path d="M133.062 28.9211C133.637 27.5328 133.331 26.364 132.486 25.6027C132.982 25.5002 133.443 25.2729 133.823 24.9432C134.203 24.6134 134.488 24.1925 134.652 23.7217C135.219 22.3782 134.839 21.0795 133.505 20.1704L134.204 18.4866L132.614 17.8551L131.965 19.4225L131.051 19.0643L131.695 17.4968L130.11 16.8699L129.461 18.4373L128.012 17.8596L127.039 17.4655L126.394 19.024L127.404 19.4225L124.274 26.9954L123.159 26.5476L122.515 28.106L123.63 28.5539L125.06 29.1092L124.297 30.9453L125.887 31.5768L126.641 29.7541L127.555 30.1123L126.801 31.935L128.391 32.562L129.168 30.6811C131.06 31.1468 132.408 30.502 133.062 28.9211ZM129.406 20.2152L131.558 21.0706C132.751 21.5453 133.226 22.3021 132.815 23.3097C132.404 24.3174 131.535 24.5099 130.343 24.0352L127.902 23.0679L129.118 20.1212L129.406 20.2152ZM128.775 28.7778L126.166 27.7657L125.979 27.694L127.253 24.6085L130.041 25.7146C131.339 26.2296 131.846 26.982 131.412 28.0523C130.978 29.1226 130.068 29.2973 128.766 28.7778H128.775Z" fill="#E0E0E0"/>
<path d="M132.289 28.6122C132.865 27.2239 132.559 26.0551 131.718 25.2938C132.216 25.1936 132.678 24.9677 133.06 24.6386C133.441 24.3096 133.729 23.8886 133.893 23.4173C134.46 22.0738 134.081 20.7751 132.746 19.866L133.436 18.1822L131.846 17.5507L131.197 19.1181L130.283 18.7599L130.927 17.1924L129.351 16.5699L128.702 18.1374L127.253 17.5641L126.248 17.1656L125.604 18.7196L126.614 19.1226L123.483 26.6955L122.368 26.2477L121.729 27.8061L122.839 28.254L124.297 28.8137L123.543 30.6409L125.133 31.2679L125.887 29.4452L126.801 29.8035L126.047 31.6262L127.614 32.2442L128.391 30.3633C130.288 30.838 131.636 30.1976 132.289 28.6122ZM128.633 19.9108L130.786 20.7662C131.978 21.2364 132.454 21.9932 132.047 23.0053C131.64 24.0174 130.754 24.1831 129.561 23.7353L127.121 22.7635L128.336 19.8167L128.633 19.9108ZM128.003 28.4734L125.403 27.4434L125.22 27.3672L126.49 24.2861L129.278 25.3878C130.576 25.9073 131.083 26.6597 130.649 27.7255C130.215 28.7914 129.296 28.9884 127.994 28.4734H128.003Z" fill="#EBEBEB"/>
<path d="M130.937 17.1922C130.891 17.3042 130.229 17.1519 129.242 16.8295L129.625 16.6683C129.466 17.1161 129.264 17.6759 129.031 18.2581L128.903 18.5805L128.57 18.4507L128.14 18.285C127.391 17.9849 126.701 17.6893 126.134 17.4251L126.523 17.2639C126.066 18.182 125.718 18.7552 125.609 18.7104C125.499 18.6656 125.65 18.0118 125.979 17.0445L126.066 16.7892L126.363 16.8877C126.957 17.0803 127.661 17.3356 128.415 17.6356L128.839 17.8058L128.383 17.9983C128.629 17.4206 128.871 16.8922 129.086 16.4533L129.223 16.1757L129.47 16.2921C130.398 16.7355 130.987 17.0803 130.937 17.1922Z" fill="#FAFAFA"/>
<path d="M133.753 18.3613C133.68 18.5404 133.191 18.518 132.661 18.3075C132.131 18.097 131.747 17.7791 131.834 17.5999C131.92 17.4208 132.396 17.4477 132.926 17.6582C133.456 17.8686 133.826 18.1597 133.753 18.3613Z" fill="#FAFAFA"/>
<path d="M123.448 26.5431C123.265 26.4715 123.804 24.7518 124.65 22.7007C125.495 20.6496 126.331 19.0464 126.514 19.118C126.697 19.1897 126.158 20.9094 125.312 22.9605C124.467 25.0115 123.63 26.6148 123.448 26.5431Z" fill="#FAFAFA"/>
<path d="M130.361 24.0442C130.283 24.2233 129.539 24.0934 128.693 23.7621C127.848 23.4307 127.222 23.0052 127.295 22.8261C127.368 22.6469 128.113 22.7768 128.958 23.1127C129.804 23.4486 130.434 23.8651 130.361 24.0442Z" fill="#FAFAFA"/>
<path d="M128.511 28.6927C128.433 28.8718 127.688 28.7419 126.843 28.406C125.997 28.0702 125.371 27.6537 125.444 27.4745C125.517 27.2954 126.262 27.4208 127.112 27.7567C127.962 28.0926 128.584 28.5135 128.511 28.6927Z" fill="#FAFAFA"/>
<path d="M202.129 27.7412C202.129 27.7412 189.598 22.8553 161.769 50.1374C161.769 50.1374 132.797 74.5489 148.283 84.8043C161.463 93.5326 178.855 81.0335 188.04 72.8516C193.291 68.0349 197.948 62.6331 201.918 56.7564C208.261 47.1459 212.036 34.4497 202.129 27.7412Z" fill="#FFC727"/>
<path opacity="0.4" d="M202.129 27.7412C202.129 27.7412 189.598 22.8553 161.769 50.1374C161.769 50.1374 132.797 74.5489 148.283 84.8043C161.463 93.5326 178.855 81.0335 188.04 72.8516C193.291 68.0349 197.948 62.6331 201.918 56.7564C208.261 47.1459 212.036 34.4497 202.129 27.7412Z" fill="black"/>
<path d="M201.178 27.392C201.178 27.392 185.641 18.9637 157.766 46.2458C157.766 46.2458 130.85 74.3654 147.255 83.1743C158.492 89.2111 174.866 77.1419 184.051 68.96C188.877 64.6742 195.366 57.9567 198.912 52.5827C205.268 42.9677 208.778 32.1345 201.178 27.392Z" fill="#FFC727"/>
<path opacity="0.2" d="M182.399 63.7302C194.561 51.8114 200.573 38.3795 195.828 33.7292C191.083 29.0788 177.377 34.9711 165.215 46.8898C153.053 58.8086 147.04 72.2405 151.785 76.8909C156.531 81.5412 170.237 75.649 182.399 63.7302Z" fill="#828080"/>
<path d="M189.841 41.8659L185.929 45.7038L184.919 44.7141L188.73 40.9926L186.751 39.058L182.684 43.0437L181.131 41.5256L160.475 61.7677L161.522 62.7932L157.322 66.6491L159.607 68.8883L163.72 64.8577L164.36 65.4847L160.366 69.3988L162.555 71.5439L167.252 66.9715C167.252 66.9715 168.961 68.7181 174.852 63.7785C179.339 60.0166 178.416 56.3758 178.416 56.3758C178.416 56.3758 180.665 56.64 183.996 54.056C186.037 52.3961 187.443 50.1069 187.985 47.5624L191.824 43.805L189.841 41.8659ZM172.809 61.2213C169.482 64.0113 166.709 60.3257 166.709 60.3257L171.822 55.3099C171.822 55.3099 176.14 58.4358 172.809 61.2213ZM180.93 52.7125C177.731 55.2965 175.903 51.6242 175.903 51.6242L180.313 47.2981C180.313 47.2981 184.617 49.7523 180.93 52.7259V52.7125Z" fill="#FFC727"/>
<path opacity="0.4" d="M189.841 41.8659L185.929 45.7038L184.919 44.7141L188.73 40.9926L186.751 39.058L182.684 43.0437L181.131 41.5256L160.475 61.7677L161.522 62.7932L157.322 66.6491L159.607 68.8883L163.72 64.8577L164.36 65.4847L160.366 69.3988L162.555 71.5439L167.252 66.9715C167.252 66.9715 168.961 68.7181 174.852 63.7785C179.339 60.0166 178.416 56.3758 178.416 56.3758C178.416 56.3758 180.665 56.64 183.996 54.056C186.037 52.3961 187.443 50.1069 187.985 47.5624L191.824 43.805L189.841 41.8659ZM172.809 61.2213C169.482 64.0113 166.709 60.3257 166.709 60.3257L171.822 55.3099C171.822 55.3099 176.14 58.4358 172.809 61.2213ZM180.93 52.7125C177.731 55.2965 175.903 51.6242 175.903 51.6242L180.313 47.2981C180.313 47.2981 184.617 49.7523 180.93 52.7259V52.7125Z" fill="black"/>
<path d="M187.73 40.8L183.813 44.6334L182.808 43.6482L186.605 39.9267L184.618 37.9875L180.551 41.9778L179.001 40.4596L158.346 60.6973L159.393 61.7228L155.188 65.5831L157.473 67.8223L161.586 63.7918L162.226 64.4188L158.232 68.3284L160.425 70.4735L165.114 65.8787C165.114 65.8787 166.818 67.6253 172.709 62.6901C177.196 58.9283 176.273 55.2874 176.273 55.2874C176.273 55.2874 178.522 55.5516 181.853 52.9676C183.894 51.3066 185.301 49.0181 185.847 46.474L189.681 42.7122L187.73 40.8ZM170.698 60.1554C167.367 62.9409 164.593 59.2597 164.593 59.2597L169.725 54.2305C169.725 54.2305 174.025 57.3698 170.698 60.1554ZM178.814 51.6465C175.615 54.2305 173.787 50.5583 173.787 50.5583L178.22 46.2456C178.22 46.2456 182.484 48.6863 178.814 51.6599V51.6465Z" fill="#FFC727"/>
<path d="M199.386 26.7604C199.386 26.832 198.175 26.5902 195.986 26.4917C192.897 26.376 189.807 26.705 186.815 27.468C184.75 27.9874 182.731 28.6688 180.778 29.5056C178.539 30.4738 176.379 31.6086 174.317 32.9002C169.934 35.5872 165.556 39.2147 161.165 43.2004C152.322 51.1092 146.272 60.2495 143.64 67.4551C142.342 71.0647 142.077 74.2264 142.438 76.3312L142.552 77.0746L142.717 77.7195C142.767 77.921 142.817 78.1046 142.859 78.2748C142.9 78.445 142.973 78.5838 143.018 78.7226C143.137 78.9885 143.226 79.2663 143.284 79.5511C143.124 79.3057 142.99 79.0445 142.886 78.7719C142.827 78.642 142.753 78.4987 142.689 78.3241C142.625 78.1494 142.58 77.9703 142.516 77.7732C142.452 77.5762 142.379 77.3568 142.315 77.1239C142.251 76.891 142.214 76.6357 142.164 76.367C141.707 74.2309 141.903 70.993 143.165 67.2894C145.71 59.936 151.76 50.6658 160.681 42.6809C165.086 38.6773 169.514 35.0677 173.969 32.3449C176.066 31.0475 178.265 29.9154 180.545 28.9592C182.535 28.1307 184.593 27.4671 186.696 26.9753C189.739 26.2433 192.88 25.9834 196.005 26.2051C196.558 26.2364 197.042 26.3036 197.467 26.3618C197.823 26.4023 198.177 26.4606 198.527 26.5365C198.821 26.5824 199.108 26.6574 199.386 26.7604Z" fill="#FAFAFA"/>
<path opacity="0.4" d="M151.158 76.1342C151.158 76.1342 142.892 66.2818 163.647 45.4351C184.403 24.5884 195.828 33.7287 195.828 33.7287C195.828 33.7287 186.359 26.2006 164.593 47.419C145.643 65.8967 151.158 76.1342 151.158 76.1342Z" fill="black"/>
<path d="M185.075 37.9875C184.753 38.425 184.376 38.8221 183.955 39.1698C183.201 39.8908 182.095 40.9164 180.725 42.1703L180.528 42.3495L180.345 42.139L179.134 40.6925H179.591C177.489 42.7883 174.912 45.332 172.111 48.0549C168.455 51.6017 165.128 54.7724 162.692 57.0653C161.472 58.2073 160.476 59.1209 159.781 59.7523C159.444 60.0982 159.061 60.3993 158.644 60.648C158.909 60.242 159.225 59.8704 159.585 59.5418C160.225 58.8611 161.161 57.8938 162.327 56.7115C164.671 54.3425 167.948 51.1001 171.599 47.5533C174.4 44.8305 177.009 42.3226 179.166 40.2805L179.404 40.0565L179.6 40.3029L180.761 41.8344L180.382 41.8076C181.798 40.6029 182.955 39.6356 183.768 38.9773C184.163 38.5989 184.602 38.2668 185.075 37.9875Z" fill="#FAFAFA"/>
<path d="M179.362 51.4406C179.431 51.5033 179.362 51.7272 179.088 51.9914C178.738 52.3293 178.308 52.5757 177.836 52.708C177.366 52.8464 176.868 52.8679 176.387 52.7706C176.022 52.6856 175.83 52.5423 175.848 52.4527C175.898 52.2601 176.716 52.3139 177.635 52.0362C178.553 51.7585 179.216 51.3017 179.362 51.4406Z" fill="#FAFAFA"/>
<path d="M169.68 60.8809C169.734 60.9571 169.652 61.1272 169.428 61.3288C169.126 61.5512 168.772 61.6946 168.397 61.7455C168.023 61.7965 167.642 61.7532 167.29 61.6199C167.025 61.5079 166.897 61.3646 166.929 61.275C167.002 61.0914 167.605 61.1541 168.3 61.0511C168.994 60.9481 169.538 60.7242 169.68 60.8809Z" fill="#FAFAFA"/>
<path d="M187.497 59.0852C187.643 59.2016 186.075 61.2572 183.676 63.3575C181.277 65.4579 179.029 66.7656 178.924 66.6133C178.819 66.461 180.848 64.907 183.201 62.838C185.555 60.769 187.36 58.9553 187.497 59.0852Z" fill="#FAFAFA"/>
<path d="M161.718 87.5137C161.675 87.4798 161.637 87.4406 161.604 87.3972L161.311 87.0658C161.069 86.7703 160.736 86.3583 160.398 85.897C159.933 85.3594 159.527 84.7755 159.187 84.1549C159.715 84.6325 160.184 85.1691 160.585 85.7537C161.275 86.6628 161.814 87.4644 161.718 87.5137Z" fill="#263238"/>
<path d="M154.982 87.5137C154.946 87.4869 154.914 87.4552 154.887 87.4197L154.644 87.1465C154.448 86.9136 154.187 86.5822 153.89 86.215C153.51 85.7868 153.188 85.3127 152.931 84.8043C153.374 85.1697 153.76 85.5967 154.078 86.0717C154.653 86.8106 155.083 87.4645 154.982 87.5137Z" fill="#263238"/>
<path d="M167.252 86.1075C166.69 85.5615 166.187 84.9613 165.748 84.3162C165.248 83.719 164.81 83.0739 164.441 82.3905C164.999 82.9387 165.501 83.5387 165.94 84.1818C166.441 84.7797 166.881 85.4247 167.252 86.1075Z" fill="#263238"/>
<path d="M172.356 83.8995C171.761 83.3133 171.225 82.6713 170.757 81.9828C170.222 81.3422 169.749 80.654 169.345 79.9272C169.939 80.5148 170.475 81.1566 170.944 81.844C171.477 82.486 171.95 83.1739 172.356 83.8995Z" fill="#263238"/>
<path d="M177.635 80.6261C177.039 80.0381 176.502 79.3963 176.031 78.7093C175.495 78.0682 175.024 77.3784 174.623 76.6493C175.215 77.2405 175.75 77.8836 176.222 78.5705C176.757 79.2116 177.229 79.8997 177.635 80.6261Z" fill="#263238"/>
<path d="M182.374 77.1552C181.777 76.5684 181.24 75.9265 180.77 75.2384C180.235 74.5985 179.764 73.9102 179.362 73.1829C179.955 73.7718 180.49 74.4135 180.962 75.0996C181.496 75.7407 181.969 76.4288 182.374 77.1552Z" fill="#263238"/>
<path d="M187.113 73.6845C186.517 73.0977 185.979 72.4558 185.509 71.7677C184.975 71.1278 184.503 70.4395 184.102 69.7122C184.694 70.3011 185.23 70.9428 185.701 71.6289C186.234 72.2709 186.707 72.9589 187.113 73.6845Z" fill="#263238"/>
<path d="M191.243 69.4124C190.648 68.8254 190.113 68.1835 189.644 67.4956C189.108 66.8565 188.637 66.1681 188.236 65.4401C188.829 66.029 189.364 66.6707 189.836 67.3568C190.367 67.999 190.838 68.6869 191.243 69.4124Z" fill="#263238"/>
<path d="M195.287 65.0322C194.696 64.442 194.161 63.8005 193.688 63.1155C193.151 62.4753 192.68 61.7853 192.28 61.0554C192.872 61.6466 193.408 62.2897 193.88 62.9766C194.415 63.6157 194.887 64.3041 195.287 65.0322Z" fill="#263238"/>
<path d="M199.24 60.5316C198.648 59.9427 198.112 59.301 197.641 58.6149C197.106 57.9749 196.635 57.2867 196.233 56.5593C196.826 57.1483 197.361 57.79 197.833 58.4761C198.367 59.116 198.839 59.8043 199.24 60.5316Z" fill="#263238"/>
<path d="M202.686 55.7488C202.085 55.1626 201.543 54.5207 201.068 53.8321C200.546 53.1906 200.087 52.5024 199.697 51.7765C200.29 52.3654 200.825 53.0071 201.297 53.6932C201.822 54.3361 202.287 55.0241 202.686 55.7488Z" fill="#263238"/>
<path d="M205.698 50.2225C205.102 49.6335 204.565 48.9902 204.094 48.3013C203.558 47.6622 203.087 46.9738 202.687 46.2457C203.278 46.8359 203.813 47.4774 204.286 48.1625C204.821 48.8047 205.294 49.4943 205.698 50.2225Z" fill="#263238"/>
<path d="M207.415 44.2617C206.877 43.744 206.395 43.1738 205.976 42.5599C205.492 41.9909 205.072 41.3723 204.724 40.7148C205.26 41.2344 205.741 41.8061 206.159 42.4211C206.643 42.9888 207.065 43.6059 207.415 44.2617Z" fill="#263238"/>
<path d="M208.183 38.3548C207.644 37.8384 207.161 37.268 206.744 36.653C206.266 36.0818 205.848 35.4652 205.496 34.8124C206.038 35.3263 206.521 35.8969 206.936 36.5142C207.415 37.0837 207.833 37.7005 208.183 38.3548Z" fill="#263238"/>
<path d="M80.7644 60.1266C90.1478 50.9308 90.1478 36.0216 80.7644 26.8258C71.381 17.6301 56.1675 17.6301 46.7841 26.8258C37.4007 36.0216 37.4007 50.9308 46.7841 60.1265C56.1675 69.3223 71.381 69.3223 80.7644 60.1266Z" fill="#FFC727"/>
<path opacity="0.2" d="M80.7644 60.1266C90.1478 50.9308 90.1478 36.0216 80.7644 26.8258C71.381 17.6301 56.1675 17.6301 46.7841 26.8258C37.4007 36.0216 37.4007 50.9308 46.7841 60.1265C56.1675 69.3223 71.381 69.3223 80.7644 60.1266Z" fill="#828080"/>
<path d="M68.9414 20.4817C69.2736 20.8368 69.5452 21.242 69.7457 21.6819C70.0168 22.0795 70.2191 22.5184 70.3443 22.9806C70.0137 22.631 69.7422 22.2319 69.54 21.7983C69.2671 21.3952 69.0647 20.9502 68.9414 20.4817Z" fill="#263238"/>
<path d="M72.8809 21.7626C73.2014 22.096 73.4638 22.4788 73.6577 22.8956C73.9174 23.276 74.109 23.6971 74.2244 24.1406C73.9038 23.8071 73.6414 23.4244 73.4475 23.0076C73.187 22.6276 72.9953 22.2064 72.8809 21.7626Z" fill="#263238"/>
<path d="M76.4814 23.5046C76.8054 23.8354 77.0683 24.2188 77.2583 24.6377C77.5204 25.0173 77.7137 25.4385 77.8295 25.8826C77.5056 25.5519 77.2427 25.1685 77.0527 24.7496C76.792 24.3692 76.5988 23.9482 76.4814 23.5046Z" fill="#263238"/>
<path d="M64.7686 19.9354C65.0991 20.2851 65.3706 20.6842 65.5728 21.1177C65.844 21.5154 66.0462 21.9542 66.1715 22.4164C65.8409 22.0668 65.5694 21.6677 65.3672 21.2341C65.0953 20.8369 64.893 20.398 64.7686 19.9354Z" fill="#263238"/>
<path d="M60.8896 20.1011C61.2208 20.4494 61.491 20.8488 61.6894 21.2834C61.9584 21.6822 62.1605 22.1206 62.288 22.5821C61.9536 22.2345 61.6803 21.835 61.4791 21.3998C61.2133 21.0004 61.0143 20.562 60.8896 20.1011Z" fill="#263238"/>
<path d="M57.0791 20.9297C57.4079 21.2706 57.6794 21.6606 57.8834 22.0851C58.1519 22.4723 58.3526 22.9006 58.4774 23.3525C58.148 23.0137 57.8764 22.6251 57.6732 22.2015C57.405 21.8125 57.2043 21.3828 57.0791 20.9297Z" fill="#263238"/>
<path d="M53.5732 22.0851C53.906 22.433 54.1778 22.8325 54.3775 23.2674C54.6465 23.6662 54.8486 24.1046 54.9761 24.5661C54.6423 24.2163 54.3691 23.8155 54.1673 23.3793C53.9004 22.9816 53.6998 22.5447 53.5732 22.0851Z" fill="#263238"/>
<path d="M50.2236 23.9614C50.5574 24.3086 50.8293 24.7083 51.0279 25.1437C51.299 25.5414 51.5013 25.9802 51.6265 26.4424C51.2976 26.0932 51.0263 25.6958 50.8223 25.2646C50.5516 24.8651 50.3494 24.4249 50.2236 23.9614Z" fill="#263238"/>
<path d="M47.3037 26.2677C47.6334 26.6197 47.9048 27.0201 48.108 27.4545C48.3786 27.8508 48.5808 28.288 48.7066 28.7487C48.376 28.3991 48.1045 27.9999 47.9023 27.5664C47.6312 27.1688 47.4289 26.73 47.3037 26.2677Z" fill="#263238"/>
<path d="M44.9912 28.6951C45.3209 29.047 45.5923 29.4475 45.7955 29.8818C46.0661 30.2782 46.2683 30.7154 46.3941 31.1761C46.0635 30.8264 45.792 30.4273 45.5898 29.9938C45.3187 29.5961 45.1164 29.1573 44.9912 28.6951Z" fill="#263238"/>
<path d="M43.0273 31.7896C43.3701 32.1539 43.6537 32.5678 43.8682 33.0166C44.1471 33.4291 44.3569 33.8827 44.4897 34.3601C44.1501 33.9951 43.8696 33.5813 43.658 33.1331C43.3759 32.7211 43.163 32.2675 43.0273 31.7896Z" fill="#263238"/>
<path d="M41.3633 35.1171C41.7035 35.4799 41.984 35.8924 42.195 36.3397C42.4693 36.7546 42.6788 37.2075 42.8165 37.6832C42.4746 37.3216 42.1938 36.9089 41.9848 36.4606C41.7051 36.0485 41.4952 35.5948 41.3633 35.1171Z" fill="#263238"/>
<path d="M40.2432 38.6996C40.5817 39.0565 40.8777 39.4502 41.1251 39.8729C41.4468 40.2557 41.6946 40.6928 41.8563 41.1627C41.5018 40.8164 41.1946 40.4265 40.9423 40.0028C40.6197 39.6205 40.3816 39.1767 40.2432 38.6996Z" fill="#263238"/>
<path d="M39.7549 42.6764C40.1268 43.0965 40.4346 43.5671 40.6688 44.0736C40.9738 44.5348 41.2122 45.0352 41.3771 45.5605C41.0061 45.148 40.6982 44.6849 40.4632 44.1856C40.1571 43.717 39.9187 43.2091 39.7549 42.6764Z" fill="#263238"/>
<path d="M40.2119 48.037C40.6061 48.4791 40.9395 48.9699 41.2035 49.4969C41.5379 49.9853 41.8038 50.5155 41.9941 51.0733C41.5994 50.6306 41.2646 50.1399 40.9979 49.6134C40.666 49.1242 40.4017 48.5942 40.2119 48.037Z" fill="#263238"/>
<path d="M71.9209 68.5713C84.6978 65.0587 92.15 52.0607 88.5658 39.5393C84.9816 27.0179 71.7182 19.7147 58.9413 23.2273C46.1644 26.7398 38.7122 39.7379 42.2964 52.2593C45.8807 64.7807 59.144 72.0838 71.9209 68.5713Z" fill="#FFC727"/>
<path opacity="0.2" d="M66.8158 63.1066C76.8894 62.262 84.3742 53.7722 83.5337 44.1441C82.6931 34.516 73.8455 27.3955 63.772 28.2401C53.6984 29.0847 46.2136 37.5745 47.0542 47.2026C47.8947 56.8307 56.7423 63.9512 66.8158 63.1066Z" fill="#828080"/>
<path d="M66.8123 63.0261C62.0668 63.4307 57.3476 62.0039 53.6595 59.0496C49.9714 56.0952 47.6058 51.8467 47.0664 47.2085C47.0664 47.3787 47.0664 47.5489 47.0984 47.7191C47.5123 52.4581 49.8302 56.8419 53.5423 59.9061C55.3803 61.4234 57.5053 62.571 59.7959 63.2834C62.0865 63.9958 64.4978 64.2591 66.8922 64.0583C69.2867 63.8575 71.6173 63.1964 73.751 62.1129C75.8848 61.0294 77.7798 59.5446 79.328 57.7433C80.8762 55.942 82.0473 53.8596 82.7742 51.6148C83.5012 49.37 83.7699 47.0069 83.5649 44.6603C83.5649 44.4902 83.5284 44.32 83.5101 44.1543C83.7819 48.8113 82.1894 53.3885 79.0712 56.9127C75.9529 60.437 71.5549 62.6302 66.8123 63.0261Z" fill="#FAFAFA"/>
<path opacity="0.3" d="M63.7836 28.3098C68.5297 27.9078 73.2485 29.3375 76.9349 32.2945C80.6214 35.2514 82.9842 39.5019 83.5203 44.1407C83.5203 43.9706 83.5203 43.8004 83.4883 43.6302C83.0745 38.8912 80.7565 34.5073 77.0444 31.4431C73.3324 28.3789 68.5303 26.8854 63.6945 27.291C58.8587 27.6966 54.3854 29.9681 51.2587 33.606C48.132 37.2438 46.6079 41.9499 47.0218 46.6889C47.0218 46.8591 47.0583 47.0293 47.0766 47.195C46.8012 42.5343 48.3933 37.9524 51.5139 34.425C54.6344 30.8976 59.0368 28.7035 63.7836 28.3098Z" fill="black"/>
<path d="M73.7215 48.749C73.5021 46.2411 72.1358 44.7185 70.2805 44.2035C71.5051 43.3078 72.2409 41.7628 72.0672 39.7789C71.8524 37.3068 70.2942 35.6767 67.5889 35.3005L67.3238 32.2552L64.454 32.4971L64.7008 35.3274L63.074 35.4617L62.8226 32.6314L59.9528 32.8777L60.2042 35.7081L57.5857 35.9275L55.7578 36.0798L56.0046 38.8922L57.8325 38.7399L59.0297 52.4168L57.0145 52.587L57.2613 55.3994L59.2719 55.2292L61.8904 55.0097L62.1783 58.3058L65.0481 58.064L64.7602 54.7724L66.387 54.6336L66.6749 57.9251L69.5447 57.6878L69.2477 54.2842C72.4465 53.5767 73.9682 51.6062 73.7215 48.749ZM61.47 38.4488L65.3451 38.1174C67.4975 37.9383 68.7999 38.7175 68.9552 40.5088C69.1106 42.3002 67.9636 43.2586 65.8067 43.4377L61.4014 43.8094L60.9445 38.4891L61.47 38.4488ZM67.173 51.745L62.4753 52.1346L62.1417 52.1615L61.6573 46.5904L66.6841 46.1695C69.0329 45.9724 70.3764 46.7203 70.5455 48.6505C70.7146 50.5807 69.5219 51.548 67.173 51.745Z" fill="#FFC727"/>
<path opacity="0.3" d="M73.7215 48.749C73.5021 46.2411 72.1358 44.7185 70.2805 44.2035C71.5051 43.3078 72.2409 41.7628 72.0672 39.7789C71.8524 37.3068 70.2942 35.6767 67.5889 35.3005L67.3238 32.2552L64.454 32.4971L64.7008 35.3274L63.074 35.4617L62.8226 32.6314L59.9528 32.8777L60.2042 35.7081L57.5857 35.9275L55.7578 36.0798L56.0046 38.8922L57.8325 38.7399L59.0297 52.4168L57.0145 52.587L57.2613 55.3994L59.2719 55.2292L61.8904 55.0097L62.1783 58.3058L65.0481 58.064L64.7602 54.7724L66.387 54.6336L66.6749 57.9251L69.5447 57.6878L69.2477 54.2842C72.4465 53.5767 73.9682 51.6062 73.7215 48.749ZM61.47 38.4488L65.3451 38.1174C67.4975 37.9383 68.7999 38.7175 68.9552 40.5088C69.1106 42.3002 67.9636 43.2586 65.8067 43.4377L61.4014 43.8094L60.9445 38.4891L61.47 38.4488ZM67.173 51.745L62.4753 52.1346L62.1417 52.1615L61.6573 46.5904L66.6841 46.1695C69.0329 45.9724 70.3764 46.7203 70.5455 48.6505C70.7146 50.5807 69.5219 51.548 67.173 51.745Z" fill="black"/>
<path d="M73.855 50.0746C73.6356 47.5623 72.2693 46.0441 70.414 45.5291C71.6387 44.6334 72.3744 43.0884 72.2007 41.1C71.986 38.6324 70.4277 37.0023 67.7224 36.6217L67.4573 33.5719L64.5875 33.8137L64.8343 36.644L63.2075 36.7829L62.9607 33.9526L60.0864 34.1944L60.3194 37.0426L57.7009 37.2621L55.873 37.4143L56.1198 40.2267L57.9477 40.0745L59.145 53.7513L57.1297 53.9215L57.3765 56.7339L59.3872 56.5637L62.0011 56.3443L62.289 59.6359L65.1588 59.3941L64.8709 56.1025L66.4977 55.9681L66.7856 59.2597L69.6554 59.0179L69.3584 55.6188C72.58 54.9023 74.1017 52.9318 73.855 50.0746ZM61.6035 39.7744L65.4924 39.4475C67.6493 39.2639 68.9471 40.0431 69.1025 41.8389C69.2578 43.6348 68.1108 44.5886 65.9539 44.7678L61.5487 45.1395L61.0917 39.8147L61.6035 39.7744ZM67.3065 53.0706L62.6043 53.4782L62.2707 53.505L61.7863 47.9384L66.813 47.4906C69.1619 47.2936 70.5054 48.0414 70.6744 49.9761C70.8435 51.9107 69.6554 52.8691 67.3065 53.0662V53.0706Z" fill="#FFC727"/>
<path d="M58.9938 53.5632C58.7973 53.5632 58.3769 50.5941 58.0524 46.8905C57.728 43.1869 57.6274 40.173 57.8239 40.173C58.0204 40.173 58.4409 43.1466 58.7653 46.8502C59.0898 50.5538 59.1903 53.5498 58.9938 53.5632Z" fill="#FAFAFA"/>
<path d="M67.4115 44.665C67.4115 44.8575 66.2005 45.1128 64.6696 45.2472C63.1388 45.3815 61.8866 45.3233 61.8684 45.1307C61.8501 44.9382 63.0793 44.6829 64.6102 44.553C66.1411 44.4231 67.3932 44.4724 67.4115 44.665Z" fill="#FAFAFA"/>
<path d="M68.2474 53.0304C68.2474 53.223 67.0364 53.4782 65.5056 53.6126C63.9747 53.7469 62.7226 53.6887 62.7043 53.4962C62.686 53.3036 63.9153 53.0483 65.4461 52.914C66.977 52.7796 68.2291 52.8154 68.2474 53.0304Z" fill="#FAFAFA"/>
<path d="M148.608 186.805C164.143 171.581 164.143 146.898 148.608 131.674C133.073 116.449 107.886 116.449 92.3511 131.674C76.8162 146.898 76.8162 171.581 92.3511 186.805C107.886 202.029 133.073 202.029 148.608 186.805Z" fill="#FFC727"/>
<path opacity="0.4" d="M148.608 186.805C164.143 171.581 164.143 146.898 148.608 131.674C133.073 116.449 107.886 116.449 92.3511 131.674C76.8162 146.898 76.8162 171.581 92.3511 186.805C107.886 202.029 133.073 202.029 148.608 186.805Z" fill="black"/>
<path d="M146.187 182.706C161.722 167.482 161.722 142.799 146.187 127.575C130.652 112.351 105.465 112.351 89.9302 127.575C74.3953 142.799 74.3953 167.482 89.9302 182.706C105.465 197.931 130.652 197.931 146.187 182.706Z" fill="#FFC727"/>
<path opacity="0.2" d="M120.697 183.587C137.359 182 149.586 167.806 148.007 151.884C146.428 135.961 131.641 124.34 114.98 125.927C98.3177 127.513 86.0904 141.707 87.6691 157.63C89.2479 173.552 104.035 185.174 120.697 183.587Z" fill="#828080"/>
<path d="M120.692 183.462C112.844 184.209 105.008 181.928 98.8498 177.102C92.6913 172.277 88.6957 165.289 87.7119 157.622C87.7119 157.904 87.7439 158.186 87.7713 158.469C88.5488 166.308 92.472 173.523 98.6779 178.527C104.884 183.531 112.864 185.915 120.863 185.153C128.862 184.391 136.225 180.546 141.331 174.464C146.437 168.382 148.869 160.562 148.092 152.723C148.06 152.441 148.019 152.163 147.987 151.881C148.527 159.591 145.978 167.204 140.881 173.101C135.784 178.999 128.541 182.715 120.692 183.462Z" fill="#FAFAFA"/>
<path opacity="0.3" d="M114.994 126.027C122.842 125.281 130.677 127.563 136.836 132.388C142.995 137.213 146.992 144.201 147.978 151.867C147.955 151.585 147.941 151.308 147.914 151.021C147.137 143.182 143.213 135.967 137.007 130.962C130.801 125.958 122.821 123.575 114.822 124.337C106.823 125.099 99.4607 128.943 94.3543 135.025C89.2479 141.107 86.8159 148.928 87.5934 156.767C87.6254 157.053 87.6665 157.331 87.7031 157.609C87.1629 149.899 89.7116 142.287 94.8076 136.39C99.9036 130.493 107.145 126.775 114.994 126.027Z" fill="black"/>
<path d="M134.396 161.666C133.985 157.515 131.7 155.02 128.616 154.205C130.626 152.678 131.814 150.126 131.485 146.843C131.083 142.763 128.474 140.09 123.991 139.539L123.488 134.501L118.745 134.948L119.202 139.633L116.529 139.91L116.072 135.226L111.324 135.674L111.781 140.358L107.458 140.77L104.446 141.057L104.903 145.71L107.915 145.419L110.131 168.026L106.8 168.343L107.257 172.996L110.588 172.679L114.911 172.267L115.45 177.712L120.198 177.264L119.659 171.819L122.351 171.563L122.926 177.005L127.674 176.557L127.117 170.932C132.386 169.682 134.867 166.395 134.396 161.666ZM113.919 144.837L120.349 144.228C123.913 143.887 126.079 145.155 126.372 148.119C126.664 151.084 124.786 152.687 121.222 153.045L113.91 153.74L113.037 144.94L113.919 144.837ZM123.621 166.749L115.852 167.488L115.304 167.542L114.39 158.33L122.712 157.537C126.596 157.166 128.835 158.379 129.15 161.568C129.466 164.756 127.496 166.373 123.621 166.745V166.749Z" fill="#FFC727"/>
<path opacity="0.3" d="M134.396 161.666C133.985 157.515 131.7 155.02 128.616 154.205C130.626 152.678 131.814 150.126 131.485 146.843C131.083 142.763 128.474 140.09 123.991 139.539L123.488 134.501L118.745 134.948L119.202 139.633L116.529 139.91L116.072 135.226L111.324 135.674L111.781 140.358L107.458 140.77L104.446 141.057L104.903 145.71L107.915 145.419L110.131 168.026L106.8 168.343L107.257 172.996L110.588 172.679L114.911 172.267L115.45 177.712L120.198 177.264L119.659 171.819L122.351 171.563L122.926 177.005L127.674 176.557L127.117 170.932C132.386 169.682 134.867 166.395 134.396 161.666ZM113.919 144.837L120.349 144.228C123.913 143.887 126.079 145.155 126.372 148.119C126.664 151.084 124.786 152.687 121.222 153.045L113.91 153.74L113.037 144.94L113.919 144.837ZM123.621 166.749L115.852 167.488L115.304 167.542L114.39 158.33L122.712 157.537C126.596 157.166 128.835 158.379 129.15 161.568C129.466 164.756 127.496 166.373 123.621 166.745V166.749Z" fill="black"/>
<path d="M132.093 161.886C131.682 157.734 129.392 155.24 126.312 154.425C128.318 152.897 129.511 150.345 129.182 147.062C128.775 142.982 126.171 140.309 121.683 139.758L121.185 134.72L116.437 135.168L116.894 139.852L114.198 140.107L113.741 135.423L108.998 135.871L109.455 140.555L105.132 140.967L102.12 141.254L102.577 145.907L105.589 145.62L107.846 168.249L104.519 168.563L104.976 173.216L108.303 172.898L112.626 172.486L113.17 177.931L117.913 177.484L117.374 172.038L120.07 171.783L120.609 177.228L125.357 176.78L124.795 171.156C130.078 169.915 132.559 166.615 132.093 161.886ZM111.616 145.056L118.041 144.442C121.605 144.102 123.772 145.369 124.069 148.334C124.366 151.299 122.483 152.902 118.914 153.26L111.602 153.954L110.725 145.154L111.616 145.056ZM121.313 166.964L113.544 167.703L112.996 167.757L112.082 158.545L120.408 157.752C124.288 157.38 126.532 158.594 126.847 161.783C127.162 164.971 125.211 166.592 121.313 166.964Z" fill="#FFC727"/>
<path d="M154 138.365C153.93 138.284 153.87 138.196 153.822 138.101L153.365 137.29C153.173 136.928 152.908 136.489 152.606 135.983C152.305 135.477 151.948 134.877 151.5 134.241C149.071 130.587 146.036 127.357 142.521 124.684C140.096 122.848 137.467 121.287 134.684 120.031C131.482 118.602 128.101 117.593 124.63 117.03C122.759 116.715 120.867 116.541 118.968 116.511C116.983 116.462 114.996 116.567 113.028 116.824C110.995 117.085 108.986 117.5 107.019 118.065C102.958 119.23 99.1149 121.027 95.6353 123.385C93.9467 124.526 92.3529 125.796 90.8691 127.183C88.0576 129.81 85.6557 132.828 83.7403 136.14C82.0062 139.136 80.6818 142.343 79.8011 145.678C79.0606 148.588 78.6574 151.57 78.5993 154.568C78.5389 157.047 78.7256 159.527 79.1568 161.971C79.4793 163.819 79.9374 165.642 80.5277 167.425C80.7516 168.164 80.9847 168.805 81.2132 169.364C81.4417 169.924 81.6108 170.39 81.7753 170.766L82.1271 171.626C82.1746 171.722 82.207 171.825 82.2231 171.931C82.1578 171.846 82.1026 171.754 82.0586 171.657L81.6427 170.824C81.4554 170.457 81.236 169.996 81.0167 169.441C80.7973 168.885 80.5094 168.249 80.2672 167.51C79.6248 165.727 79.1252 163.897 78.7729 162.038C78.2967 159.573 78.0717 157.068 78.1012 154.559C78.1652 147.988 79.9242 141.539 83.2147 135.813C85.1488 132.438 87.5819 129.362 90.4349 126.686C91.9461 125.273 93.5671 123.978 95.2834 122.812C98.8223 120.408 102.734 118.58 106.868 117.398C108.872 116.824 110.92 116.404 112.991 116.144C114.988 115.889 117.002 115.789 119.014 115.844C120.945 115.882 122.87 116.066 124.772 116.395C131.383 117.486 137.603 120.205 142.85 124.294C144.86 125.849 146.706 127.596 148.361 129.512C149.607 130.95 150.737 132.48 151.743 134.088C152.177 134.738 152.506 135.351 152.798 135.88C153.091 136.408 153.328 136.852 153.502 137.223L153.9 138.07C154 138.262 154.027 138.361 154 138.365Z" fill="#FAFAFA"/>
<path d="M113.74 135.432C113.74 135.553 111.912 135.835 109.024 136.175L109.289 135.857C109.454 137.201 109.632 138.804 109.815 140.533L109.847 140.878L109.495 140.913L108.215 141.039C105.972 141.254 103.883 141.429 102.151 141.554L102.421 141.24C102.636 144.053 102.709 145.907 102.585 145.92C102.462 145.934 102.174 144.098 101.831 141.294L101.795 141.012L102.097 140.981C103.819 140.775 105.903 140.555 108.147 140.34L109.426 140.224L109.107 140.6C108.942 138.871 108.805 137.264 108.7 135.916V135.62L108.983 135.598C111.848 135.383 113.731 135.311 113.74 135.432Z" fill="#FAFAFA"/>
<path d="M122.191 134.707C122.191 134.899 120.939 135.177 119.353 135.329C117.767 135.481 116.47 135.446 116.451 135.253C116.433 135.06 117.699 134.783 119.285 134.635C120.87 134.487 122.173 134.536 122.191 134.707Z" fill="#FAFAFA"/>
<path d="M107.563 167.945C107.366 167.945 106.713 163.019 106.109 156.888C105.506 150.757 105.168 145.786 105.365 145.768C105.561 145.75 106.21 150.694 106.818 156.821C107.426 162.947 107.759 167.927 107.563 167.945Z" fill="#FAFAFA"/>
<path d="M121.321 153.054C121.321 153.247 119.306 153.601 116.774 153.838C114.242 154.075 112.181 154.12 112.163 153.928C112.145 153.735 114.178 153.386 116.706 153.144C119.233 152.902 121.303 152.862 121.321 153.054Z" fill="#FAFAFA"/>
<path d="M122.867 166.852C122.89 167.045 120.852 167.394 118.325 167.636C115.798 167.878 113.732 167.913 113.709 167.725C113.686 167.537 115.724 167.179 118.256 166.937C120.788 166.695 122.849 166.659 122.867 166.852Z" fill="#FAFAFA"/>
<path d="M112.374 197.408C111.446 196.129 110.65 194.762 109.998 193.328C110.925 194.608 111.721 195.975 112.374 197.408Z" fill="#263238"/>
<path d="M105.827 195.361C105.347 194.772 104.93 194.136 104.584 193.463C104.169 192.828 103.823 192.152 103.551 191.447C104.45 192.67 105.216 193.982 105.836 195.361H105.827Z" fill="#263238"/>
<path d="M99.8255 192.544C99.3484 191.954 98.9335 191.318 98.5871 190.646C98.1712 190.011 97.8236 189.335 97.5498 188.63C98.0294 189.22 98.4459 189.856 98.7928 190.529C99.2074 191.164 99.5535 191.839 99.8255 192.544Z" fill="#263238"/>
<path d="M119.27 198.236C118.775 197.618 118.344 196.954 117.981 196.252C117.549 195.591 117.186 194.889 116.898 194.157C117.394 194.773 117.826 195.436 118.187 196.136C118.62 196.798 118.983 197.502 119.27 198.236Z" fill="#263238"/>
<path d="M125.704 197.887C124.778 196.607 123.982 195.24 123.328 193.807C124.257 195.086 125.053 196.453 125.704 197.887Z" fill="#263238"/>
<path d="M132.011 196.539C131.514 195.923 131.081 195.26 130.718 194.56C130.289 193.895 129.927 193.192 129.635 192.459C130.132 193.077 130.565 193.741 130.928 194.443C131.357 195.106 131.72 195.808 132.011 196.539Z" fill="#263238"/>
<path d="M137.778 194.47C137.28 193.852 136.847 193.188 136.484 192.486C136.056 191.823 135.694 191.121 135.401 190.39C135.899 191.006 136.333 191.669 136.695 192.37C137.123 193.034 137.486 193.738 137.778 194.47Z" fill="#263238"/>
<path d="M143.289 191.304C142.793 190.685 142.36 190.021 141.996 189.32C141.568 188.655 141.205 187.952 140.913 187.22C141.41 187.837 141.844 188.502 142.206 189.204C142.636 189.868 142.999 190.571 143.289 191.304Z" fill="#263238"/>
<path d="M148.059 187.426C147.563 186.807 147.13 186.143 146.766 185.442C146.337 184.777 145.974 184.074 145.683 183.341C146.18 183.959 146.613 184.624 146.976 185.325C147.405 185.989 147.768 186.693 148.059 187.426Z" fill="#263238"/>
<path d="M151.856 183.35C151.362 182.731 150.931 182.067 150.567 181.366C150.135 180.704 149.772 180 149.484 179.266C149.979 179.884 150.411 180.549 150.773 181.25C151.207 181.912 151.57 182.616 151.856 183.35Z" fill="#263238"/>
<path d="M155.302 178.639C154.376 177.357 153.581 175.989 152.926 174.555C153.422 175.173 153.855 175.838 154.219 176.539C154.65 177.202 155.013 177.906 155.302 178.639Z" fill="#263238"/>
<path d="M158.113 173.292C157.615 172.674 157.182 172.01 156.819 171.308C156.39 170.644 156.027 169.941 155.736 169.208C156.232 169.826 156.666 170.491 157.03 171.192C157.458 171.856 157.821 172.56 158.113 173.292Z" fill="#263238"/>
<path d="M159.895 167.291C159.397 166.673 158.964 166.009 158.602 165.307C158.172 164.64 157.809 163.934 157.519 163.198C158.015 163.816 158.448 164.481 158.812 165.182C159.241 165.849 159.603 166.556 159.895 167.291Z" fill="#263238"/>
<path d="M160.722 160.923C160.139 160.158 159.621 159.348 159.173 158.5C158.656 157.691 158.208 156.842 157.834 155.961C158.93 157.537 159.896 159.196 160.722 160.923Z" fill="#263238"/>
<path d="M159.827 151.953C159.246 151.187 158.73 150.377 158.282 149.53C157.766 148.721 157.317 147.874 156.938 146.995C157.523 147.759 158.041 148.569 158.488 149.418C159.002 150.227 159.45 151.074 159.827 151.953Z" fill="#263238"/>
<g opacity="0.2">
<path opacity="0.2" d="M92.3816 142.405L124.676 139.301L129.46 144.196L129.488 144.227H129.534L139.322 143.233L141.95 142.956L142.626 142.875H142.754C142.761 142.915 142.773 142.954 142.79 142.991C142.858 143.136 142.969 143.256 143.109 143.335C143.249 143.414 143.411 143.449 143.572 143.433C143.733 143.418 143.885 143.354 144.007 143.25C144.129 143.146 144.215 143.007 144.253 142.853C144.282 142.729 144.278 142.601 144.242 142.479C144.206 142.358 144.139 142.247 144.047 142.158C143.924 142.042 143.761 141.977 143.59 141.975C143.476 141.975 143.421 142.006 143.421 142.02C143.421 142.033 143.682 142.02 143.878 142.288C143.935 142.358 143.974 142.44 143.991 142.527C144.009 142.614 144.004 142.705 143.979 142.79C143.948 142.89 143.888 142.979 143.806 143.046C143.724 143.112 143.623 143.153 143.517 143.163C143.411 143.174 143.305 143.152 143.211 143.103C143.117 143.053 143.041 142.977 142.991 142.884C142.95 142.805 142.928 142.718 142.928 142.629C142.928 142.54 142.95 142.452 142.991 142.373C143.151 142.087 143.416 142.064 143.403 142.02C143.389 141.975 143.343 141.988 143.229 142.02C143.065 142.056 142.921 142.152 142.827 142.288C142.768 142.373 142.729 142.47 142.711 142.571C142.692 142.672 142.696 142.775 142.722 142.875H142.594L141.918 142.929L139.285 143.162L129.534 144.057L124.767 139.131L124.731 139.091H124.681L92.3541 142.15L80.1529 143.318C80.1209 143.408 80.0935 143.498 80.0615 143.587L92.3816 142.405Z" fill="#828080"/>
<path opacity="0.2" d="M143.064 134.957L148.164 140.058L148.2 140.094H148.255L154.484 139.463C154.484 139.418 154.443 139.373 154.424 139.324L148.292 139.866L143.21 134.738L143.165 134.693H143.101L139.038 135.078L124.004 136.552L119.434 137.026L118.2 137.17C118.055 137.18 117.912 137.203 117.771 137.237C117.915 137.249 118.06 137.249 118.205 137.237L119.448 137.143L124.017 136.753L139.061 135.36L143.064 134.957Z" fill="#828080"/>
<path opacity="0.2" d="M110.459 152.598L113.622 153.887H113.645L118.968 153.408L120.38 153.269H120.476C120.49 153.369 120.542 153.459 120.622 153.522C120.702 153.584 120.804 153.614 120.906 153.605C121.011 153.595 121.108 153.544 121.176 153.464C121.243 153.384 121.275 153.281 121.265 153.177C121.254 153.074 121.203 152.979 121.121 152.913C121.039 152.847 120.934 152.816 120.828 152.826C120.728 152.837 120.636 152.885 120.57 152.959C120.504 153.034 120.469 153.13 120.472 153.229H120.376L118.959 153.323L113.654 153.726L110.496 152.409H110.473H110.446L87.7661 154.532L79.8193 155.294L78.2656 154.555C78.2656 154.649 78.2656 154.743 78.2656 154.837L79.7417 155.544H79.7736H79.8148L87.7935 154.787L110.459 152.598Z" fill="#828080"/>
<path opacity="0.2" d="M113.367 150.614L110.383 149.718H110.355H110.328L108.418 149.91C108.312 148.71 108.212 147.564 108.116 146.48V146.364H107.997L99.2461 147.313L96.8013 147.595L96.5317 147.631C96.5149 147.536 96.4624 147.451 96.3845 147.392C96.3067 147.333 96.2092 147.305 96.1112 147.313C96.0065 147.323 95.9101 147.374 95.8432 147.454C95.7764 147.533 95.7446 147.636 95.7548 147.739C95.7615 147.841 95.8093 147.936 95.8877 148.004C95.9661 148.071 96.0687 148.106 96.1729 148.099C96.2772 148.092 96.3745 148.046 96.4435 147.969C96.5124 147.892 96.5475 147.791 96.5408 147.689L96.8104 147.667L99.2644 147.447L107.892 146.628C107.977 147.718 108.07 148.864 108.171 150.067V150.193H108.303L110.319 149.996L113.303 150.891H113.33H113.357L117.073 150.537L133.816 148.903L136.919 150.573H136.942H136.965L140.109 150.237L140.94 150.139H140.982C141.048 150.285 141.16 150.406 141.301 150.487C141.442 150.567 141.605 150.601 141.768 150.585C141.93 150.57 142.083 150.504 142.205 150.398C142.327 150.292 142.413 150.151 142.448 149.996C142.478 149.873 142.474 149.745 142.438 149.624C142.402 149.503 142.335 149.394 142.243 149.306C142.121 149.188 141.957 149.12 141.786 149.118C141.672 149.118 141.617 149.149 141.617 149.167C141.617 149.185 141.877 149.167 142.074 149.436C142.131 149.505 142.171 149.587 142.189 149.674C142.208 149.761 142.204 149.852 142.179 149.937C142.15 150.039 142.09 150.129 142.007 150.197C141.924 150.265 141.823 150.306 141.716 150.316C141.609 150.327 141.501 150.305 141.407 150.254C141.312 150.203 141.236 150.126 141.187 150.031C141.146 149.952 141.125 149.865 141.125 149.776C141.125 149.687 141.146 149.6 141.187 149.521C141.347 149.234 141.612 149.207 141.598 149.167C141.585 149.127 141.534 149.131 141.425 149.167C141.261 149.201 141.117 149.296 141.023 149.431C140.955 149.529 140.912 149.64 140.898 149.757C140.884 149.874 140.898 149.993 140.94 150.103H140.908L140.072 150.161L136.946 150.426L133.894 148.71H133.866H133.834L117.054 150.273L113.367 150.614Z" fill="#828080"/>
<path opacity="0.2" d="M95.8232 180.018C95.7017 179.9 95.5377 179.832 95.3662 179.83C95.252 179.83 95.1971 179.862 95.1971 179.88C95.1971 179.898 95.4576 179.88 95.6541 180.148C95.711 180.218 95.7498 180.3 95.7673 180.387C95.7849 180.474 95.7805 180.565 95.7546 180.65C95.7245 180.75 95.6645 180.839 95.5824 180.906C95.5002 180.972 95.3996 181.013 95.2935 181.023C95.1874 181.034 95.0806 181.012 94.9869 180.963C94.8932 180.913 94.8168 180.837 94.7676 180.744C94.7259 180.665 94.7042 180.578 94.7042 180.489C94.7042 180.4 94.7259 180.312 94.7676 180.233C94.9275 179.947 95.1926 179.92 95.1789 179.88C95.1652 179.839 95.1149 179.844 95.0052 179.88C94.8416 179.914 94.6977 180.009 94.6031 180.144C94.5306 180.249 94.4867 180.37 94.4755 180.496C94.4643 180.622 94.4862 180.749 94.5391 180.865C94.6053 181.01 94.7162 181.132 94.8564 181.212C94.9965 181.292 95.1589 181.327 95.3205 181.313C95.4819 181.296 95.6341 181.23 95.756 181.125C95.8779 181.02 95.9636 180.881 96.0014 180.726C96.0014 180.726 96.0014 180.726 96.0014 180.699H96.1202L96.7097 180.659L98.9398 180.484L106.754 179.79H106.823L106.855 179.727L109.103 175.056V175.025V174.985C109.034 174.277 108.961 173.552 108.888 172.817C108.568 169.66 108.267 166.691 108.011 164.152V164.093L107.96 164.067L104.222 161.662H104.19L100.535 162.051L99.5521 162.168H99.4196C99.4045 161.998 99.3284 161.84 99.2048 161.72C99.083 161.602 98.9192 161.534 98.7478 161.532C98.6336 161.532 98.5788 161.563 98.5788 161.581C98.5788 161.599 98.8392 161.581 99.0357 161.85C99.0915 161.919 99.1297 162 99.1472 162.086C99.1647 162.173 99.161 162.262 99.1363 162.347C99.1087 162.449 99.05 162.54 98.9681 162.609C98.8861 162.678 98.7847 162.72 98.6775 162.731C98.5703 162.742 98.4623 162.72 98.3679 162.669C98.2735 162.618 98.1972 162.54 98.1492 162.445C98.1075 162.367 98.0858 162.279 98.0858 162.19C98.0858 162.101 98.1075 162.014 98.1492 161.935C98.3091 161.648 98.5742 161.621 98.5605 161.581C98.5468 161.541 98.4965 161.545 98.3868 161.581C98.2224 161.614 98.0779 161.709 97.9847 161.845C97.9102 161.948 97.8647 162.069 97.8527 162.195C97.8406 162.32 97.8625 162.447 97.9161 162.562C97.9824 162.708 98.0938 162.83 98.2346 162.91C98.3753 162.991 98.5384 163.026 98.7006 163.01C98.8628 162.995 99.016 162.93 99.1385 162.825C99.2609 162.719 99.3465 162.579 99.383 162.423C99.3943 162.353 99.3943 162.282 99.383 162.213H99.511L100.503 162.141L104.131 161.836C105.177 162.526 106.416 163.341 107.787 164.232C108.034 166.763 108.317 169.714 108.623 172.849C108.696 173.57 108.765 174.282 108.838 174.98L106.653 179.562L98.9169 180.35L96.696 180.596L96.1111 180.672H95.9968C96.0242 180.558 96.0227 180.438 95.9924 180.324C95.9622 180.21 95.9041 180.105 95.8232 180.018Z" fill="#828080"/>
<path opacity="0.2" d="M137.548 168.791C137.648 168.781 137.739 168.734 137.805 168.66C137.87 168.586 137.904 168.49 137.9 168.393L139.056 168.308L143.334 167.945H143.361H143.384L147.862 164.322L156.915 163.471C156.915 163.377 156.956 163.287 156.979 163.193L147.798 164.089H147.762L147.73 164.116L143.283 167.788L139.047 168.236L137.891 168.375C137.878 168.273 137.824 168.181 137.741 168.118C137.658 168.056 137.554 168.028 137.45 168.041C137.346 168.054 137.252 168.107 137.189 168.188C137.125 168.269 137.096 168.372 137.11 168.473C137.127 168.572 137.182 168.66 137.264 168.719C137.345 168.778 137.447 168.804 137.548 168.791Z" fill="#828080"/>
<path opacity="0.2" d="M116.898 193.96C116.898 193.825 116.898 193.651 116.866 193.445C116.82 192.84 116.752 192.043 116.679 191.076C116.505 189.083 116.245 186.324 115.943 183.283C115.847 182.334 115.756 181.407 115.664 180.529V180.475L115.623 180.444L111.053 176.803C110.967 176.078 110.893 175.46 110.839 175.012C110.797 174.707 110.765 174.506 110.747 174.416C110.797 174.428 110.848 174.428 110.898 174.416C110.976 174.409 111.051 174.379 111.111 174.33C111.172 174.281 111.217 174.215 111.24 174.142C111.263 174.068 111.263 173.989 111.24 173.915C111.217 173.842 111.173 173.776 111.112 173.727C111.051 173.678 110.977 173.648 110.898 173.641C110.82 173.633 110.741 173.648 110.672 173.685C110.603 173.721 110.546 173.777 110.509 173.845C110.472 173.913 110.456 173.99 110.464 174.067C110.471 174.139 110.499 174.207 110.544 174.264C110.589 174.322 110.65 174.365 110.72 174.389C110.72 174.474 110.72 174.68 110.747 175.003C110.784 175.451 110.829 176.082 110.889 176.83V176.861L110.916 176.888L115.431 180.583C115.513 181.447 115.6 182.352 115.692 183.27C115.993 186.311 116.281 189.065 116.505 191.058C116.619 192.016 116.711 192.809 116.784 193.413L116.852 193.928C116.759 193.944 116.675 193.991 116.615 194.063H117.241C117.196 194.021 117.141 193.989 117.082 193.972C117.022 193.954 116.959 193.95 116.898 193.96Z" fill="#828080"/>
<path opacity="0.2" d="M98.4226 136.475C98.4269 136.529 98.4425 136.58 98.4683 136.627C98.4941 136.674 98.5296 136.716 98.5726 136.749C98.6156 136.781 98.6651 136.805 98.7179 136.818C98.7708 136.831 98.8258 136.834 98.8795 136.825C98.9562 136.813 99.0277 136.78 99.0852 136.729C99.1427 136.678 99.1838 136.611 99.2033 136.538C99.2228 136.464 99.2199 136.386 99.1949 136.314C99.17 136.242 99.1241 136.179 99.063 136.132C99.0018 136.086 98.928 136.057 98.8507 136.051C98.7734 136.045 98.6959 136.061 98.6278 136.098C98.5598 136.134 98.5041 136.189 98.4676 136.256C98.4311 136.324 98.4155 136.4 98.4226 136.475Z" fill="#828080"/>
<path opacity="0.2" d="M129.996 171.863L130.786 171.783H130.923C130.921 171.808 130.921 171.833 130.923 171.859C130.928 171.91 130.943 171.96 130.967 172.005C130.992 172.05 131.025 172.09 131.065 172.123C131.106 172.155 131.152 172.18 131.203 172.194C131.253 172.209 131.305 172.214 131.357 172.208C131.462 172.197 131.557 172.146 131.624 172.066C131.691 171.987 131.723 171.885 131.714 171.783C131.709 171.687 131.668 171.597 131.599 171.529C131.53 171.462 131.437 171.422 131.34 171.417C131.242 171.413 131.146 171.444 131.071 171.505C130.996 171.566 130.946 171.652 130.932 171.747H130.786L129.991 171.783L127.025 171.966L117.086 172.66C116.949 171.574 116.809 170.454 116.666 169.302C116.625 168.984 116.583 168.666 116.547 168.37L120.111 164.532L120.152 164.492V164.434C120.02 163.184 119.896 162.002 119.787 160.936V160.891L119.75 160.86L118.562 159.911L118.526 159.884H118.484L113.969 160.358L112.736 160.506H112.585C112.57 160.336 112.492 160.176 112.366 160.058C112.244 159.94 112.08 159.872 111.909 159.87C111.794 159.87 111.739 159.902 111.739 159.919C111.739 159.937 112 159.919 112.196 160.188C112.281 160.292 112.325 160.422 112.32 160.555H112.279H112.315C112.322 160.592 112.322 160.63 112.315 160.667C112.287 160.769 112.228 160.86 112.146 160.928C112.064 160.997 111.962 161.038 111.855 161.049C111.748 161.059 111.64 161.037 111.546 160.986C111.452 160.934 111.376 160.856 111.328 160.761C111.287 160.683 111.265 160.595 111.265 160.506C111.265 160.417 111.287 160.33 111.328 160.251C111.488 159.969 111.753 159.942 111.739 159.902C111.726 159.861 111.68 159.866 111.566 159.902C111.401 159.934 111.257 160.029 111.164 160.166C111.091 160.27 111.047 160.39 111.036 160.516C111.025 160.641 111.047 160.768 111.1 160.882C111.165 161.029 111.276 161.152 111.416 161.233C111.557 161.314 111.72 161.349 111.882 161.334C112.045 161.318 112.198 161.253 112.32 161.147C112.442 161.041 112.527 160.9 112.562 160.744C112.568 160.682 112.568 160.621 112.562 160.56H112.713L113.951 160.47L118.434 160.085L119.545 160.981C119.641 162.02 119.75 163.166 119.864 164.38L116.282 168.213L116.241 168.258V168.321C116.277 168.634 116.323 168.97 116.364 169.311L116.821 172.795V172.925H116.949L127.002 172.127L129.996 171.863Z" fill="#828080"/>
<path opacity="0.2" d="M124.054 170.627C123.84 168.084 123.597 165.406 123.383 162.687C123.351 162.311 123.319 161.939 123.291 161.563V161.509L123.246 161.474L119.421 158.245L119.375 158.209H119.316L95.6718 160.475H95.6398H95.6169L81.2588 169.92L81.3273 170.09L95.7266 160.685L119.284 158.446L123.026 161.581C123.054 161.935 123.086 162.289 123.113 162.647C123.351 165.415 123.57 168.137 123.799 170.708V170.842H123.936L155.535 168.155L155.609 167.954L124.054 170.627Z" fill="#828080"/>
<path opacity="0.2" d="M123.487 156.239C123.574 157.004 123.702 158.088 123.857 159.445V159.476L123.889 159.499L130.616 164.609L130.652 164.635H130.693L139.623 163.798L155.068 162.302L157.216 162.078L157.244 161.922L155.05 162.11L139.604 163.543L130.73 164.398L124.013 159.409C123.83 158.066 123.683 157.004 123.556 156.243C123.505 155.894 123.46 155.612 123.428 155.397C123.419 155.299 123.4 155.203 123.368 155.11C123.359 155.207 123.359 155.304 123.368 155.401C123.423 155.585 123.45 155.88 123.487 156.239Z" fill="#828080"/>
<path opacity="0.2" d="M131.078 146.149H131.042L131.01 146.171L128.693 147.77L121.404 148.513L119.316 148.746L118.813 148.813C118.793 148.658 118.718 148.514 118.603 148.406C118.482 148.287 118.317 148.219 118.146 148.218C118.032 148.218 117.972 148.249 117.977 148.267C117.981 148.285 118.237 148.267 118.434 148.536C118.508 148.626 118.55 148.738 118.552 148.854C118.561 148.913 118.561 148.973 118.552 149.033C118.521 149.131 118.461 149.219 118.38 149.286C118.299 149.352 118.2 149.395 118.096 149.409C117.989 149.418 117.883 149.396 117.789 149.346C117.696 149.296 117.619 149.219 117.57 149.127C117.528 149.048 117.506 148.96 117.506 148.872C117.506 148.783 117.528 148.695 117.57 148.616C117.725 148.33 117.995 148.303 117.981 148.262C117.968 148.222 117.917 148.227 117.803 148.262C117.64 148.298 117.496 148.392 117.401 148.527C117.328 148.632 117.285 148.753 117.273 148.879C117.262 149.005 117.284 149.132 117.337 149.248C117.404 149.392 117.516 149.512 117.657 149.591C117.797 149.67 117.959 149.704 118.12 149.688C118.281 149.672 118.433 149.607 118.555 149.503C118.677 149.398 118.762 149.259 118.799 149.104C118.815 149.025 118.815 148.942 118.799 148.863L119.302 148.836L121.395 148.67L128.706 148.021H128.743H128.77L131.092 146.435L134.967 146.14L146.949 145.172L150.577 144.845L151.519 144.751C151.526 144.85 151.572 144.941 151.647 145.007C151.722 145.072 151.82 145.106 151.921 145.103C152.021 145.099 152.116 145.057 152.186 144.986C152.255 144.915 152.294 144.821 152.294 144.722C152.294 144.624 152.255 144.529 152.186 144.458C152.116 144.387 152.021 144.346 151.921 144.342C151.82 144.338 151.722 144.373 151.647 144.438C151.572 144.504 151.526 144.595 151.519 144.693L150.577 144.742L146.921 144.98L134.94 145.876L131.078 146.149Z" fill="#828080"/>
<path opacity="0.2" d="M111.278 185.187C111.172 184.103 111.063 183.055 110.962 182.052V182.007L110.907 181.971L108.426 180.457L108.389 180.431H108.348L102.65 181.026L101.037 181.214L100.849 181.237C100.833 181.141 100.779 181.055 100.701 180.996C100.622 180.937 100.523 180.909 100.424 180.919C100.323 180.933 100.231 180.985 100.168 181.064C100.105 181.143 100.075 181.243 100.085 181.342C100.095 181.442 100.144 181.535 100.222 181.6C100.299 181.665 100.4 181.699 100.502 181.693C100.601 181.683 100.692 181.637 100.757 181.564C100.822 181.491 100.857 181.396 100.854 181.299H101.041L102.664 181.178L108.33 180.686L110.706 182.164C110.807 183.149 110.907 184.179 111.008 185.236L111.876 193.651L112.086 193.682C111.862 191.331 111.584 188.389 111.278 185.187Z" fill="#828080"/>
<path opacity="0.2" d="M115.115 191.707L115.152 191.662V191.608C114.736 187.439 114.339 183.516 113.996 180.081V180.032L113.955 180.001L110.468 177.211C110.157 174.268 109.901 171.863 109.723 170.166C109.632 169.347 109.554 168.697 109.504 168.231C109.476 168.03 109.458 167.869 109.44 167.739H109.522C109.6 167.731 109.675 167.701 109.735 167.652C109.796 167.604 109.841 167.538 109.864 167.464C109.887 167.391 109.887 167.312 109.864 167.238C109.841 167.164 109.797 167.099 109.736 167.05C109.675 167.001 109.601 166.971 109.522 166.963C109.444 166.956 109.365 166.971 109.296 167.007C109.227 167.044 109.17 167.1 109.133 167.168C109.096 167.236 109.08 167.313 109.088 167.39C109.097 167.472 109.133 167.549 109.19 167.61C109.248 167.671 109.324 167.711 109.408 167.725C109.408 167.855 109.408 168.021 109.44 168.227C109.481 168.675 109.536 169.347 109.604 170.171C109.764 171.877 109.988 174.3 110.262 177.264V177.305L110.294 177.336L113.758 180.144C114.092 183.556 114.471 187.439 114.873 191.568L114.489 192.016L112.995 193.807L113.319 193.843C113.776 193.315 114.233 192.759 114.69 192.195L115.115 191.707Z" fill="#828080"/>
<path opacity="0.2" d="M151.583 174.483L131.723 176.337L127.368 176.754H127.272L127.249 176.843L125.878 181.886V181.931C126.335 186.279 126.723 190.108 127.034 193.127L127.203 193.086C126.915 190.081 126.554 186.266 126.138 181.935C126.595 180.368 127.052 178.715 127.509 177.009L131.768 176.606L151.624 174.676L152.57 174.577L152.679 174.389L151.583 174.483Z" fill="#828080"/>
<path opacity="0.2" d="M126.582 158.836V158.898L126.636 158.934L128.044 159.915L131.988 162.651L132.029 162.678H132.065L142.196 161.666L145.144 161.348L145.816 161.263C145.829 161.365 145.883 161.457 145.966 161.519C146.048 161.582 146.153 161.61 146.257 161.597C146.36 161.584 146.454 161.531 146.518 161.45C146.582 161.369 146.61 161.266 146.597 161.164C146.592 161.114 146.578 161.065 146.554 161.02C146.529 160.974 146.496 160.935 146.456 160.902C146.417 160.87 146.37 160.845 146.321 160.83C146.271 160.815 146.219 160.81 146.167 160.815C146.068 160.825 145.976 160.872 145.909 160.946C145.843 161.02 145.808 161.116 145.811 161.214L145.135 161.259L142.178 161.5L132.088 162.396L128.19 159.678L126.819 158.737C126.513 155.737 126.23 152.951 125.983 150.551V150.439H125.869L119.471 151.097L117.684 151.299L117.442 151.33C117.41 151.28 117.372 151.235 117.328 151.196C117.268 151.137 117.196 151.091 117.118 151.059C117.04 151.028 116.956 151.012 116.871 151.012C116.757 151.012 116.697 151.043 116.702 151.057C116.706 151.07 116.962 151.057 117.159 151.326C117.168 151.336 117.176 151.348 117.182 151.361L117.026 151.393C117.026 151.393 117.081 151.393 117.191 151.393C117.232 151.459 117.258 151.533 117.269 151.611C117.279 151.688 117.272 151.766 117.25 151.841C117.221 151.942 117.161 152.033 117.078 152.1C116.996 152.168 116.894 152.209 116.787 152.22C116.68 152.23 116.572 152.208 116.478 152.157C116.384 152.106 116.307 152.029 116.258 151.935C116.216 151.856 116.194 151.768 116.194 151.679C116.194 151.59 116.216 151.503 116.258 151.424C116.418 151.137 116.683 151.115 116.67 151.07C116.656 151.026 116.606 151.034 116.492 151.07C116.329 151.107 116.186 151.201 116.089 151.335C116.017 151.439 115.973 151.561 115.962 151.687C115.951 151.813 115.973 151.94 116.025 152.056C116.093 152.2 116.204 152.32 116.344 152.399C116.484 152.478 116.646 152.513 116.807 152.497C116.968 152.482 117.12 152.418 117.242 152.314C117.364 152.21 117.45 152.071 117.488 151.917C117.53 151.746 117.506 151.565 117.419 151.411H117.643L119.434 151.272L125.736 150.716C126.019 153.095 126.284 155.862 126.582 158.836Z" fill="#828080"/>
<path opacity="0.2" d="M157.025 153.462L153.259 150.421L153.214 150.385H153.159L152.825 150.421L136.552 152.002L133.957 150.564H133.925H133.893L130.534 150.896H130.493L130.47 150.927L127.098 154.993V155.016C127.216 156.086 127.312 156.915 127.376 157.497C127.408 157.761 127.436 157.972 127.454 158.133C127.46 158.204 127.472 158.274 127.491 158.343C127.498 158.272 127.498 158.2 127.491 158.128C127.491 157.967 127.463 157.757 127.445 157.488C127.395 156.915 127.322 156.091 127.23 155.029L130.607 151.057L133.897 150.757L136.484 152.212H136.516H136.557L152.871 150.681L153.145 150.654L156.915 153.69L156.956 153.722H157.016L157.825 153.641C157.825 153.556 157.825 153.466 157.825 153.381L157.025 153.462Z" fill="#828080"/>
<path opacity="0.2" d="M105.222 120.676L105.268 120.707L109.248 123.914C109.637 127.716 109.989 131.124 110.267 133.856V133.909L110.318 133.936L114.015 135.728H114.051L116.336 135.481L116.921 135.405C116.989 135.4 117.056 135.388 117.122 135.369C117.055 135.36 116.988 135.36 116.921 135.369L116.327 135.41L114.069 135.593L110.468 133.802C110.203 131.066 109.879 127.653 109.513 123.851V123.788L109.468 123.752L105.483 120.533C105.401 119.753 105.323 118.983 105.245 118.222L104.989 118.311C105.062 119.068 105.135 119.834 105.213 120.613L105.222 120.676Z" fill="#828080"/>
<path opacity="0.2" d="M111.807 123.569L111.775 123.609V123.659C112.063 126.346 112.305 128.638 112.484 130.304C112.575 131.093 112.653 131.728 112.708 132.203C112.727 132.431 112.763 132.657 112.817 132.879C112.826 132.652 112.817 132.425 112.79 132.199C112.753 131.72 112.703 131.079 112.639 130.291C112.488 128.634 112.278 126.354 112.031 123.685L115.737 119.292L117.721 116.919L117.757 116.878V116.825L117.689 116.162H117.442L117.501 116.793L115.545 119.122L111.807 123.569Z" fill="#828080"/>
<path opacity="0.2" d="M116.363 123.408C116.409 123.337 116.432 123.254 116.427 123.17C116.417 123.068 116.365 122.973 116.284 122.908C116.202 122.842 116.098 122.811 115.993 122.821C115.941 122.826 115.891 122.84 115.845 122.864C115.799 122.887 115.758 122.92 115.725 122.959C115.692 122.998 115.667 123.043 115.652 123.092C115.637 123.14 115.632 123.191 115.637 123.242C115.64 123.315 115.665 123.386 115.709 123.446C115.753 123.505 115.813 123.551 115.883 123.577C115.953 123.603 116.029 123.609 116.102 123.593C116.176 123.577 116.242 123.541 116.295 123.488L116.701 123.847C117.135 124.227 117.757 124.742 118.484 125.347C118.538 125.916 118.598 126.525 118.657 127.138C118.794 128.549 118.936 129.825 119.055 130.752C119.09 131.254 119.172 131.752 119.302 132.239C119.329 131.737 119.31 131.233 119.247 130.734C119.183 129.803 119.068 128.522 118.931 127.111C118.863 126.457 118.794 125.83 118.735 125.253V125.199L118.694 125.168C117.931 124.563 117.277 124.057 116.806 123.708L116.363 123.408Z" fill="#828080"/>
<path opacity="0.2" d="M121.048 133.471V133.516L121.076 133.547L123.146 135.656L123.187 135.701H123.251L135.347 134.537L141.585 133.941H141.644L141.681 133.896L146.411 127.819L146.232 127.636L141.498 133.713L135.32 134.299L123.297 135.433L121.295 133.404C120.582 126.427 119.975 120.479 119.545 116.261V116.185H119.39V116.279C119.801 120.506 120.372 126.476 121.048 133.471Z" fill="#828080"/>
<path opacity="0.2" d="M126.124 137.671L123.255 137.904L113.786 138.782C113.749 138.379 113.708 137.958 113.663 137.532V137.434V137.362L113.599 137.331L109.902 135.28L109.865 135.257H109.824L102.229 136.032L100.031 136.278L99.4462 136.355C99.3777 136.36 99.3102 136.373 99.2451 136.395C99.3132 136.406 99.3827 136.406 99.4508 136.395L100.04 136.359L102.243 136.189L109.81 135.513L113.402 137.519V137.55C113.452 138.02 113.498 138.491 113.544 138.934V139.068H113.676L123.273 138.11L126.133 137.797L126.906 137.698C126.996 137.692 127.085 137.674 127.171 137.644C127.081 137.632 126.991 137.632 126.901 137.644L126.124 137.671Z" fill="#828080"/>
<path opacity="0.2" d="M91.3945 126.202L93.9216 128.674L93.9673 128.714H94.0267L100.881 128.029C101.041 129.471 101.174 130.658 101.27 131.518C101.311 131.84 101.347 132.114 101.375 132.337C101.375 132.337 101.343 132.337 101.343 132.364C101.343 132.391 101.343 132.364 101.384 132.387V132.494C101.391 132.609 101.41 132.724 101.443 132.835C101.456 132.72 101.456 132.604 101.443 132.49V132.405C101.587 132.44 101.715 132.52 101.809 132.633C101.866 132.702 101.905 132.784 101.923 132.871C101.942 132.959 101.939 133.049 101.914 133.135C101.885 133.236 101.825 133.327 101.742 133.394C101.66 133.462 101.558 133.503 101.451 133.514C101.344 133.524 101.236 133.502 101.142 133.451C101.047 133.4 100.971 133.323 100.922 133.229C100.88 133.15 100.858 133.062 100.858 132.973C100.858 132.884 100.88 132.797 100.922 132.718C101.082 132.431 101.347 132.405 101.334 132.364C101.32 132.324 101.27 132.328 101.156 132.364C101.075 132.381 100.998 132.412 100.93 132.458C100.862 132.503 100.803 132.561 100.758 132.629C100.684 132.732 100.638 132.854 100.626 132.98C100.614 133.107 100.636 133.234 100.689 133.35C100.757 133.494 100.869 133.614 101.009 133.693C101.15 133.771 101.312 133.805 101.473 133.79C101.634 133.774 101.786 133.709 101.908 133.604C102.029 133.5 102.115 133.361 102.152 133.206C102.182 133.084 102.179 132.956 102.143 132.835C102.107 132.713 102.039 132.604 101.946 132.517C101.825 132.397 101.661 132.33 101.489 132.328C101.466 132.325 101.443 132.325 101.421 132.328C101.421 132.1 101.384 131.831 101.361 131.509C101.283 130.613 101.178 129.404 101.046 127.926V127.819H100.941L94.0861 128.446L91.6185 126.023L91.3945 126.202Z" fill="#828080"/>
</g>
<path d="M22.3915 101.352C22.3915 101.352 28.5744 96.4704 49.1062 107.084C49.1062 107.084 69.7615 115.897 62.8566 124.317C56.9845 131.482 44.9661 127.407 38.3399 124.362C34.5254 122.537 30.9414 120.283 27.6604 117.644C22.3915 113.331 17.9863 106.824 22.3915 101.352Z" fill="#FFC727"/>
<path opacity="0.4" d="M22.3915 101.352C22.3915 101.352 28.5744 96.4704 49.1062 107.084C49.1062 107.084 69.7615 115.897 62.8566 124.317C56.9845 131.482 44.9661 127.407 38.3399 124.362C34.5254 122.537 30.9414 120.283 27.6604 117.644C22.3915 113.331 17.9863 106.824 22.3915 101.352Z" fill="black"/>
<path d="M22.8471 100.993C22.8471 100.993 30.113 93.5908 50.6403 104.213C50.6403 104.213 70.7974 115.468 63.1294 123.224C57.8696 128.54 46.5001 124.536 39.874 121.491C36.3964 119.892 31.5433 117.214 28.5958 114.773C23.3041 110.465 19.4152 104.979 22.8471 100.993Z" fill="#FFC727"/>
<path opacity="0.2" d="M59.4755 120.463C61.3236 117.034 55.5526 110.492 46.5857 105.851C37.6188 101.21 28.8516 100.227 27.0035 103.657C25.1554 107.086 30.9263 113.628 39.8932 118.269C48.8601 122.91 57.6274 123.892 59.4755 120.463Z" fill="#828080"/>
<path d="M54.4527 116.287L51.6788 114.724C50.9707 113.356 49.811 112.264 48.3886 111.625C46.1037 110.658 44.8471 111.146 44.8471 111.146C44.8471 111.146 44.8014 108.933 41.6482 107.469C37.5355 105.548 36.8226 106.797 36.8226 106.797L33.4318 104.89L32.5179 106.439L35.406 108.065L35.1409 108.513L32.1706 106.842L31.2109 108.472L34.2087 110.035L33.7517 110.779L48.6856 119.189L49.33 118.092L52.2683 119.749L53.0909 118.347L50.349 116.802L50.7694 116.085L53.5113 117.63L54.4527 116.287ZM41.2735 112.745L37.5629 110.653C37.5629 110.653 38.5682 108.145 40.8988 109.234C43.2294 110.322 41.2735 112.745 41.2735 112.745ZM47.3604 116.018L44.1616 114.227C44.1616 114.227 44.6186 111.862 46.844 112.857C49.4077 113.985 47.3604 116.018 47.3604 116.018Z" fill="#FFC727"/>
<path opacity="0.4" d="M54.4527 116.287L51.6788 114.724C50.9707 113.356 49.811 112.264 48.3886 111.625C46.1037 110.658 44.8471 111.146 44.8471 111.146C44.8471 111.146 44.8014 108.933 41.6482 107.469C37.5355 105.548 36.8226 106.797 36.8226 106.797L33.4318 104.89L32.5179 106.439L35.406 108.065L35.1409 108.513L32.1706 106.842L31.2109 108.472L34.2087 110.035L33.7517 110.779L48.6856 119.189L49.33 118.092L52.2683 119.749L53.0909 118.347L50.349 116.802L50.7694 116.085L53.5113 117.63L54.4527 116.287ZM41.2735 112.745L37.5629 110.653C37.5629 110.653 38.5682 108.145 40.8988 109.234C43.2294 110.322 41.2735 112.745 41.2735 112.745ZM47.3604 116.018L44.1616 114.227C44.1616 114.227 44.6186 111.862 46.844 112.857C49.4077 113.985 47.3604 116.018 47.3604 116.018Z" fill="black"/>
<path d="M55.1336 115.1L52.3598 113.537C51.652 112.171 50.492 111.08 49.0695 110.443C46.7847 109.475 45.5326 109.964 45.5326 109.964C45.5326 109.964 45.4869 107.751 42.3337 106.287C38.221 104.361 37.5127 105.615 37.5127 105.615L34.1219 103.703L33.208 105.257L36.1006 106.883L35.8356 107.33L32.8652 105.655L31.9102 107.29L34.9079 108.853L34.4509 109.592L49.3803 118.007L50.0246 116.905L52.9675 118.562L53.7901 117.165L51.0482 115.615L51.4641 114.903L54.2973 116.498L55.1336 115.1ZM41.959 111.558L38.2484 109.458C38.2484 109.458 39.2492 106.95 41.5843 108.033C43.9194 109.117 41.959 111.558 41.959 111.558ZM48.0459 114.832L44.8471 113.04C44.8471 113.04 45.3041 110.676 47.525 111.665C50.0932 112.803 48.0459 114.832 48.0459 114.832Z" fill="#FFC727"/>
<path d="M23.7627 100.331C23.7627 100.331 23.8998 100.21 24.2197 100.04C24.3705 99.9545 24.5533 99.8515 24.7817 99.7485C25.0102 99.6455 25.2707 99.5157 25.5769 99.3992C27.2964 98.7158 29.1173 98.3091 30.9692 98.1946C32.2479 98.1068 33.5318 98.1233 34.8078 98.2438C36.2688 98.3925 37.7158 98.653 39.1353 99.023C42.3446 99.9166 45.46 101.107 48.4393 102.579C54.9009 105.566 59.9642 109.78 62.6969 113.524C64.0678 115.405 64.7396 117.228 64.8447 118.522C64.8447 118.683 64.8767 118.831 64.8904 118.97V119.368C64.8954 119.578 64.8786 119.788 64.8401 119.995C64.8338 120.168 64.7951 120.338 64.7259 120.497C64.6528 120.497 64.7853 119.785 64.5751 118.549C64.2073 116.813 63.4242 115.187 62.2902 113.806C59.5209 110.223 54.5216 106.139 48.124 103.201C45.1692 101.738 42.0858 100.539 38.9114 99.6187C37.5394 99.2531 36.1419 98.9867 34.7301 98.8215C33.488 98.6817 32.2367 98.6368 30.9875 98.6872C29.1739 98.7603 27.38 99.0845 25.6591 99.65C24.4253 100.053 23.7855 100.389 23.7627 100.331Z" fill="#FAFAFA"/>
<path opacity="0.4" d="M59.6936 119.923C59.6936 119.923 62.6045 112.951 47.2045 104.755C31.8044 96.5599 26.9971 103.636 26.9971 103.636C26.9971 103.636 30.991 97.7825 47.0217 106.023C60.9823 113.215 59.6936 119.923 59.6936 119.923Z" fill="black"/>
<path d="M55.7507 128.132C55.6593 128.132 55.8009 127.564 56.0386 126.923C56.1484 126.517 56.336 126.136 56.5915 125.799C56.5536 126.216 56.4423 126.624 56.2625 127.004C56.1405 127.399 55.9686 127.778 55.7507 128.132Z" fill="#263238"/>
<path d="M59.5569 126.986C59.4655 126.986 59.5569 126.515 59.7625 126.005C59.9682 125.494 60.1693 125.087 60.2195 125.109C60.2116 125.449 60.1273 125.782 59.9728 126.086C59.8824 126.405 59.7421 126.708 59.5569 126.986Z" fill="#263238"/>
<path d="M52.3965 128.267C52.4361 127.803 52.555 127.348 52.7484 126.923C52.8672 126.478 53.0618 126.055 53.3241 125.674C53.2839 126.137 53.165 126.592 52.9723 127.017C52.8546 127.463 52.6598 127.885 52.3965 128.267Z" fill="#263238"/>
<path d="M49.1289 127.913C49.1788 127.424 49.3084 126.946 49.5128 126.498C49.6397 126.02 49.8449 125.567 50.1205 125.154C49.9421 126.117 49.6073 127.045 49.1289 127.904V127.913Z" fill="#263238"/>
<path d="M45.5732 126.968C45.6232 126.479 45.7528 126.001 45.9571 125.553C46.0862 125.076 46.2913 124.623 46.5649 124.209C46.5128 124.698 46.3833 125.175 46.181 125.624C46.0531 126.101 45.8479 126.555 45.5732 126.968Z" fill="#263238"/>
<path d="M42.2871 125.822C42.337 125.333 42.4666 124.855 42.671 124.406C42.8001 123.93 43.0052 123.477 43.2787 123.063C43.2267 123.551 43.0972 124.029 42.8949 124.478C42.7669 124.955 42.5617 125.409 42.2871 125.822Z" fill="#263238"/>
<path d="M39.0029 124.684C39.0529 124.195 39.1825 123.717 39.3868 123.269C39.5159 122.792 39.721 122.339 39.9946 121.925C39.8156 122.891 39.4808 123.822 39.0029 124.684Z" fill="#263238"/>
<path d="M35.918 122.973C35.9675 122.485 36.0955 122.007 36.2973 121.558C36.4275 121.082 36.6326 120.629 36.905 120.214C36.8555 120.703 36.7275 121.18 36.5257 121.63C36.3955 122.106 36.1904 122.559 35.918 122.973Z" fill="#263238"/>
<path d="M32.8564 121.195C33.0359 120.232 33.3706 119.302 33.8481 118.441C33.7981 118.93 33.6685 119.408 33.4642 119.856C33.3346 120.331 33.1295 120.783 32.8564 121.195Z" fill="#263238"/>
<path d="M29.8223 119.337C29.8748 118.848 30.0043 118.371 30.2061 117.922C30.3353 117.445 30.5404 116.992 30.8139 116.578C30.7618 117.067 30.6323 117.544 30.43 117.993C30.3021 118.47 30.0969 118.924 29.8223 119.337Z" fill="#263238"/>
<path d="M27.043 117.227C27.2224 116.264 27.5571 115.334 28.0346 114.473C27.982 114.962 27.8525 115.439 27.6507 115.888C27.5223 116.364 27.3171 116.816 27.043 117.227Z" fill="#263238"/>
<path d="M24.3652 114.626C24.5447 113.662 24.8794 112.732 25.3569 111.871C25.3043 112.36 25.1748 112.837 24.973 113.287C24.8446 113.762 24.6394 114.214 24.3652 114.626Z" fill="#263238"/>
<path d="M22.3359 111.558C22.3716 111.122 22.4829 110.695 22.665 110.295C22.7781 109.869 22.9669 109.466 23.2225 109.104C23.1855 109.535 23.0743 109.958 22.8934 110.353C22.783 110.784 22.5941 111.192 22.3359 111.558Z" fill="#263238"/>
<path d="M20.8564 108.361C20.8921 107.924 21.0034 107.497 21.1855 107.098C21.298 106.673 21.4868 106.271 21.743 105.911C21.7078 106.347 21.5966 106.774 21.414 107.174C21.3027 107.599 21.1138 108.001 20.8564 108.361Z" fill="#263238"/>
<path d="M40.9218 108.011C40.835 108.19 40.4923 108.213 40.1267 108.248C39.7611 108.284 39.4138 108.307 39.2996 108.145C39.2493 108.065 39.2996 107.935 39.423 107.81C39.6047 107.66 39.8293 107.569 40.0658 107.55C40.3024 107.531 40.5392 107.584 40.7436 107.702C40.899 107.801 40.9584 107.926 40.9218 108.011Z" fill="#FAFAFA"/>
<path d="M47.4517 111.697C47.3328 111.853 46.9581 111.791 46.5377 111.764C46.1173 111.737 45.7517 111.732 45.6649 111.553C45.6238 111.468 45.6649 111.338 45.8568 111.231C46.0813 111.105 46.3395 111.049 46.5973 111.07C46.8551 111.09 47.1004 111.187 47.3009 111.347C47.4608 111.491 47.5248 111.625 47.4517 111.697Z" fill="#FAFAFA"/>
<path d="M42.7266 106.48C42.7266 106.52 42.5621 106.48 42.3336 106.421L41.4197 106.081C40.9735 105.914 40.5153 105.779 40.0488 105.678C39.5037 105.549 38.9369 105.533 38.3854 105.633C38.2712 105.655 38.1594 105.688 38.0518 105.732C37.9653 105.767 37.8826 105.81 37.805 105.862L37.5857 106.027L37.3846 105.915C35.4745 104.8 34.0853 103.855 34.1858 103.703C34.2863 103.551 35.8081 104.254 37.7502 105.315L37.3343 105.364C37.4698 105.25 37.6244 105.159 37.7913 105.096C37.9372 105.029 38.0906 104.98 38.2483 104.948C38.9067 104.825 39.5856 104.861 40.227 105.051C40.6992 105.195 41.1543 105.389 41.5842 105.629C41.8911 105.786 42.1819 105.972 42.4525 106.184C42.6581 106.323 42.7541 106.439 42.7266 106.48Z" fill="#FAFAFA"/>
</svg>
